<svg xmlns="http://www.w3.org/2000/svg" xmlns:xlink="http://www.w3.org/1999/xlink" width="443" height="72" viewBox="0 0 443 72">
  <defs>
    <clipPath id="clip-path">
      <rect id="Rectangle_2322" data-name="Rectangle 2322" width="443" height="72" rx="28" fill="#ffce00"/>
    </clipPath>
  </defs>
  <g id="Group_4150" data-name="Group 4150" transform="translate(-1386 -857)">
    <g id="Group_4146" data-name="Group 4146" transform="translate(1386 857)">
      <path id="Path_10590" data-name="Path 10590" d="M28,0H415a28,28,0,0,1,28,28V44a28,28,0,0,1-28,28H28A28,28,0,0,1,0,44V28A28,28,0,0,1,28,0Z" fill="#ebca3f"/>
      <g id="Mask_Group_1" data-name="Mask Group 1" transform="translate(0 0)" clip-path="url(#clip-path)">
        <path id="Path_10581" data-name="Path 10581" d="M1352.52,547.769s21.148,59.109,129.363,36.556,107.048-44.471,199.5-25.968,146.052-12.791,153.4-51.056c-.906,2.046,0,167.2,0,167.2H1352.52Z" transform="translate(-1371.956 -511.254)" fill="#fff" opacity="0.156"/>
        <path id="Path_10582" data-name="Path 10582" d="M0,46.853s20.578,68.434,125.872,42.323S230.031,37.689,319.99,59.111,462.1,44.3,469.248,0c-.881,2.369,0,193.576,0,193.576H0Z" transform="translate(442.812 79.623) rotate(180)" fill="#fff" opacity="0.156"/>
      </g>
    </g>
    <g id="Group_4147" data-name="Group 4147" transform="translate(1408.414 854)">
      <g id="Group_4148" data-name="Group 4148">
        <text id="Not_the_best_response_Please_note_the_ideal_response." data-name="Not the best response! Please note the ideal response." transform="translate(76.126 15)" fill="#fff" font-size="20" font-family="Raleway-Bold, Raleway" font-weight="700"><tspan x="0" y="19">Not the best response! Please </tspan><tspan x="0" y="43">note the ideal response.</tspan></text>
        <g id="tap" transform="translate(5.864 14.999)">
          <path id="Path_10583" data-name="Path 10583" d="M.249,23.379a2.671,2.671,0,0,0,.773,2.975C2.651,27.984,6,33.867,7.658,38.013a23.991,23.991,0,0,0,5.5,7.434,4.235,4.235,0,0,1,1.264,3.028v.312a2.559,2.559,0,0,0,2.56,2.56h13.65a2.559,2.559,0,0,0,2.56-2.56V46.165a.783.783,0,0,1,.228-.581C36.569,42.705,36.6,37.9,36.6,37.7V24.189a3.5,3.5,0,0,0-3.164-3.548,3.411,3.411,0,0,0-1.955.465V19.779A3.393,3.393,0,0,0,26.33,16.86a3.373,3.373,0,0,0-5.083-2.579V12.868a6.74,6.74,0,0,0,3.413-5.887,6.825,6.825,0,0,0-13.651,0,6.74,6.74,0,0,0,3.413,5.887V26.6a9.439,9.439,0,0,1-.406,2.975.862.862,0,0,1-.615.573.822.822,0,0,1-.768-.2,12.127,12.127,0,0,1-1.764-2.114c-1.481-2.215-5.206-6.352-7.538-6.352A3.342,3.342,0,0,0,.249,23.379Zm12.467-16.4a5.119,5.119,0,0,1,10.238,0A5.067,5.067,0,0,1,21.248,10.8V6.981a3.413,3.413,0,0,0-6.825,0V10.8A5.069,5.069,0,0,1,12.716,6.981Zm-3.269,21.8a13.862,13.862,0,0,0,2.016,2.41,2.524,2.524,0,0,0,2.353.614,2.572,2.572,0,0,0,1.817-1.682,11.112,11.112,0,0,0,.5-3.521V6.981a1.706,1.706,0,1,1,3.413,0V24.9a.853.853,0,1,0,1.706,0V17.22a1.706,1.706,0,0,1,3.413,0V24.9a.853.853,0,1,0,1.706,0V19.779a1.706,1.706,0,0,1,3.413,0v5.972a.853.853,0,0,0,1.706,0V24.045a1.692,1.692,0,0,1,.5-1.206,1.726,1.726,0,0,1,1.331-.5A1.817,1.817,0,0,1,34.9,24.189V37.7c0,.042-.043,4.266-2.631,6.631a2.49,2.49,0,0,0-.781,1.839v2.621a.853.853,0,0,1-.853.853H16.982a.853.853,0,0,1-.853-.853v-.312a5.955,5.955,0,0,0-1.782-4.252c-1.445-1.4-4.03-4.16-5.1-6.844-1.756-4.387-5.23-10.446-7.015-12.23-.406-.406-.542-.781-.4-1.116a1.682,1.682,0,0,1,1.507-.84C4.491,23.191,7.635,26.066,9.447,28.784Zm0,0" transform="translate(0 -0.14)" fill="#fff"/>
          <path id="Path_10584" data-name="Path 10584" d="M315.064,305.649a.853.853,0,0,0,.853-.853v-5.119a.853.853,0,0,0-1.706,0V304.8A.853.853,0,0,0,315.064,305.649Zm0,0" transform="translate(-282.725 -268.947)" fill="#fff"/>
          <path id="Path_10585" data-name="Path 10585" d="M306.532,387.676a.852.852,0,0,0,.6-.25,3.464,3.464,0,0,0,1.1-2.31.842.842,0,0,0-.833-.841.858.858,0,0,0-.874.821,1.877,1.877,0,0,1-.6,1.123.853.853,0,0,0,.6,1.456Zm0,0" transform="translate(-275.046 -345.855)" fill="#fff"/>
          <path id="Path_10586" data-name="Path 10586" d="M178.529,462.663h.853a.853.853,0,1,0,0-1.706h-.853a.853.853,0,1,0,0,1.706Zm0,0" transform="translate(-159.841 -414.87)" fill="#fff"/>
          <path id="Path_10587" data-name="Path 10587" d="M221.2,462.663h5.972a.853.853,0,1,0,0-1.706H221.2a.853.853,0,0,0,0,1.706Zm0,0" transform="translate(-198.243 -414.87)" fill="#fff"/>
          <path id="Path_10588" data-name="Path 10588" d="M78.691,14.127a.853.853,0,0,0,.622-1.438,8.511,8.511,0,0,1-.374-11.276A.853.853,0,1,0,77.624.326a10.218,10.218,0,0,0,.445,13.532A.854.854,0,0,0,78.691,14.127Zm0,0" transform="translate(-67.681 0)" fill="#fff"/>
          <path id="Path_10589" data-name="Path 10589" d="M242.967,11.867a.853.853,0,0,0,1.148-.37A10.2,10.2,0,0,0,242.9.326a.853.853,0,1,0-1.315,1.087,8.5,8.5,0,0,1,1.016,9.306A.853.853,0,0,0,242.967,11.867Zm0,0" transform="translate(-217.169 0)" fill="#fff"/>
        </g>
      </g>
    </g>
  </g>
</svg>
