<svg xmlns="http://www.w3.org/2000/svg" xmlns:xlink="http://www.w3.org/1999/xlink" width="106" height="106" viewBox="0 0 106 106">
  <defs>
    <clipPath id="clip-path">
      <circle id="Ellipse_27" data-name="Ellipse 27" cx="50" cy="50" r="50" fill="#fff"/>
    </clipPath>
  </defs>
  <g id="Group_4154" data-name="Group 4154" transform="translate(-9646 -5100)">
    <circle id="Ellipse_571" data-name="Ellipse 571" cx="53" cy="53" r="53" transform="translate(9646 5100)" fill="#8d90e6"/>
    <g id="Group_3658" data-name="Group 3658" transform="translate(9438.914 3425.299)">
      <circle id="Ellipse_23" data-name="Ellipse 23" cx="50" cy="50" r="50" transform="translate(210.086 1677.701)" fill="#fff"/>
      <g id="Group_315" data-name="Group 315" transform="translate(210.086 1677.701)" clip-path="url(#clip-path)">
        <g id="Group_314" data-name="Group 314" transform="translate(13.174 4.511)">
          <path id="Path_516" data-name="Path 516" d="M249.627,1781.335s-13.334,9.27-11.933,10.554c.912.836,5.469,8.561,7.571,10.377a63.359,63.359,0,0,0,5.358,4.057c.343-.016,3.9,5.23,3.215,5.26s-3.146-3.655-3.146-3.655,2.57,4.944,1.767,4.979-2.35-4.523-2.706-4.134,2.88,5.506,1.791,5.553-2.1-3.3-2.508-2.85-.59.881-.98.523c-.179-.163-.249-.023-.793-.994a20.627,20.627,0,0,0-3.326-3.906c-1.4-1.28-12.077-12-13.685-15.95s19.493-31.9,25.1-35.017S250.272,1780.706,249.627,1781.335Z" transform="translate(-230.166 -1709.102)" fill="#fc7575"/>
          <path id="Path_517" data-name="Path 517" d="M254.7,1779.255l-12,12.57L235.7,1780.87s14.5-24.645,22.38-24.986C259.341,1755.829,254.7,1779.255,254.7,1779.255Z" transform="translate(-232.069 -1709.1)" fill="#f7931e"/>
          <path id="Path_518" data-name="Path 518" d="M253.61,1786.545c1.27-13.034,3.614-24.008,6.727-29.355,1.4-.972,3.315-2.153,4.49-2.2,1.262-.055-3.967,23.961-3.967,23.961Z" transform="translate(-238.229 -1708.791)" fill="#e27f1b"/>
          <path id="Path_519" data-name="Path 519" d="M274.072,1894.12s-8.234,89.022-10.327,98.526l.016,6-16.229.018s.976-2,2.81-2,6.464-2.174,7.729-3.676-1.119-124.517-1.119-124.517l20.156-.022Z" transform="translate(-236.139 -1747.812)" fill="#0c0c0d"/>
          <path id="Path_520" data-name="Path 520" d="M266.457,1876.109l2.857,14.28s22.768,77.345,21.85,104.383c0,0-1.892,3.206-8.591,5.11-.362.1-1.032,2.115-1.032,2.115l17.821-.772-1-5.44s-.8-91.992-.829-102.7-2.884-24.653-2.884-24.653l-29.339.031Z" transform="translate(-242.252 -1747.806)" fill="#33405a"/>
          <path id="Path_521" data-name="Path 521" d="M256.129,1809.217c-.068-26.341,3.778-52.51,9.759-55.849,3.549-.154,4.437-.224,8.018-.343,5.344-.177,13.574,2.406,18.049,16.932,4.072,13.216,2.962,53.415,2.393,73.107-15.095.016-26.137-.455-40.784-.439C253.323,1838.028,256.15,1817.5,256.129,1809.217Z" transform="translate(-238.208 -1708.115)" fill="#d24307"/>
          <path id="Path_522" data-name="Path 522" d="M261.386,1715.226a4.624,4.624,0,0,1,1.846-.768l-.424-.665S261.364,1714.452,261.386,1715.226Z" transform="translate(-240.903 -1694.625)" fill="#2f499f"/>
          <path id="Path_523" data-name="Path 523" d="M269.759,1736.151l1.62,12.762c.333,2.622,2.279,4.5,4.459,4.318.55-.045,1.128-.115,1.709-.22,2.908-.527,5.569-3.076,4.879-6.552-.886-4.458-2.83-11.861-2.91-15.794C279.386,1724.226,269.666,1732.867,269.759,1736.151Z" transform="translate(-243.783 -1699.628)" fill="#fc7575"/>
          <path id="Path_524" data-name="Path 524" d="M279.516,1730.664c-.13-6.438-9.85,2.2-9.757,5.487l.947,7.46a24.777,24.777,0,0,0,5.067-1.544c2.632-1.18,2.708-4.528,4.253-5.515a1.7,1.7,0,0,0,.241-.19A37.06,37.06,0,0,1,279.516,1730.664Z" transform="translate(-243.783 -1699.628)" fill="#fd5e5a"/>
          <path id="Path_525" data-name="Path 525" d="M248.974,1708.5c2.937,1.731,8.658,4.194,10.685,1.484-1.787,3.087-8.091,1.264-11.391-.152Z" transform="translate(-236.392 -1692.803)" fill="#5c2c55"/>
          <path id="Path_526" data-name="Path 526" d="M261.514,1720.809s-3.107-2.252-2.523-.238,2.263,6.33,3.786,4.587S261.514,1720.809,261.514,1720.809Z" transform="translate(-240.055 -1696.667)" fill="#fd5e5a"/>
          <path id="Path_527" data-name="Path 527" d="M268.847,1703.208c-.466.488-5.741.262-7.313,5.717s.757,17.775,4.2,21,7.214,1.031,10.025-4.648,8.379-13.037,3.988-18.244C277.416,1704.266,268.847,1703.208,268.847,1703.208Z" transform="translate(-240.782 -1690.984)" fill="#fc7575"/>
          <path id="Path_528" data-name="Path 528" d="M263.479,1701.4c-.4,2.858-3.137,6.846-10.054,2.769s-5.729-9.521-5.729-9.521,3.572,4.361,5.651,3.353.4-6.276.4-6.276,7.643-.785,9.079-.826,3.022,4.377,3.022,4.377-1.038-1.964,6.506-2.842,3.428,10.485,4.4,14.35-3.976,10.89-3.912,13.166a5.988,5.988,0,0,0,1.348,3.664s-1.616.425-3.165-3.518.911-9.894.825-12.929a6.658,6.658,0,0,0-3.462-6.058C267.21,1700.3,263.879,1698.543,263.479,1701.4Z" transform="translate(-236.168 -1686.752)" fill="#5c2c55"/>
          <path id="Path_529" data-name="Path 529" d="M283.169,1720.07s-1.778,4.963-.432,4.543A5.979,5.979,0,0,0,286,1718.1C285.309,1714.62,283.169,1720.07,283.169,1720.07Z" transform="translate(-248.073 -1695.707)" fill="#fc7575"/>
          <path id="Path_530" data-name="Path 530" d="M283.429,1721.1s1.14-1.6,1.55-1.061c.957,1.252-1.962,4.988-1.99,4.015A16.443,16.443,0,0,1,283.429,1721.1Z" transform="translate(-248.333 -1696.733)" fill="#fd5e5a"/>
          <path id="Path_531" data-name="Path 531" d="M272.748,1719.268c.022.773-.422,1.413-.993,1.429s-1.051-.6-1.073-1.37.422-1.413.993-1.429S272.726,1718.495,272.748,1719.268Z" transform="translate(-244.1 -1696.036)" fill="#2f499f"/>
          <path id="Path_532" data-name="Path 532" d="M263.574,1719.527c.022.773-.423,1.412-.993,1.429s-1.05-.6-1.072-1.371.423-1.412.993-1.429S263.552,1718.754,263.574,1719.527Z" transform="translate(-240.945 -1696.125)" fill="#2f499f"/>
          <path id="Path_533" data-name="Path 533" d="M274.043,1713.2l-.433-.843a2.47,2.47,0,0,1-2.309,1.358S273.332,1714.259,274.043,1713.2Z" transform="translate(-244.313 -1694.132)" fill="#2f499f"/>
          <path id="Path_534" data-name="Path 534" d="M259.615,1716.443l-3.229.091a1.954,1.954,0,0,0-1.826,2.068l.068,2.4a1.954,1.954,0,0,0,1.939,1.963l3.23-.091a1.953,1.953,0,0,0,1.825-2.069l-.068-2.4A1.953,1.953,0,0,0,259.615,1716.443Zm1.138,4.391a1.053,1.053,0,0,1-.983,1.114l-3.23.091a1.054,1.054,0,0,1-1.045-1.057l-.068-2.4a1.053,1.053,0,0,1,.983-1.114l3.229-.091a1.054,1.054,0,0,1,1.044,1.057Z" transform="translate(-238.555 -1695.535)" fill="#0f1d5b"/>
          <path id="Path_535" data-name="Path 535" d="M274.177,1715.9l-3.763.106a2.133,2.133,0,0,0-2.134,2.126l.07,2.462a2.133,2.133,0,0,0,2.251,2l3.762-.106a2.132,2.132,0,0,0,2.135-2.126l-.07-2.462A2.133,2.133,0,0,0,274.177,1715.9Zm1.308,4.493a1.15,1.15,0,0,1-1.15,1.145l-3.762.106a1.15,1.15,0,0,1-1.212-1.079l-.07-2.461a1.151,1.151,0,0,1,1.149-1.146l3.763-.106a1.15,1.15,0,0,1,1.212,1.079Z" transform="translate(-243.274 -1695.349)" fill="#0f1d5b"/>
          <path id="Path_536" data-name="Path 536" d="M278.717,1712.889l-3.8,15,6.865,2,4.133-15.73Z" transform="translate(-245.557 -1694.313)" fill="#0f1d5b"/>
          <circle id="Ellipse_24" data-name="Ellipse 24" cx="1.691" cy="1.691" r="1.691" transform="translate(34.089 21.923)" fill="#fff"/>
          <g id="Group_313" data-name="Group 313" transform="translate(22.844 21.147)">
            <path id="Path_537" data-name="Path 537" d="M265.629,1727.1c0-.049-1.5-3.925.073-10.107.078-.306.57-.2.492.109-.014.056-1.359,5.475-.215,9.427,1.479-.264,2.019-.651,2.124-.246S267.542,1726.572,265.629,1727.1Z" transform="translate(-264.985 -1716.809)" fill="#2f499f"/>
          </g>
          <path id="Path_9961" data-name="Path 9961" d="M0,.012H2.617V.886H0Z" transform="matrix(1, -0.028, 0.028, 1, 22.625, 22.963)" fill="#0f1d5b"/>
          <path id="Path_538" data-name="Path 538" d="M266.126,1684.576c2.271.02,4.606.883,5.723,2.761a7.347,7.347,0,0,1,.829,4.37l-.217,1.428-.5-.064a12.9,12.9,0,0,0-.086-2.739c-.539-3.041-2.759-4.329-5.7-4.048Z" transform="translate(-242.533 -1684.576)" fill="#5c2c55"/>
          <path id="Path_539" data-name="Path 539" d="M290.32,1742.478s24.183-1.385,24.095-3.431-22.941-9.576-24.532-10.143a28.341,28.341,0,0,1-5-2.264,29.071,29.071,0,0,1-3.446-.929c-1.1-.438-.111-1.183,1.082-1.234s2.4.165,2.935.143-.525-2.459-.568-3.428-2.076-3.794-3.806-3.719-3.309-.5-2.908-.9,6.938.131,7.124.285,4.234,6.668,5.907,8.051,35.082,3.748,37.043,12.223-23.159,22.685-28.121,22.18S285.4,1742.978,290.32,1742.478Z" transform="translate(-246.655 -1695.531)" fill="#ff8d8d"/>
          <path id="Path_540" data-name="Path 540" d="M333.072,1764.309l-6.293-11.333c.838-.142,1.589-.293,2.225-.447l6.844,9.81C334.948,1763.015,334.018,1763.673,333.072,1764.309Z" transform="translate(-263.393 -1707.946)" fill="#fd5e5a"/>
          <path id="Path_541" data-name="Path 541" d="M316.961,1751.071l9.023,15.069s-17.176,5.337-20.5,5.481-11.022-9.6-11.559-13.573.074-4.512.074-4.512Z" transform="translate(-252.017 -1707.445)" fill="#fbb03b"/>
          <path id="Path_542" data-name="Path 542" d="M292.865,1755.561c.027.715.106,1.412.2,2.1.3,3.233,4.308,8.154,6.788,10.4-1.958-2.446-5.552-7.39-5.761-10.522a12.733,12.733,0,0,1,0-3.468c9.251-.916,17.649-2.1,22.58-3-10.563.355-23.331,2.249-23.455,2.261A7.724,7.724,0,0,0,292.865,1755.561Z" transform="translate(-251.729 -1707.445)" fill="#ffe09a"/>
          <path id="Path_543" data-name="Path 543" d="M258.615,1830.548c.344-.014,4.5,6.039,3.811,6.069s-3.5-3.824-3.5-3.824,2.927,5.113,2.125,5.148-2.82-4.5-3.177-4.114,3.351,5.485,2.262,5.532-2.246-3.135-2.658-2.686-.44.717-.829.36c-.2-.183-.852-1.763-1.5-2.9l.466-5.458A10.731,10.731,0,0,0,258.615,1830.548Z" transform="translate(-238.756 -1734.136)" fill="#fc7575"/>
          <path id="Path_544" data-name="Path 544" d="M257.035,1838.949s1.971,3.451,1.575,3.882-3.188-3.981-2.975-4.213S257.035,1838.949,257.035,1838.949Z" transform="translate(-238.921 -1737.535)" fill="#fc7575"/>
          <circle id="Ellipse_25" data-name="Ellipse 25" cx="0.343" cy="0.343" r="0.343" transform="translate(34.19 19.226)" fill="#fff"/>
          <circle id="Ellipse_26" data-name="Ellipse 26" cx="0.117" cy="0.117" r="0.117" transform="translate(35.119 19.509)" fill="#fff"/>
          <path id="Path_545" data-name="Path 545" d="M4.775,2.125S1.679.962,0,2.081C0,2.081.47.522.9.241,1.8-.351,4.014.1,4.775,2.125Z" transform="translate(28.719 35.771) rotate(180)" fill="#fff"/>
        </g>
      </g>
    </g>
  </g>
</svg>
