<svg id="ext-icn" xmlns="http://www.w3.org/2000/svg" width="42" height="42" viewBox="0 0 42 42">
  <circle id="Ellipse_28" data-name="Ellipse 28" cx="21" cy="21" r="21" fill="#4b4f53"/>
  <path id="Path_552" data-name="Path 552" d="M306.781,152.292a.825.825,0,0,0-.177-.266l-2.448-2.448A.816.816,0,0,0,303,150.732l1.056,1.056H299.5a.816.816,0,1,0,0,1.633h4.56L303,154.476a.816.816,0,1,0,1.154,1.154l2.448-2.448a.808.808,0,0,0,.177-.266A.817.817,0,0,0,306.781,152.292Z" transform="translate(-274.25 -131.216)" fill="#fff"/>
  <path id="Path_553" data-name="Path 553" d="M13.893,11.43a.816.816,0,0,0-.816.816v4.082H9.811V3.266a.817.817,0,0,0-.582-.782L6.393,1.633h6.683V5.715a.816.816,0,1,0,1.633,0V.816A.816.816,0,0,0,13.893,0H.83A.728.728,0,0,0,.746.015.806.806,0,0,0,.4.136C.382.148.36.149.343.162S.334.176.327.18A.809.809,0,0,0,.11.438.667.667,0,0,0,.087.507.774.774,0,0,0,.023.7a.508.508,0,0,0,0,.071C.025.785.014.8.014.816V17.144a.816.816,0,0,0,.656.8l8.164,1.633a.76.76,0,0,0,.16.016.817.817,0,0,0,.816-.816v-.816h4.082a.816.816,0,0,0,.816-.816v-4.9A.816.816,0,0,0,13.893,11.43Z" transform="translate(12.986 12.408)" fill="#fff"/>
</svg>
