<svg xmlns="http://www.w3.org/2000/svg" width="166.94" height="59.482" viewBox="0 0 166.94 59.482">
  <g id="Group_6076" data-name="Group 6076" transform="translate(-1280 -9280.03)">
    <path id="Path_16107" data-name="Path 16107" d="M319.76,318.47l7.329-41.2h14.323l-2.733,14.875h15.84l2.67-14.875h14.516l-7.362,41.2H349.829l2.86-15.789H336.913l-2.86,15.792Zm71.934-24.1,20.892.026a24.872,24.872,0,0,1-6.776,16.643c-3.728,4.019-8.589,6.914-16.352,7.2-7.549.28-11.621-1.926-14.926-5.527-3.409-3.711-4.435-8.291-3.874-14.02a19.036,19.036,0,0,1,2.479-8.057,21.172,21.172,0,0,1,5.169-6.818,21.935,21.935,0,0,1,6.925-4.648,25.794,25.794,0,0,1,7.96-2.014c3.793-.251,7.236-.043,10.3,1.334a15.837,15.837,0,0,1,7.96,7.665l-9.983,4.7a9.181,9.181,0,0,0-3.524-3.719c-1.475-.886-3.048-.889-5.02-.879-3.026.019-4.868,1.12-7.264,3.2-2.445,2.127-3.59,4.732-4.2,8.355-.6,3.573,0,7.62,1.72,9.452a8.544,8.544,0,0,0,6.681,2.643,12.6,12.6,0,0,0,3.083-.435,19.022,19.022,0,0,0,2.826-1.066,9.687,9.687,0,0,0,3.942-3.6,9.114,9.114,0,0,0,1-2.1H390.2Zm24.886,9.94c1.675,1.639,2.614,3.156,4.029,4.058a7.01,7.01,0,0,0,4.184,1.395,7.771,7.771,0,0,0,3.923-1.24,5.641,5.641,0,0,0,1.859-3.31c.029-1.422.215-2.527-3.931-4.018-.322-.116-2.081-.518-2.265-.593-3.184-1.373-5.626-2.532-6.787-3.923s-1.447-3.365-1.4-5.482a13.366,13.366,0,0,1,4.278-9.762,16.506,16.506,0,0,1,10.6-4.43,18.212,18.212,0,0,1,6.508.682,16.449,16.449,0,0,1,5.471,2.8l-4.774,7.826a15.879,15.879,0,0,0-3.311-2.38,8.671,8.671,0,0,0-3.587-.784,6.171,6.171,0,0,0-3.328.992,3.606,3.606,0,0,0-1.549,3.051c.039,1.859,1.949,2.431,4.944,3.311a24.7,24.7,0,0,1,2.867.981c2.832,1.309,4.348,2.126,5.431,3.621s1.24,2.963,1.19,5.327a15.38,15.38,0,0,1-5.019,11.068,17.641,17.641,0,0,1-11.466,4.6,18.307,18.307,0,0,1-7.9-1.085,17.177,17.177,0,0,1-6.207-4.648Z" transform="translate(1001.013 9009.577)" fill="#002f85"/>
    <path id="Path_16108" data-name="Path 16108" d="M156.68,459.086a29.97,29.97,0,0,0,8.721-1.126l1.013,2.2h0v.009c.155.349.274.6.276.6l.011.036v.034l.008.025v.011l.011.036h0l.011.034v.034l.008.026v.009l.011.036h0v.095h0l.009.036h0l.008.029v.034l.008.029h0l.011.034v.008l.008.026v.034l.009.031h0l.009.034v.067l.009.031h0l.009.033v.065l.009.031h0l.008.031v.093h0l.008.028v.054h0l.008.029h0v.054l.008.023h0v.028h0v.074h0v.028h0v.071h0v.1h0v.062h0v.023h0v.056h0v.02h0v.019h0v.025h0v.017h0v.031h0c.02.077.036.141.048.187a38.549,38.549,0,0,1-8.47,1.452,15.13,15.13,0,0,1-1.195-1.976h0Z" transform="translate(1138.824 8856.613)" fill="#76bb23" fill-rule="evenodd"/>
    <path id="Path_16109" data-name="Path 16109" d="M213,374.678a23.531,23.531,0,0,0,3.9-1.469h.031l-.014-.008a21.676,21.676,0,0,0,4.143-2.335l.232-.169q.655-.513,1.193-1.027h0c.126-.118.248-.236.364-.352q3.458-3.542,1.357-6.937a.023.023,0,0,0,0-.012c-.012-.02-.025-.039-.039-.057a6.6,6.6,0,0,0-2.355-1.875q-.637-.338-1.452-.68c-.3-.122-.6-.24-.92-.356a21.959,21.959,0,0,1,2.5.638c.144.045.287.091.426.141a11.157,11.157,0,0,1,4.648,2.743,6.043,6.043,0,0,1,1.117,1.677,7,7,0,0,1,1.142,3.057.045.045,0,0,0,0,.014c.852,6.409-10.867,10.8-14.4,11.855,0,0-.017-.068-.048-.187h0v-.031h0v-.017h0v-.051h0v-.02h0v-.056h0v-.023h0l-.008-.031v-.031h0v-.033l-.009-.033v-.033h0v-.036l-.009-.036h0v-.028h0l-.009-.037v-.037h0v-.028h0l-.008-.023V378.7h0l-.008-.029h0l-.011-.042-.012-.04h0v-.039l-.012-.043-.011-.042h0l-.009-.031v-.065l-.009-.033h0l-.012-.045v-.053l-.009-.034h0l-.014-.045v-.02l-.008-.026v-.008l-.011-.034h0l-.008-.029v-.017l-.014-.046h0l-.009-.036h0v-.048l-.012-.046h0l-.011-.036V377.8l-.008-.026v-.034l-.011-.034h0l-.011-.036v-.011l-.008-.025v-.022l-.014-.048-.279-.606-.026-.057-.04-.085-.067-.144-1.064-1.842v-.014l-.022-.047v-.014Z" transform="translate(1091.23 8939.901)" fill="#002f85" fill-rule="evenodd"/>
    <path id="Path_16110" data-name="Path 16110" d="M67.746,402.028l-.06-.008c-3.934-.473-10.2-2.028-11.049-6.483,0-.958-.042-1.952.022-2.905.232-3.806,4.227-6.489,7.292-8.2v.434c-1.771,1.5-3.943,3.516-3.719,6.063a4.4,4.4,0,0,0,.883,2.287,9.5,9.5,0,0,0,4.3,2.832,30.669,30.669,0,0,0,1.364,3.931h0c.048.1.871,1.818.978,2.05" transform="translate(1223.377 8918.75)" fill="#df271c" fill-rule="evenodd"/>
    <path id="Path_16111" data-name="Path 16111" d="M111.457,307.708h-.014m-4.749,3.022h0a30.669,30.669,0,0,1-1.364-3.931,40.726,40.726,0,0,1-1.151-5.981,42.264,42.264,0,0,1-.31-5.2q0-.214,0-.423v-.011a28.653,28.653,0,0,1,1.61-9.286q2.334-6.415,6.647-6.985a10.647,10.647,0,0,1,1.8-.071q4.382-.3,7.822,4.847a21.393,21.393,0,0,1,2.444,5q-.406-.7-1.069-1.621a13.119,13.119,0,0,0-2.789-2.93h0a5.8,5.8,0,0,0-2.479-1.148,4.738,4.738,0,0,0-1.488-.029q-3.525.465-5.423,5.7a21.083,21.083,0,0,0-.95,3.607v.009l-.02.112v.034l-.011.067v.022l-.019.122v.008l-.019.116-.009.067v.026c-.015.108-.031.217-.045.327v.037l-.02.164h0l-.019.155-.009.068v.028l-.014.122h0l-.019.183h0c-.011.116-.023.234-.033.352v.059l-.012.155v.009l-.011.155v.062l-.023.341v.019l-.009.155v.042l-.008.132v.074c0,.186-.014.372-.019.561v.025c0,.186,0,.372-.008.559v.665q0,.377.023.758v.228l.009.17v.239l.008.122v.141l.009.141v.022l.014.184v.033l.011.144v.105l.012.139v.04l.017.186v.017l.019.2v.019l.019.177v.071l.017.155v.026l.008.071.019.146a30.79,30.79,0,0,0,1.534,6.754l.046.136h0l-.023.031h0l-.015.022v.009l-.056.071c-.465.6-2.027,2.684-2.324,3.1h0l-2.295-.2h0Zm7.465,2.152c1.632,2.231,3.384,3.744,6.254,3.564q2.969-.212,5.212-5.033a10.417,10.417,0,0,1-6.954,8.113,5.983,5.983,0,0,1-1.629.452c-4.339.575-7.554-3.767-9.371-7.191.494.059,1,.1,1.506.138h.022c.727.051,1.489.082,2.227.088A19.467,19.467,0,0,0,114.16,312.882Z" transform="translate(1183.452 9007.993)" fill="#002f85" fill-rule="evenodd"/>
    <path id="Path_16112" data-name="Path 16112" d="M123.966,468.816h0l.015-.02h0l.015-.022h0l.015-.02v-.008l.015-.02.008-.011.014-.019.011-.016.012-.015.015-.02.009-.014.019-.025.008-.011.023-.031h0l.028-.037h0l.13-.174.011-.016.023-.031.017-.022.02-.026.02-.028.174-.231h0l.042-.054h0l.04-.053v-.011l.036-.046.012-.015.074-.1.022-.028.068-.09.029-.042.015-.019.036-.046.009-.012.04-.054h0l.045-.06h0l.046-.06h0l.04-.054.009-.012.037-.048.014-.019.031-.042.019-.025.028-.036.023-.033.022-.028.028-.037.017-.023.033-.043.012-.017.037-.048.008-.011.042-.054h0l.043-.057h0l.042-.054v-.008l.037-.05.009-.014.033-.042.014-.019.028-.037.019-.023.022-.031.023-.029.017-.023.026-.034.014-.019.029-.039.009-.011.033-.043h0l.036-.048h0l.036-.046h0l.033-.042V466.1l.026-.037.009-.011.023-.031.012-.016.019-.025.015-.02.014-.019.017-.023.012-.014.019-.025v-.011l.02-.028h0l.022-.028h0l.022-.029h0l.023-.029.022-.026.011-.016V465.7l.015-.022.026-.033h.6l.91,3.2h0a15.129,15.129,0,0,0,1.195,1.976,19.46,19.46,0,0,1-2.733.126c-.738,0-1.5-.037-2.227-.088h-.022c-.51-.034-1.012-.079-1.506-.138-.107-.232-.93-1.951-.978-2.05h.076l.22.02h.034l.211.019h.045l.218.02h.079l.164.016h.088l.177.015.121.011.122.011.175.016.088.008.167.016.1.008.155.014.085.008Z" transform="translate(1168.51 8850.114)" fill="#fecd00" fill-rule="evenodd"/>
    <path id="Path_16113" data-name="Path 16113" d="M436.221,587.892a2.511,2.511,0,0,0,.61.525,1.182,1.182,0,0,0,.6.174.69.69,0,0,0,.465-.155.473.473,0,0,0,.178-.378.5.5,0,0,0-.155-.392,1.967,1.967,0,0,0-.7-.284,2.285,2.285,0,0,1-1.055-.524,1.224,1.224,0,0,1-.31-.886,1.563,1.563,0,0,1,.488-1.19,1.77,1.77,0,0,1,1.266-.465,2.807,2.807,0,0,1,.8.113,2.58,2.58,0,0,1,.713.342l-.434,1a1.818,1.818,0,0,0-.485-.31,1.286,1.286,0,0,0-.491-.1.654.654,0,0,0-.406.119.394.394,0,0,0-.019.62,1.5,1.5,0,0,0,.528.22l.064.017a2.674,2.674,0,0,1,1.114.5,1.247,1.247,0,0,1,.274.451,1.859,1.859,0,0,1-.437,1.883,2,2,0,0,1-1.416.491,2.53,2.53,0,0,1-.968-.18,2.771,2.771,0,0,1-.84-.567Zm-6.911,1.639v-5.081h1.337l1.921,2.616a3.577,3.577,0,0,1,.183.321q.126.242.279.576c-.028-.212-.048-.4-.06-.564s-.02-.31-.02-.437v-2.512h1.331v5.081H432.95l-1.92-2.626a2.98,2.98,0,0,1-.187-.321c-.084-.155-.175-.35-.274-.569q.042.321.06.567c.012.155.019.31.019.437v2.512Zm-4.208-1.038a1.216,1.216,0,0,0,.953-.425,1.7,1.7,0,0,0,0-2.137,1.274,1.274,0,0,0-1.9,0,1.718,1.718,0,0,0,0,2.141,1.221,1.221,0,0,0,.95.424Zm2.716-1.5a2.642,2.642,0,0,1-.2,1.029,2.61,2.61,0,0,1-.587.858,2.812,2.812,0,0,1-.889.578,2.772,2.772,0,0,1-2.083,0,2.676,2.676,0,0,1-.877-.578,2.588,2.588,0,0,1-.6-.862,2.693,2.693,0,0,1,0-2.052,2.6,2.6,0,0,1,.6-.86,2.675,2.675,0,0,1,.877-.578,2.767,2.767,0,0,1,2.972.578A2.6,2.6,0,0,1,427.818,587Zm-8.363,2.533v-5.081h1.395v5.081Zm-3.861,0v-3.874h-1.139v-1.2h3.665v1.2h-1.144v3.874Zm-6.934-5.085h1.382v2.479a7.641,7.641,0,0,0,.028.784,1.477,1.477,0,0,0,.094.4.564.564,0,0,0,.277.3,1.187,1.187,0,0,0,.964,0,.586.586,0,0,0,.279-.3,1.478,1.478,0,0,0,.094-.4c.017-.155.028-.42.028-.784v-2.479h1.379v2.688a5.406,5.406,0,0,1-.1,1.24,1.665,1.665,0,0,1-.339.68,1.586,1.586,0,0,1-.716.465,4.061,4.061,0,0,1-2.211,0,1.618,1.618,0,0,1-.717-.465,1.746,1.746,0,0,1-.339-.68,5.52,5.52,0,0,1-.1-1.24v-2.684Zm-4.379,5.085v-5.081h1.384v3.9h1.723v1.184Zm-4.21-1.038a1.223,1.223,0,0,0,.954-.425,1.7,1.7,0,0,0,0-2.137,1.274,1.274,0,0,0-1.9,0,1.721,1.721,0,0,0,0,2.141,1.224,1.224,0,0,0,.948.424Zm2.718-1.5a2.616,2.616,0,0,1-.2,1.029,2.583,2.583,0,0,1-.586.858,2.812,2.812,0,0,1-.889.578,2.772,2.772,0,0,1-2.083,0,2.675,2.675,0,0,1-.877-.578,2.588,2.588,0,0,1-.6-.862,2.693,2.693,0,0,1,0-2.052,2.6,2.6,0,0,1,.6-.86,2.675,2.675,0,0,1,.877-.578,2.767,2.767,0,0,1,2.972.578A2.6,2.6,0,0,1,402.789,587Zm-9.753.889a2.511,2.511,0,0,0,.611.525,1.181,1.181,0,0,0,.6.174.689.689,0,0,0,.465-.155.473.473,0,0,0,.178-.378.5.5,0,0,0-.155-.392,1.968,1.968,0,0,0-.7-.284,2.286,2.286,0,0,1-1.055-.524,1.224,1.224,0,0,1-.31-.886,1.563,1.563,0,0,1,.488-1.19,1.77,1.77,0,0,1,1.266-.465,2.809,2.809,0,0,1,.8.113,2.58,2.58,0,0,1,.713.342l-.434,1a1.816,1.816,0,0,0-.485-.31,1.281,1.281,0,0,0-.491-.1.654.654,0,0,0-.406.119.394.394,0,0,0-.019.62,1.5,1.5,0,0,0,.528.22l.064.017a2.675,2.675,0,0,1,1.114.5,1.248,1.248,0,0,1,.274.451,1.859,1.859,0,0,1-.437,1.883,2,2,0,0,1-1.416.491,2.53,2.53,0,0,1-.968-.18,2.772,2.772,0,0,1-.84-.567Zm-6.238,1.644v-5.081h1.385v3.9h1.723v1.184Zm-6.353,0,1.756-5.085h1.737l1.751,5.085h-1.379l-.257-.911h-1.969l-.265.911Zm1.943-1.9h1.378l-.518-1.677c-.016-.051-.037-.133-.065-.248l-.108-.437q-.043.189-.088.358c-.028.115-.059.222-.088.327Zm-5.508.863h.487a1.441,1.441,0,0,0,.7-.124.442.442,0,0,0,.2-.411.5.5,0,0,0-.186-.442,1.327,1.327,0,0,0-.694-.127h-.508Zm-1.291,1.038v-5.081h1.395a8.71,8.71,0,0,1,1.2.056,1.859,1.859,0,0,1,.589.191,1.085,1.085,0,0,1,.428.418,1.21,1.21,0,0,1,.155.606,1.023,1.023,0,0,1-.222.691,1.4,1.4,0,0,1-.7.387,1.21,1.21,0,0,1,.846.38,1.3,1.3,0,0,1,.31.9,1.431,1.431,0,0,1-.172.716,1.181,1.181,0,0,1-.491.479,2.031,2.031,0,0,1-.642.2,9.354,9.354,0,0,1-1.25.059Zm1.285-3.052h.28a1.54,1.54,0,0,0,.707-.113.421.421,0,0,0,.191-.392.448.448,0,0,0-.18-.4,1.423,1.423,0,0,0-.7-.116h-.3Zm-5.495,2.014a1.223,1.223,0,0,0,.954-.425,1.694,1.694,0,0,0,0-2.137,1.272,1.272,0,0,0-1.9,0,1.721,1.721,0,0,0,0,2.141,1.224,1.224,0,0,0,.947.424ZM374.1,587a2.616,2.616,0,0,1-.2,1.029,2.583,2.583,0,0,1-.586.858,2.812,2.812,0,0,1-.889.578,2.772,2.772,0,0,1-2.083,0,2.675,2.675,0,0,1-.877-.578,2.566,2.566,0,0,1-.6-.862,2.608,2.608,0,0,1,.6-2.911,2.675,2.675,0,0,1,.877-.578,2.767,2.767,0,0,1,2.972.578A2.592,2.592,0,0,1,374.1,587Zm-9.5,2.533v-5.081h1.385v3.9H367.7v1.184Zm-4.2-1.873v-1.066h2.724v.305a2.835,2.835,0,0,1-.691,2.038,2.567,2.567,0,0,1-1.951.725,3.032,3.032,0,0,1-1.1-.186,2.412,2.412,0,0,1-.858-.569,2.546,2.546,0,0,1-.562-.863,2.777,2.777,0,0,1-.2-1.044,2.746,2.746,0,0,1,.2-1.047,2.547,2.547,0,0,1,.58-.86,2.615,2.615,0,0,1,.877-.562,2.943,2.943,0,0,1,1.069-.191,2.846,2.846,0,0,1,1.32.294,2.591,2.591,0,0,1,.968.879l-1.2.576a1.461,1.461,0,0,0-.485-.439,1.253,1.253,0,0,0-.6-.144,1.219,1.219,0,0,0-.979.415,1.681,1.681,0,0,0-.358,1.134,1.7,1.7,0,0,0,.358,1.143,1.221,1.221,0,0,0,.979.417,1.445,1.445,0,0,0,.88-.26.987.987,0,0,0,.411-.69Zm-10.382,1.873,1.756-5.085H353.5l1.76,5.085h-1.379l-.257-.911h-1.969l-.265.911Zm1.943-1.9h1.378l-.518-1.677c-.016-.051-.037-.133-.065-.248l-.108-.437q-.043.189-.088.358c-.028.115-.057.222-.088.327Zm-4.376-3.184h1.381v3.3a3.747,3.747,0,0,1-.07.827,1.461,1.461,0,0,1-.229.511,1.379,1.379,0,0,1-.521.435,1.6,1.6,0,0,1-.694.147,1.758,1.758,0,0,1-.855-.2,1.8,1.8,0,0,1-.641-.609l.848-.775a.6.6,0,0,0,.146.349.38.38,0,0,0,.288.121.277.277,0,0,0,.273-.218,4.634,4.634,0,0,0,.074-1.094Zm-7.2,0h1.384v2.479c0,.364.009.62.026.784a1.537,1.537,0,0,0,.095.4.573.573,0,0,0,.279.3,1.187,1.187,0,0,0,.964,0,.582.582,0,0,0,.277-.3,1.473,1.473,0,0,0,.1-.4c.017-.155.026-.42.026-.784v-2.479H344.9v2.688a5.422,5.422,0,0,1-.1,1.24,1.666,1.666,0,0,1-.339.68,1.594,1.594,0,0,1-.716.465,4.061,4.061,0,0,1-2.211,0,1.608,1.608,0,0,1-.717-.465,1.726,1.726,0,0,1-.339-.68,5.5,5.5,0,0,1-.1-1.24v-2.684Zm-4.67,3.947h.239a1.751,1.751,0,0,0,1.192-.336,1.705,1.705,0,0,0,0-2.134,1.746,1.746,0,0,0-1.192-.341h-.232Zm-1.37,1.139v-5.081h1.06a8.634,8.634,0,0,1,1.677.112,2.425,2.425,0,0,1,.863.37,2.2,2.2,0,0,1,.733.863,3.015,3.015,0,0,1,0,2.4,2.183,2.183,0,0,1-.733.863,2.443,2.443,0,0,1-.841.367,7.246,7.246,0,0,1-1.466.108h-1.292Zm-6.684,0v-5.081h1.337l1.921,2.616a3.584,3.584,0,0,1,.183.321c.084.155.177.353.277.576-.026-.212-.047-.4-.06-.564s-.019-.31-.019-.437v-2.512h1.331v5.081h-1.326l-1.92-2.626a2.976,2.976,0,0,1-.187-.321c-.084-.155-.175-.35-.274-.569q.039.321.06.567c.012.155.019.31.019.437v2.512Zm-3.142,0v-5.081H325.9v5.081Zm-6.362,0v-5.081h1.387v1.982h1.845v-1.982h1.395v5.081h-1.395v-2.065h-1.845v2.065Z" transform="translate(1002.382 8749.84)" fill="#002f85"/>
    <path id="Path_16114" data-name="Path 16114" d="M1087.323,237.438c0-.036-.022-.129-.039-.284-.017-.129-.029-.234-.042-.318a2.475,2.475,0,0,1-.078.3,2.7,2.7,0,0,1-.124.31l-1.151,2.343-1.151-2.392c-.048-.1-.09-.194-.125-.285a2.83,2.83,0,0,1-.09-.273,1.907,1.907,0,0,1-.023.288c-.014.1-.032.208-.059.319l-.465,2.169h-.659l1.04-4.587,1.3,2.777c.022.043.053.116.093.22l.155.378a4.834,4.834,0,0,1,.2-.482l.054-.119,1.267-2.774,1.064,4.587h-.665Zm-5.3-1.621v3.793h-.714v-3.793h-1.17v-.607h3.048v.607Z" transform="translate(358.453 9045)" fill="#002f85"/>
  </g>
</svg>
