<svg xmlns="http://www.w3.org/2000/svg" width="47.903" height="41.918" viewBox="0 0 47.903 41.918">
  <g id="house" transform="translate(-26.002 -26.001)">
    <path id="Exclusion_7" data-name="Exclusion 7" d="M-2203.036-105.081h-9.98a2,2,0,0,1-2-2v-15.969H-2219a2.007,2.007,0,0,1-1.861-1.276,2.008,2.008,0,0,1,.519-2.2l21.957-19.96a1.992,1.992,0,0,1,1.343-.519,1.992,1.992,0,0,1,1.343.519l21.956,19.96a2.008,2.008,0,0,1,.519,2.2,1.984,1.984,0,0,1-1.862,1.276h-3.991v15.969a2,2,0,0,1-2,2h-9.981v-13.973a2,2,0,0,0-2-2h-7.985a2,2,0,0,0-2,2v13.973Z" transform="translate(2247.001 173)" fill="#fff"/>
  </g>
</svg>
