<svg id="screen-5" class="individual" xmlns="http://www.w3.org/2000/svg" width="1920" height="1080"
			viewBox="0 0 1920 1080" preserveAspectRatio="xMidYMid meet"
			style="width: 100%; height: 100%; transform: translate3d(0px, 0px, 0px); transform-origin: 0px 0px 0px;">
				<g class="next">
					<g id="Group_2158" data-name="Group 218" transform="translate(115.768 -2276.571)">
						<g class="layer-1">
							<path id="Path_3585" data-name="Path 358"
								d="M710.489,482.383l-14.633,54.258H892.364l14.3-54.258Z"
								transform="translate(785.246 492.328)" fill="#750049" />
						</g>
						<g class="layer-2">
							<path id="Path_3559" data-name="Path 359"
								d="M710.322,482.383l-14.466,54.258H890.123l14.135-54.258Z"
								transform="translate(779 483.617)" fill="#c06" />
						</g>
						<g id="Group_2645" data-name="Group 264" transform="translate(1510.089 974.453)">
							<text id="NEXT" transform="translate(0.911 28.547)" fill="#fffefc" font-size="28"
								font-family="Raleway-BoldItalic, Raleway" font-weight="700" font-style="italic">
								<tspan x="0" y="0">NEXT</tspan>
							</text>
							<g id="Group_2655" data-name="Group 265" transform="translate(-25 -2.036)">
								<g class="one">
									<path id="Path_535" data-name="Path 3"
										d="M1003.26,514.435l10.131,10.132L1003.26,534.7l2.647,2.647,12.778-12.778-12.778-12.778Z"
										transform="translate(-885.543 -504.205)" fill="#fffefc" />
								</g>
								<g class="two">
									<path id="Path_455" data-name="Path 4"
										d="M1003.26,514.435l10.131,10.132L1003.26,534.7l2.647,2.647,12.778-12.778-12.778-12.778Z"
										transform="translate(-870.944 -504.205)" fill="#fffefc" />
								</g>
								<g class="three">
									<path id="Path_3560" data-name="Path 360"
										d="M1003.26,514.435l10.131,10.132L1003.26,534.7l2.647,2.647,12.778-12.778-12.778-12.778Z"
										transform="translate(-854.944 -504.205)" fill="#fffefc" />
								</g>
							</g>
						</g>
					</g>
				</g>
</svg>
