<svg xmlns="http://www.w3.org/2000/svg" width="1920" height="1080" viewBox="0 0 1920 1080">
  <g id="loader-bigbg" transform="translate(253.091 6.537)">
    <rect id="Rectangle_2897" data-name="Rectangle 2897" width="1920" height="1080" transform="translate(-253.091 -6.537)" fill="#fff"/>
    <g id="Background_Complete" data-name="Background Complete" transform="translate(55.749 93.651)">
      <g id="Group_4869" data-name="Group 4869" transform="translate(1251.122 542.587)">
        <g id="Group_4847" data-name="Group 4847">
          <g id="Group_4846" data-name="Group 4846">
            <path id="Path_12667" data-name="Path 12667" d="M759.083,337.136s-14.041-6.07-24,26.7S722.4,414.978,722.4,414.978s-2.927,7.016-7.985,3.671-13.058-13.963-20.036-10.553c-7.234,3.537-8.229,12.492-4.55,24.736s10.758,39.363,11.389,41.816c.618,2.41-.138,6.258-3.949,4.532s-27.216-20-35.223-8.375,7.85,44.048,9.517,47.626,1.215,5.312-.4,6.559-8.907-5.637-15.777-10.562-15.7-9.431-19.756-2.337S634.489,545.112,666.3,582.4l15.872,16.316,22.25-5.25c46.935-14.136,63.42-34.357,63.849-42.519s-9.433-9.151-17.875-8.729-18.3,2.264-18.982.338-.123-3.625,3.214-5.732,34.221-20.783,33.781-34.893-30.01-11.413-34.148-12.024-2.693-4.257-.868-5.948c1.859-1.721,22.491-20.693,32.213-28.995s13.733-16.369,9.564-23.26c-4.02-6.646-16.494-2.049-22.558-1.973s-4.724-7.41-4.724-7.41,7.656-16.908,17.02-49.858-6.118-35.436-6.118-35.436" transform="translate(-634.199 -336.692)" fill="#ebebeb"/>
          </g>
        </g>
        <g id="Group_4850" data-name="Group 4850" transform="translate(37.292 29.779)">
          <g id="Group_4849" data-name="Group 4849">
            <g id="Group_4848" data-name="Group 4848">
              <path id="Path_12668" data-name="Path 12668" d="M730.131,350.516s-.041.241-.157.7c-.131.491-.31,1.168-.541,2.036-.5,1.82-1.221,4.446-2.148,7.811-1.874,6.781-4.659,16.574-8.147,28.659-6.967,24.174-16.876,57.486-27.942,94.237s-21.063,70.051-28.166,94.182c-3.533,12.044-6.394,21.8-8.384,28.585-.987,3.348-1.756,5.958-2.288,7.77q-.394,1.289-.614,2.014c-.144.455-.235.681-.235.681s.041-.241.157-.7c.129-.489.31-1.165.539-2.036.5-1.82,1.224-4.446,2.15-7.809,1.874-6.781,4.657-16.572,8.145-28.659,6.969-24.174,16.878-57.488,27.948-94.25s21.059-70.036,28.159-94.169c3.533-12.044,6.4-21.8,8.384-28.586.986-3.348,1.756-5.961,2.29-7.772.263-.859.465-1.529.614-2.014C730.038,350.742,730.131,350.516,730.131,350.516Z" transform="translate(-651.511 -350.516)" fill="#e0e0e0"/>
            </g>
          </g>
        </g>
        <g id="Group_4853" data-name="Group 4853" transform="translate(70.771 86.708)">
          <g id="Group_4852" data-name="Group 4852">
            <g id="Group_4851" data-name="Group 4851">
              <path id="Path_12669" data-name="Path 12669" d="M667.06,376.944a6.6,6.6,0,0,1,.849,1.413c.506.931,1.193,2.3,2.027,4,1.659,3.4,3.826,8.156,6.118,13.448,2.232,5.213,4.248,9.926,5.807,13.571q1.047,2.414,1.777,4.1a6.493,6.493,0,0,1,.586,1.54,6.743,6.743,0,0,1-.857-1.409c-.5-.931-1.191-2.3-2.008-4.007-1.626-3.416-3.731-8.2-6.021-13.489-2.268-5.194-4.317-9.892-5.9-13.526q-1.057-2.41-1.8-4.1A6.821,6.821,0,0,1,667.06,376.944Z" transform="translate(-667.053 -376.944)" fill="#e0e0e0"/>
            </g>
          </g>
        </g>
        <g id="Group_4856" data-name="Group 4856" transform="translate(90.072 103.591)">
          <g id="Group_4855" data-name="Group 4855">
            <g id="Group_4854" data-name="Group 4854">
              <path id="Path_12670" data-name="Path 12670" d="M676.013,406c-.095-.192,9.508-5.1,21.445-10.956s21.7-10.452,21.793-10.258-9.506,5.1-21.449,10.958S676.108,406.2,676.013,406Z" transform="translate(-676.013 -384.781)" fill="#e0e0e0"/>
            </g>
          </g>
        </g>
        <g id="Group_4859" data-name="Group 4859" transform="translate(70.53 171.441)">
          <g id="Group_4858" data-name="Group 4858">
            <g id="Group_4857" data-name="Group 4857">
              <path id="Path_12671" data-name="Path 12671" d="M666.941,425.331a6.955,6.955,0,0,1,1.637-.386q1.842-.323,4.5-.795c3.8-.674,9.034-1.624,14.777-2.88,5.747-1.241,10.911-2.542,14.642-3.509l4.422-1.14a7,7,0,0,1,1.65-.332,7.04,7.04,0,0,1-1.564.623c-1.021.351-2.51.829-4.36,1.379-3.7,1.107-8.86,2.5-14.625,3.742s-11.034,2.126-14.857,2.663c-1.915.261-3.466.452-4.541.551A6.9,6.9,0,0,1,666.941,425.331Z" transform="translate(-666.941 -416.279)" fill="#e0e0e0"/>
            </g>
          </g>
        </g>
        <g id="Group_4862" data-name="Group 4862" transform="translate(45.489 149.868)">
          <g id="Group_4861" data-name="Group 4861">
            <g id="Group_4860" data-name="Group 4860">
              <path id="Path_12672" data-name="Path 12672" d="M655.32,406.266a6.009,6.009,0,0,1,1.112,1.09c.676.732,1.637,1.812,2.809,3.154,2.346,2.684,5.545,6.43,9.041,10.6s6.63,7.968,8.869,10.745c1.118,1.389,2.014,2.52,2.62,3.313a6.146,6.146,0,0,1,.879,1.284,5.874,5.874,0,0,1-1.112-1.088c-.676-.735-1.637-1.812-2.809-3.154-2.346-2.686-5.545-6.43-9.043-10.6s-6.628-7.968-8.866-10.745c-1.118-1.387-2.014-2.518-2.619-3.313A5.972,5.972,0,0,1,655.32,406.266Z" transform="translate(-655.316 -406.264)" fill="#e0e0e0"/>
            </g>
          </g>
        </g>
        <g id="Group_4865" data-name="Group 4865" transform="translate(21.992 196.833)">
          <g id="Group_4864" data-name="Group 4864">
            <g id="Group_4863" data-name="Group 4863">
              <path id="Path_12673" data-name="Path 12673" d="M644.411,428.068a9.94,9.94,0,0,1,1.407,1.409c.954,1.068,2.167,2.419,3.61,4.033,3.024,3.425,7.163,8.194,11.693,13.491s8.606,10.125,11.523,13.642c1.37,1.676,2.516,3.083,3.423,4.192a9.72,9.72,0,0,1,1.174,1.6,9.581,9.581,0,0,1-1.4-1.409L672.224,461c-3.022-3.425-7.16-8.194-11.695-13.494s-8.6-10.122-11.518-13.64l-3.425-4.192A9.658,9.658,0,0,1,644.411,428.068Z" transform="translate(-644.409 -428.066)" fill="#e0e0e0"/>
            </g>
          </g>
        </g>
        <g id="Group_4868" data-name="Group 4868" transform="translate(54.299 221.155)">
          <g id="Group_4867" data-name="Group 4867">
            <g id="Group_4866" data-name="Group 4866">
              <path id="Path_12674" data-name="Path 12674" d="M659.406,452.271a11.12,11.12,0,0,1,2.061-.536l5.668-1.213c4.784-1.025,11.385-2.462,18.629-4.25s13.769-3.557,18.48-4.873c2.247-.625,4.123-1.144,5.583-1.551a11.113,11.113,0,0,1,2.075-.482,11.162,11.162,0,0,1-1.986.773c-1.292.448-3.177,1.066-5.517,1.79-4.677,1.452-11.187,3.317-18.448,5.1s-13.892,3.147-18.709,4.035c-2.411.44-4.364.771-5.719.972A11.329,11.329,0,0,1,659.406,452.271Z" transform="translate(-659.406 -439.357)" fill="#e0e0e0"/>
            </g>
          </g>
        </g>
      </g>
      <g id="Group_4900" data-name="Group 4900" transform="translate(441.613 628.933)">
        <g id="Group_4899" data-name="Group 4899">
          <g id="Group_4871" data-name="Group 4871">
            <g id="Group_4870" data-name="Group 4870">
              <rect id="Rectangle_2885" data-name="Rectangle 2885" width="280.262" height="129.253" fill="#f5f5f5"/>
            </g>
          </g>
          <g id="Group_4873" data-name="Group 4873" transform="translate(6.416 6.801)">
            <g id="Group_4872" data-name="Group 4872">
              <path id="Path_12675" data-name="Path 12675" d="M528.562,496.294H261.387V379.933H528.562ZM263.13,494.551H526.819V381.676H263.13Z" transform="translate(-261.387 -379.933)" fill="#e0e0e0"/>
            </g>
          </g>
          <g id="Group_4875" data-name="Group 4875" transform="translate(280.262)">
            <g id="Group_4874" data-name="Group 4874">
              <rect id="Rectangle_2886" data-name="Rectangle 2886" width="68.467" height="129.253" fill="#e0e0e0"/>
            </g>
          </g>
          <g id="Group_4878" data-name="Group 4878" transform="translate(6.946 42.108)">
            <g id="Group_4877" data-name="Group 4877">
              <g id="Group_4876" data-name="Group 4876">
                <path id="Path_12676" data-name="Path 12676" d="M261.973,397.027H527.4a.352.352,0,0,0,0-.7H261.973a.352.352,0,0,0,0,.7Z" transform="translate(-261.633 -396.323)" fill="#e0e0e0"/>
              </g>
            </g>
          </g>
          <g id="Group_4881" data-name="Group 4881" transform="translate(139.76 7.005)">
            <g id="Group_4880" data-name="Group 4880">
              <g id="Group_4879" data-name="Group 4879">
                <path id="Path_12677" data-name="Path 12677" d="M324.4,415.483a290.18,290.18,0,0,0,.09-35.11.358.358,0,0,0-.715,0,290.605,290.605,0,0,0,.093,35.11.266.266,0,0,0,.532,0Z" transform="translate(-323.288 -380.028)" fill="#e0e0e0"/>
              </g>
            </g>
          </g>
          <g id="Group_4883" data-name="Group 4883" transform="translate(205.082 21.29)">
            <g id="Group_4882" data-name="Group 4882">
              <path id="Path_12678" data-name="Path 12678" d="M360.846,390.274a3.617,3.617,0,1,1-3.617-3.615A3.618,3.618,0,0,1,360.846,390.274Z" transform="translate(-353.612 -386.659)" fill="#e0e0e0"/>
            </g>
          </g>
          <g id="Group_4885" data-name="Group 4885" transform="translate(65.784 21.29)">
            <g id="Group_4884" data-name="Group 4884">
              <path id="Path_12679" data-name="Path 12679" d="M296.178,390.274a3.616,3.616,0,1,1-3.617-3.615A3.618,3.618,0,0,1,296.178,390.274Z" transform="translate(-288.947 -386.659)" fill="#e0e0e0"/>
            </g>
          </g>
          <g id="Group_4887" data-name="Group 4887" transform="translate(136.386 61.366)">
            <g id="Group_4886" data-name="Group 4886">
              <path id="Path_12680" data-name="Path 12680" d="M328.956,408.878a3.617,3.617,0,1,1-3.617-3.615A3.616,3.616,0,0,1,328.956,408.878Z" transform="translate(-321.722 -405.263)" fill="#e0e0e0"/>
            </g>
          </g>
          <g id="Group_4889" data-name="Group 4889" transform="translate(19.079 129.253)">
            <g id="Group_4888" data-name="Group 4888">
              <path id="Path_12681" data-name="Path 12681" d="M281.695,436.778l-14.429,81.148h8.116l26.6-81.148Z" transform="translate(-267.266 -436.778)" fill="#e0e0e0"/>
            </g>
          </g>
          <g id="Group_4891" data-name="Group 4891" transform="translate(240.142 129.253)">
            <g id="Group_4890" data-name="Group 4890">
              <path id="Path_12682" data-name="Path 12682" d="M390.179,436.778l12.067,81.289h-8.117l-24.241-81.289Z" transform="translate(-369.888 -436.778)" fill="#e0e0e0"/>
            </g>
          </g>
          <g id="Group_4893" data-name="Group 4893" transform="translate(294.321 129.253)">
            <g id="Group_4892" data-name="Group 4892">
              <path id="Path_12683" data-name="Path 12683" d="M415.33,436.778,429,518.066h-8.116l-25.846-81.289Z" transform="translate(-395.039 -436.778)" fill="#e0e0e0"/>
            </g>
          </g>
          <g id="Group_4895" data-name="Group 4895" transform="translate(136.145 97.945)">
            <g id="Group_4894" data-name="Group 4894">
              <path id="Path_12684" data-name="Path 12684" d="M328.841,425.861a3.616,3.616,0,1,1-3.617-3.617A3.616,3.616,0,0,1,328.841,425.861Z" transform="translate(-321.61 -422.244)" fill="#e0e0e0"/>
            </g>
          </g>
          <g id="Group_4898" data-name="Group 4898" transform="translate(6.946 82.134)">
            <g id="Group_4897" data-name="Group 4897">
              <g id="Group_4896" data-name="Group 4896">
                <path id="Path_12685" data-name="Path 12685" d="M261.973,415.606H527.4a.351.351,0,0,0,0-.7H261.973a.351.351,0,0,0,0,.7Z" transform="translate(-261.633 -414.904)" fill="#e0e0e0"/>
              </g>
            </g>
          </g>
        </g>
      </g>
      <g id="Group_4904" data-name="Group 4904" transform="translate(1135.206)">
        <g id="Group_4901" data-name="Group 4901">
          <rect id="Rectangle_2887" data-name="Rectangle 2887" width="177.192" height="237.654" fill="#ebebeb"/>
        </g>
        <g id="Group_4902" data-name="Group 4902" transform="translate(9.223 9.34)">
          <rect id="Rectangle_2888" data-name="Rectangle 2888" width="158.745" height="218.974" fill="#fafafa"/>
        </g>
        <g id="Group_4903" data-name="Group 4903" transform="translate(60.666 85.085)">
          <rect id="Rectangle_2889" data-name="Rectangle 2889" width="60.605" height="69.251" fill="#ebebeb"/>
        </g>
      </g>
      <g id="Group_4908" data-name="Group 4908" transform="translate(1235.23 293.996)">
        <g id="Group_4905" data-name="Group 4905">
          <rect id="Rectangle_2890" data-name="Rectangle 2890" width="115.071" height="154.336" transform="translate(0 115.071) rotate(-90)" fill="#ebebeb"/>
        </g>
        <g id="Group_4906" data-name="Group 4906" transform="translate(6.065 5.99)">
          <rect id="Rectangle_2891" data-name="Rectangle 2891" width="142.205" height="103.091" fill="#fafafa"/>
        </g>
        <g id="Group_4907" data-name="Group 4907" transform="translate(55.255 36.316)">
          <rect id="Rectangle_2892" data-name="Rectangle 2892" width="39.357" height="44.972" transform="translate(0 39.357) rotate(-90)" fill="#ebebeb"/>
        </g>
      </g>
      <g id="Group_4912" data-name="Group 4912" transform="translate(0 91.775)">
        <g id="Group_4909" data-name="Group 4909">
          <rect id="Rectangle_2893" data-name="Rectangle 2893" width="112.427" height="150.79" fill="#ebebeb"/>
        </g>
        <g id="Group_4910" data-name="Group 4910" transform="translate(5.852 5.926)">
          <rect id="Rectangle_2894" data-name="Rectangle 2894" width="100.723" height="138.937" fill="#fafafa"/>
        </g>
        <g id="Group_4911" data-name="Group 4911" transform="translate(38.492 53.986)">
          <rect id="Rectangle_2895" data-name="Rectangle 2895" width="38.453" height="43.939" fill="#ebebeb"/>
        </g>
      </g>
      <g id="Group_4924" data-name="Group 4924" transform="translate(618.104 555.487)">
        <g id="Group_4922" data-name="Group 4922">
          <g id="Group_4915" data-name="Group 4915">
            <g id="Group_4914" data-name="Group 4914">
              <g id="Group_4913" data-name="Group 4913">
                <path id="Path_12686" data-name="Path 12686" d="M348,342.681l-7.663,71.113h98.183l8.142-71.113Z" transform="translate(-340.339 -342.681)" fill="#ebebeb"/>
              </g>
            </g>
          </g>
          <g id="Group_4918" data-name="Group 4918" transform="translate(4.245 5.108)">
            <g id="Group_4917" data-name="Group 4917">
              <g id="Group_4916" data-name="Group 4916">
                <path id="Path_12687" data-name="Path 12687" d="M349.764,345.052l-7.455,62.227h88.609l7.17-62.227Z" transform="translate(-342.31 -345.052)" fill="#fafafa"/>
              </g>
            </g>
          </g>
          <g id="Group_4921" data-name="Group 4921" transform="translate(22.024 15.575)">
            <g id="Group_4920" data-name="Group 4920">
              <g id="Group_4919" data-name="Group 4919">
                <path id="Path_12688" data-name="Path 12688" d="M355.151,349.911,350.563,391.2h55.919l2.869-41.294Z" transform="translate(-350.563 -349.911)" fill="#e0e0e0"/>
              </g>
            </g>
          </g>
        </g>
        <g id="Group_4923" data-name="Group 4923" transform="translate(98.183 27.964)">
          <path id="Path_12689" data-name="Path 12689" d="M390.554,358.324l20.28,40.772-24.916-.285,4.94-43.149" transform="translate(-385.918 -355.662)" fill="#f5f5f5"/>
        </g>
      </g>
    </g>
    <g id="Floor" transform="translate(51.37 932.018)">
      <g id="Group_4926" data-name="Group 4926" transform="translate(0 0)">
        <g id="Group_4925" data-name="Group 4925">
          <path id="Path_12690" data-name="Path 12690" d="M1406.889,474.561c0,.308-303.468.56-677.727.56-374.389,0-677.792-.252-677.792-.56S354.773,474,729.162,474C1103.422,474,1406.889,474.251,1406.889,474.561Z" transform="translate(-51.37 -473.999)" fill="#263238"/>
        </g>
      </g>
    </g>
    <g id="Plants" transform="translate(101.352 492.813)">
      <g id="Group_5076" data-name="Group 5076">
        <g id="Group_5064" data-name="Group 5064">
          <g id="Group_4950" data-name="Group 4950" transform="translate(27.51)">
            <g id="Group_4949" data-name="Group 4949">
              <g id="Group_4948" data-name="Group 4948">
                <g id="Group_4947" data-name="Group 4947">
                  <path id="Path_12708" data-name="Path 12708" d="M125.372,650.9a5.889,5.889,0,0,1,.4-.952c.315-.672.739-1.575,1.277-2.723a68.746,68.746,0,0,0,3.753-10.9c2.482-9.689,3.348-24.5-.321-42.09a225.829,225.829,0,0,0-7.807-28.271c-3.3-10.034-7.141-20.68-10.277-32.189-3.1-11.479-5.545-23.943-5.073-37.008.476-13.091,4.349-26.158,8.612-39.162,4.252-13.028,8.653-25.761,9.969-38.57a58.775,58.775,0,0,0-7.07-35.619c-5.642-10.394-12.74-19.284-18.052-28.493A98.982,98.982,0,0,1,89.932,327.53a101.966,101.966,0,0,1-.687-42.435,79.1,79.1,0,0,1,4.427-14.984,5.77,5.77,0,0,1-.263,1l-.9,2.874A109.3,109.3,0,0,0,89.762,285.2a103.306,103.306,0,0,0,1.1,42.114,98.728,98.728,0,0,0,10.885,27.043c5.3,9.1,12.429,17.951,18.181,28.465a59.973,59.973,0,0,1,7.292,36.345c-1.327,13.024-5.758,25.843-10,38.854-4.261,13-8.091,25.925-8.576,38.8s1.9,25.206,4.955,36.631c3.083,11.454,6.874,22.1,10.137,32.164a223.038,223.038,0,0,1,7.68,28.439c3.574,17.722,2.555,32.681-.108,42.4a62.826,62.826,0,0,1-4.015,10.883c-.59,1.129-1.056,2.012-1.4,2.673A5.623,5.623,0,0,1,125.372,650.9Z" transform="translate(-87.343 -270.111)" fill="#263238"/>
                </g>
              </g>
            </g>
          </g>
          <g id="Group_4958" data-name="Group 4958" transform="translate(45.163 38.827)">
            <g id="Group_4953" data-name="Group 4953">
              <g id="Group_4952" data-name="Group 4952">
                <g id="Group_4951" data-name="Group 4951">
                  <path id="Path_12709" data-name="Path 12709" d="M98.536,343.2s-10.786-34.49,8.563-54.685a1.2,1.2,0,0,1,2.051.592C110.183,294.8,111.474,312.151,98.536,343.2Z" transform="translate(-95.539 -288.135)" fill="#e8505b"/>
                </g>
              </g>
            </g>
            <g id="Group_4957" data-name="Group 4957" transform="translate(2.608 11.871)">
              <g id="Group_4956" data-name="Group 4956">
                <g id="Group_4955" data-name="Group 4955">
                  <g id="Group_4954" data-name="Group 4954">
                    <path id="Path_12710" data-name="Path 12710" d="M103.6,293.646c.183.037-.125,2.462-.726,6.363-.709,4.384-1.54,9.528-2.46,15.213-.9,5.685-1.719,10.831-2.415,15.213-.592,3.895-.946,6.31-1.142,6.294-.177-.013-.157-2.466.192-6.411S98.1,320.956,99.079,315s2.012-11.309,2.856-15.169S103.418,293.61,103.6,293.646Z" transform="translate(-96.749 -293.646)" fill="#263238"/>
                  </g>
                </g>
              </g>
            </g>
          </g>
          <g id="Group_4966" data-name="Group 4966" transform="translate(60.62 130.841)">
            <g id="Group_4961" data-name="Group 4961" transform="translate(0.211)">
              <g id="Group_4960" data-name="Group 4960">
                <g id="Group_4959" data-name="Group 4959">
                  <path id="Path_12711" data-name="Path 12711" d="M102.812,375.249s6.6-35.531,33.144-44.335a1.2,1.2,0,0,1,1.534,1.484C135.74,337.915,128.767,353.854,102.812,375.249Z" transform="translate(-102.812 -330.85)" fill="#e8505b"/>
                </g>
              </g>
            </g>
            <g id="Group_4965" data-name="Group 4965" transform="translate(0 9.235)">
              <g id="Group_4964" data-name="Group 4964">
                <g id="Group_4963" data-name="Group 4963">
                  <g id="Group_4962" data-name="Group 4962">
                    <path id="Path_12712" data-name="Path 12712" d="M128.837,335.143c.144.118-1.262,2.117-3.619,5.286l-9.289,12.294c-3.457,4.6-6.585,8.77-9.248,12.317-2.346,3.167-3.787,5.138-3.955,5.03-.149-.093,1.017-2.253,3.169-5.575s5.308-7.785,8.957-12.587,7.066-9.056,9.618-12.074S128.693,335.027,128.837,335.143Z" transform="translate(-102.714 -335.138)" fill="#263238"/>
                  </g>
                </g>
              </g>
            </g>
          </g>
          <g id="Group_4974" data-name="Group 4974" transform="translate(53.369 212.101)">
            <g id="Group_4969" data-name="Group 4969" transform="translate(0.019)">
              <g id="Group_4968" data-name="Group 4968">
                <g id="Group_4967" data-name="Group 4967">
                  <path id="Path_12713" data-name="Path 12713" d="M99.627,420.848S95.62,384.932,118.465,368.8a1.2,1.2,0,0,1,1.9.974C120.292,375.559,118.249,392.838,99.627,420.848Z" transform="translate(-99.357 -368.573)" fill="#e8505b"/>
                </g>
              </g>
            </g>
            <g id="Group_4973" data-name="Group 4973" transform="translate(0 11.106)">
              <g id="Group_4972" data-name="Group 4972">
                <g id="Group_4971" data-name="Group 4971">
                  <g id="Group_4970" data-name="Group 4970">
                    <path id="Path_12714" data-name="Path 12714" d="M114.22,373.73c.172.071-.592,2.393-1.926,6.107-1.534,4.168-3.332,9.06-5.319,14.465-1.971,5.409-3.755,10.3-5.273,14.472-1.323,3.712-2.13,6.014-2.322,5.963-.168-.047.317-2.454,1.413-6.258s2.82-8.989,4.914-14.646,4.132-10.717,5.7-14.344S114.048,373.659,114.22,373.73Z" transform="translate(-99.348 -373.728)" fill="#263238"/>
                  </g>
                </g>
              </g>
            </g>
          </g>
          <g id="Group_4982" data-name="Group 4982" transform="translate(73.377 302.491)">
            <g id="Group_4977" data-name="Group 4977" transform="translate(0.181)">
              <g id="Group_4976" data-name="Group 4976">
                <g id="Group_4975" data-name="Group 4975">
                  <path id="Path_12715" data-name="Path 12715" d="M108.817,462.077s-2.719-36.037,20.688-51.34a1.2,1.2,0,0,1,1.865,1.038C131.091,417.557,128.43,434.749,108.817,462.077Z" transform="translate(-108.72 -410.534)" fill="#e8505b"/>
                </g>
              </g>
            </g>
            <g id="Group_4981" data-name="Group 4981" transform="translate(0 10.922)">
              <g id="Group_4980" data-name="Group 4980">
                <g id="Group_4979" data-name="Group 4979">
                  <g id="Group_4978" data-name="Group 4978">
                    <path id="Path_12716" data-name="Path 12716" d="M124.962,415.606c.17.075-.679,2.37-2.146,6.034-1.68,4.11-3.651,8.935-5.831,14.265L111.2,450.178c-1.454,3.662-2.344,5.935-2.533,5.874-.166-.052.4-2.439,1.637-6.2s3.136-8.884,5.435-14.461,4.513-10.564,6.206-14.133S124.792,415.528,124.962,415.606Z" transform="translate(-108.636 -415.604)" fill="#263238"/>
                  </g>
                </g>
              </g>
            </g>
          </g>
          <g id="Group_4990" data-name="Group 4990" transform="translate(0 17.653)">
            <g id="Group_4985" data-name="Group 4985">
              <g id="Group_4984" data-name="Group 4984">
                <g id="Group_4983" data-name="Group 4983">
                  <path id="Path_12717" data-name="Path 12717" d="M107.234,324.241S75.2,307.512,74.573,279.551a1.2,1.2,0,0,1,1.868-1.032C81.2,281.811,94.393,293.153,107.234,324.241Z" transform="translate(-74.573 -278.306)" fill="#e8505b"/>
                </g>
              </g>
            </g>
            <g id="Group_4989" data-name="Group 4989" transform="translate(6.637 10.847)">
              <g id="Group_4988" data-name="Group 4988">
                <g id="Group_4987" data-name="Group 4987">
                  <g id="Group_4986" data-name="Group 4986">
                    <path id="Path_12718" data-name="Path 12718" d="M77.667,283.345c.155-.1,1.657,1.829,3.992,5.008,2.6,3.6,5.657,7.822,9.03,12.488s6.452,8.866,9.063,12.455c2.339,3.169,3.8,5.127,3.649,5.254-.131.114-1.857-1.631-4.4-4.664s-5.885-7.359-9.407-12.255-6.585-9.411-8.72-12.735S77.512,283.449,77.667,283.345Z" transform="translate(-77.654 -283.341)" fill="#263238"/>
                  </g>
                </g>
              </g>
            </g>
          </g>
          <g id="Group_4998" data-name="Group 4998" transform="translate(31.739 93.719)">
            <g id="Group_4993" data-name="Group 4993">
              <g id="Group_4992" data-name="Group 4992">
                <g id="Group_4991" data-name="Group 4991">
                  <path id="Path_12719" data-name="Path 12719" d="M124.624,357.559s-32.989-14.754-35.313-42.624a1.2,1.2,0,0,1,1.8-1.144C96.065,316.788,109.92,327.306,124.624,357.559Z" transform="translate(-89.307 -313.617)" fill="#e8505b"/>
                </g>
              </g>
            </g>
            <g id="Group_4997" data-name="Group 4997" transform="translate(7.214 10.496)">
              <g id="Group_4996" data-name="Group 4996">
                <g id="Group_4995" data-name="Group 4995">
                  <g id="Group_4994" data-name="Group 4994">
                    <path id="Path_12720" data-name="Path 12720" d="M92.667,318.495c.149-.112,1.764,1.725,4.289,4.758,2.815,3.432,6.12,7.462,9.771,11.915s6.979,8.459,9.8,11.882c2.529,3.022,4.106,4.886,3.961,5.023-.125.123-1.952-1.516-4.675-4.39s-6.322-6.986-10.135-11.658-7.143-9-9.478-12.184S92.52,318.609,92.667,318.495Z" transform="translate(-92.656 -318.49)" fill="#263238"/>
                  </g>
                </g>
              </g>
            </g>
          </g>
          <g id="Group_5006" data-name="Group 5006" transform="translate(33.214 165.496)">
            <g id="Group_5001" data-name="Group 5001">
              <g id="Group_5000" data-name="Group 5000">
                <g id="Group_4999" data-name="Group 4999">
                  <path id="Path_12721" data-name="Path 12721" d="M104.854,401.727S82.2,373.568,92.827,347.7a1.2,1.2,0,0,1,2.124-.2C98,352.421,105.541,368.1,104.854,401.727Z" transform="translate(-89.992 -346.938)" fill="#e8505b"/>
                </g>
              </g>
            </g>
            <g id="Group_5005" data-name="Group 5005" transform="translate(5.026 12.223)">
              <g id="Group_5004" data-name="Group 5004">
                <g id="Group_5003" data-name="Group 5003">
                  <g id="Group_5002" data-name="Group 5002">
                    <path id="Path_12722" data-name="Path 12722" d="M92.381,352.612c.183-.032.784,2.337,1.65,6.189.944,4.338,2.051,9.431,3.272,15.057,1.239,5.622,2.361,10.708,3.315,15.042.875,3.843,1.428,6.219,1.239,6.277-.168.052-1.047-2.24-2.163-6.038s-2.445-9.1-3.712-15-2.264-11.262-2.891-15.163S92.2,352.645,92.381,352.612Z" transform="translate(-92.325 -352.612)" fill="#263238"/>
                  </g>
                </g>
              </g>
            </g>
          </g>
          <g id="Group_5014" data-name="Group 5014" transform="translate(35.916 273.006)">
            <g id="Group_5009" data-name="Group 5009">
              <g id="Group_5008" data-name="Group 5008">
                <g id="Group_5007" data-name="Group 5007">
                  <path id="Path_12723" data-name="Path 12723" d="M125.842,441.355s-32.737-15.305-34.593-43.21a1.2,1.2,0,0,1,1.82-1.114C97.969,400.109,111.648,410.861,125.842,441.355Z" transform="translate(-91.246 -396.846)" fill="#e8505b"/>
                </g>
              </g>
            </g>
            <g id="Group_5013" data-name="Group 5013" transform="translate(7.059 10.595)">
              <g id="Group_5012" data-name="Group 5012">
                <g id="Group_5011" data-name="Group 5011">
                  <g id="Group_5010" data-name="Group 5010">
                    <path id="Path_12724" data-name="Path 12724" d="M94.534,401.769c.151-.11,1.732,1.756,4.207,4.83,2.757,3.481,5.995,7.565,9.571,12.078s6.835,8.574,9.6,12.044c2.477,3.065,4.02,4.955,3.875,5.09-.127.121-1.926-1.549-4.6-4.468s-6.2-7.091-9.937-11.828-6.992-9.114-9.271-12.341S94.383,401.881,94.534,401.769Z" transform="translate(-94.523 -401.765)" fill="#263238"/>
                  </g>
                </g>
              </g>
            </g>
          </g>
          <g id="Group_5063" data-name="Group 5063" transform="translate(62.498 167.214)">
            <g id="Group_5018" data-name="Group 5018" transform="translate(10.71 8.217)">
              <g id="Group_5017" data-name="Group 5017">
                <g id="Group_5016" data-name="Group 5016">
                  <g id="Group_5015" data-name="Group 5015">
                    <path id="Path_12725" data-name="Path 12725" d="M171.07,351.55a2.761,2.761,0,0,1,.041.8c-.015.629-.034,1.387-.058,2.309-.095,2.171-.224,5.105-.388,8.763-.422,7.7-1.01,18.444-1.713,31.293l0,.03-.009.043c-2.337,13.078-9,27.571-17.942,41.642-6.562,10.368-13.44,19.792-19.372,28.558A202.345,202.345,0,0,0,117.1,488.993a101.754,101.754,0,0,0-6.794,17.619c-.577,2.161-1.008,3.843-1.258,5a9.247,9.247,0,0,1-.478,1.741,8.9,8.9,0,0,1,.211-1.794c.164-1.172.515-2.88,1.015-5.073a93.018,93.018,0,0,1,6.445-17.9,191.53,191.53,0,0,1,14.351-24.288c5.894-8.828,12.735-18.267,19.262-28.581,8.9-14,15.523-28.275,17.948-41.142l-.011.073c.9-12.837,1.657-23.566,2.2-31.263.3-3.649.532-6.574.709-8.742.09-.918.168-1.674.23-2.3A2.765,2.765,0,0,1,171.07,351.55Z" transform="translate(-108.558 -351.55)" fill="#263238"/>
                  </g>
                </g>
              </g>
            </g>
            <g id="Group_5029" data-name="Group 5029" transform="translate(46.47 34.709)">
              <g id="Group_5021" data-name="Group 5021">
                <g id="Group_5020" data-name="Group 5020">
                  <g id="Group_5019" data-name="Group 5019">
                    <path id="Path_12726" data-name="Path 12726" d="M132.418,419.546s13.864-33.372-3.576-55.237a1.2,1.2,0,0,0-2.1.4C125.2,370.293,122.345,387.453,132.418,419.546Z" transform="translate(-125.158 -363.848)" fill="#e8505b"/>
                  </g>
                </g>
              </g>
              <g id="Group_5025" data-name="Group 5025" transform="translate(4.635 12.098)">
                <g id="Group_5024" data-name="Group 5024">
                  <g id="Group_5023" data-name="Group 5023">
                    <g id="Group_5022" data-name="Group 5022">
                      <path id="Path_12727" data-name="Path 12727" d="M127.409,369.464c.185-.021.61,2.391,1.1,6.314s1.04,9.351,1.469,15.366.635,11.477.635,15.434-.213,6.4-.388,6.4c-.2,0-.332-2.439-.569-6.372-.3-4.429-.642-9.625-1.028-15.37-.4-5.743-.763-10.943-1.073-15.372C127.31,371.926,127.224,369.483,127.409,369.464Z" transform="translate(-127.31 -369.464)" fill="#263238"/>
                    </g>
                  </g>
                </g>
              </g>
              <g id="Group_5028" data-name="Group 5028" opacity="0.3">
                <g id="Group_5027" data-name="Group 5027">
                  <g id="Group_5026" data-name="Group 5026">
                    <path id="Path_12728" data-name="Path 12728" d="M132.418,419.546s13.864-33.372-3.576-55.237a1.2,1.2,0,0,0-2.1.4C125.2,370.293,122.345,387.453,132.418,419.546Z" transform="translate(-125.158 -363.848)"/>
                  </g>
                </g>
              </g>
            </g>
            <g id="Group_5040" data-name="Group 5040" transform="translate(0 115.676)">
              <g id="Group_5032" data-name="Group 5032">
                <g id="Group_5031" data-name="Group 5031">
                  <g id="Group_5030" data-name="Group 5030">
                    <path id="Path_12729" data-name="Path 12729" d="M114.372,456.586s11.111-34.387-8.044-54.765a1.2,1.2,0,0,0-2.055.573C103.186,408.081,101.73,425.416,114.372,456.586Z" transform="translate(-103.586 -401.434)" fill="#e8505b"/>
                  </g>
                </g>
              </g>
              <g id="Group_5036" data-name="Group 5036" transform="translate(4.678 11.9)">
                <g id="Group_5035" data-name="Group 5035">
                  <g id="Group_5034" data-name="Group 5034">
                    <g id="Group_5033" data-name="Group 5033">
                      <path id="Path_12730" data-name="Path 12730" d="M105.812,406.959c.185-.037.8,2.335,1.609,6.2s1.794,9.235,2.71,15.2,1.564,11.389,1.885,15.333.306,6.4.131,6.411c-.2.015-.528-2.4-1.081-6.305-.655-4.388-1.422-9.541-2.27-15.234-.866-5.693-1.65-10.846-2.316-15.236C105.916,409.421,105.629,406.994,105.812,406.959Z" transform="translate(-105.757 -406.959)" fill="#263238"/>
                    </g>
                  </g>
                </g>
              </g>
              <g id="Group_5039" data-name="Group 5039" opacity="0.3">
                <g id="Group_5038" data-name="Group 5038">
                  <g id="Group_5037" data-name="Group 5037">
                    <path id="Path_12731" data-name="Path 12731" d="M114.372,456.586s11.111-34.387-8.044-54.765a1.2,1.2,0,0,0-2.055.573C103.186,408.081,101.73,425.416,114.372,456.586Z" transform="translate(-103.586 -401.434)"/>
                  </g>
                </g>
              </g>
            </g>
            <g id="Group_5051" data-name="Group 5051" transform="translate(71.385)">
              <g id="Group_5043" data-name="Group 5043">
                <g id="Group_5042" data-name="Group 5042">
                  <g id="Group_5041" data-name="Group 5041">
                    <path id="Path_12732" data-name="Path 12732" d="M136.724,397.358s29.607-20.725,26.619-48.533a1.2,1.2,0,0,0-1.986-.782C157.061,351.92,145.444,364.871,136.724,397.358Z" transform="translate(-136.724 -347.735)" fill="#e8505b"/>
                  </g>
                </g>
              </g>
              <g id="Group_5046" data-name="Group 5046" opacity="0.3">
                <g id="Group_5045" data-name="Group 5045">
                  <g id="Group_5044" data-name="Group 5044">
                    <path id="Path_12733" data-name="Path 12733" d="M136.724,397.358s29.607-20.725,26.619-48.533a1.2,1.2,0,0,0-1.986-.782C157.061,351.92,145.444,364.871,136.724,397.358Z" transform="translate(-136.724 -347.735)"/>
                  </g>
                </g>
              </g>
              <g id="Group_5050" data-name="Group 5050" transform="translate(0.275 11.47)">
                <g id="Group_5049" data-name="Group 5049">
                  <g id="Group_5048" data-name="Group 5048">
                    <g id="Group_5047" data-name="Group 5047">
                      <path id="Path_12734" data-name="Path 12734" d="M157.84,353.062c.166.084-.769,2.346-2.46,5.917s-4.14,8.451-7.005,13.756-5.62,10.028-7.744,13.366-3.617,5.291-3.763,5.194c-.166-.108,1.03-2.236,2.94-5.683,2.126-3.895,4.621-8.466,7.378-13.519s5.228-9.646,7.343-13.55C156.435,355.089,157.672,352.98,157.84,353.062Z" transform="translate(-136.852 -353.06)" fill="#263238"/>
                    </g>
                  </g>
                </g>
              </g>
            </g>
            <g id="Group_5062" data-name="Group 5062" transform="translate(22.725 103.264)">
              <g id="Group_5054" data-name="Group 5054">
                <g id="Group_5053" data-name="Group 5053">
                  <g id="Group_5052" data-name="Group 5052">
                    <path id="Path_12735" data-name="Path 12735" d="M114.135,429.144s35.705-5.566,45.272-31.847a1.2,1.2,0,0,0-1.439-1.577C152.4,397.31,136.269,403.82,114.135,429.144Z" transform="translate(-114.135 -395.673)" fill="#e8505b"/>
                  </g>
                </g>
              </g>
              <g id="Group_5057" data-name="Group 5057" opacity="0.3">
                <g id="Group_5056" data-name="Group 5056">
                  <g id="Group_5055" data-name="Group 5055">
                    <path id="Path_12736" data-name="Path 12736" d="M114.135,429.144s35.705-5.566,45.272-31.847a1.2,1.2,0,0,0-1.439-1.577C152.4,397.31,136.269,403.82,114.135,429.144Z" transform="translate(-114.135 -395.673)"/>
                  </g>
                </g>
              </g>
              <g id="Group_5061" data-name="Group 5061" transform="translate(0.218 8.576)">
                <g id="Group_5060" data-name="Group 5060">
                  <g id="Group_5059" data-name="Group 5059">
                    <g id="Group_5058" data-name="Group 5058">
                      <path id="Path_12737" data-name="Path 12737" d="M149.908,399.665c.112.149-1.725,1.769-4.817,4.231s-7.438,5.762-12.345,9.265-9.463,6.527-12.841,8.589-5.577,3.156-5.665,3.005c-.1-.17,1.909-1.555,5.142-3.806l12.58-8.888,12.559-8.931C147.754,400.867,149.794,399.518,149.908,399.665Z" transform="translate(-114.236 -399.654)" fill="#263238"/>
                    </g>
                  </g>
                </g>
              </g>
            </g>
          </g>
        </g>
        <g id="Group_5067" data-name="Group 5067" transform="translate(40.743 369.663)">
          <g id="Group_5066" data-name="Group 5066">
            <g id="Group_5065" data-name="Group 5065">
              <path id="Path_12738" data-name="Path 12738" d="M103.9,441.716l-10.416,70.1H158.4l-8.415-70.1Z" transform="translate(-93.487 -441.716)" fill="#455a64"/>
            </g>
          </g>
        </g>
        <g id="Group_5071" data-name="Group 5071" transform="translate(47.482 390.711)">
          <g id="Group_5070" data-name="Group 5070">
            <g id="Group_5069" data-name="Group 5069">
              <g id="Group_5068" data-name="Group 5068">
                <path id="Path_12739" data-name="Path 12739" d="M148.965,452.161c0,.375-11.721.676-26.173.676s-26.177-.3-26.177-.676,11.719-.674,26.177-.674S148.965,451.789,148.965,452.161Z" transform="translate(-96.615 -451.487)" fill="#263238"/>
              </g>
            </g>
          </g>
        </g>
        <g id="Group_5075" data-name="Group 5075" transform="translate(47.053 396.288)">
          <g id="Group_5074" data-name="Group 5074">
            <g id="Group_5073" data-name="Group 5073">
              <g id="Group_5072" data-name="Group 5072">
                <path id="Path_12740" data-name="Path 12740" d="M150.483,454.752c0,.373-12.1.676-27.032.676s-27.035-.3-27.035-.676,12.1-.676,27.035-.676S150.483,454.38,150.483,454.752Z" transform="translate(-96.416 -454.076)" fill="#263238"/>
              </g>
            </g>
          </g>
        </g>
      </g>
      <g id="Group_5092" data-name="Group 5092" transform="translate(1213.677 345.932)">
        <g id="Group_5078" data-name="Group 5078" transform="translate(28.726)">
          <g id="Group_5077" data-name="Group 5077">
            <path id="Path_12741" data-name="Path 12741" d="M665.793,430.7a17.757,17.757,0,0,0-10.831,8.722,31.326,31.326,0,0,0-3.589,13.711c-.523,9.209,3.046,19.2,7.337,27.368,8.741-5.334,12.475-16.615,14.01-22.455,2.426-9.233,1.2-27.392-6.928-27.347" transform="translate(-651.322 -430.7)" fill="#e8505b"/>
          </g>
        </g>
        <g id="Group_5080" data-name="Group 5080" transform="translate(0 41.027)">
          <g id="Group_5079" data-name="Group 5079">
            <path id="Path_12742" data-name="Path 12742" d="M662.706,471.915c2.092-4.9.926-10.861-2.393-15.023a20.115,20.115,0,0,0-13.845-7.074c-2.451-.23-5.187.028-6.913,1.781a6.479,6.479,0,0,0-1.208,6.456,13.149,13.149,0,0,0,3.983,5.54c5.883,5.265,12.542,9.278,20.376,8.319" transform="translate(-637.987 -449.746)" fill="#e8505b"/>
          </g>
        </g>
        <g id="Group_5083" data-name="Group 5083" transform="translate(11.779 50.779)">
          <g id="Group_5082" data-name="Group 5082">
            <g id="Group_5081" data-name="Group 5081">
              <path id="Path_12743" data-name="Path 12743" d="M661.405,496.053a10.661,10.661,0,0,0,.045-1.9c-.015-1.344-.037-3.083-.06-5.172-.123-4.336-.172-10.525-2.432-16.912a32.558,32.558,0,0,0-9.4-14.189A22.042,22.042,0,0,0,645.219,455a13.111,13.111,0,0,0-1.292-.575c-.3-.118-.461-.172-.47-.151a34.647,34.647,0,0,1,5.786,3.959,33.61,33.61,0,0,1,9.086,14.056c2.215,6.253,2.348,12.371,2.589,16.7.1,2.18.183,3.949.274,5.168A9.8,9.8,0,0,0,661.405,496.053Z" transform="translate(-643.455 -454.273)" fill="#263238"/>
            </g>
          </g>
        </g>
        <g id="Group_5086" data-name="Group 5086" transform="translate(29.541 13.911)">
          <g id="Group_5085" data-name="Group 5085">
            <g id="Group_5084" data-name="Group 5084">
              <path id="Path_12744" data-name="Path 12744" d="M665.066,437.158a3.834,3.834,0,0,0-.233.793l-.536,2.3c-.454,2-1.075,4.911-1.812,8.511-1.473,7.2-3.371,17.169-5.217,28.226s-3.287,21.111-4.229,28.4c-.472,3.643-.829,6.594-1.049,8.636-.1.965-.179,1.745-.241,2.354a3.96,3.96,0,0,0-.039.825,3.778,3.778,0,0,0,.172-.81c.095-.6.215-1.379.364-2.337.31-2.113.739-5.032,1.26-8.6,1.062-7.266,2.579-17.3,4.42-28.351s3.669-21.029,5.023-28.245c.664-3.548,1.208-6.447,1.6-8.55.17-.954.308-1.728.416-2.329A4.012,4.012,0,0,0,665.066,437.158Z" transform="translate(-651.7 -437.158)" fill="#263238"/>
            </g>
          </g>
        </g>
        <g id="Group_5088" data-name="Group 5088" transform="translate(36.937 48.076)">
          <g id="Group_5087" data-name="Group 5087">
            <path id="Path_12745" data-name="Path 12745" d="M655.134,475.889a35.446,35.446,0,0,1,23.457-22.321c2.751-.782,6.206-1.008,7.97,1.241s.717,5.571-.756,8.024a30.277,30.277,0,0,1-30.619,13.83" transform="translate(-655.134 -453.018)" fill="#e8505b"/>
          </g>
        </g>
        <g id="Group_5091" data-name="Group 5091" transform="translate(30.107 56.974)">
          <g id="Group_5090" data-name="Group 5090">
            <g id="Group_5089" data-name="Group 5089">
              <path id="Path_12746" data-name="Path 12746" d="M679.551,457.156a9.17,9.17,0,0,0-1.734.429,16.846,16.846,0,0,0-1.99.659c-.756.31-1.654.586-2.572,1.058a31.526,31.526,0,0,0-3,1.544,35.033,35.033,0,0,0-3.266,2.085,39.3,39.3,0,0,0-6.555,5.98,38.73,38.73,0,0,0-4.909,7.4A33.459,33.459,0,0,0,654,479.869a28.723,28.723,0,0,0-1.021,3.216,25.916,25.916,0,0,0-.594,2.716,15.505,15.505,0,0,0-.293,2.077,9.141,9.141,0,0,0-.106,1.784c.151.019.321-2.531,1.448-6.45a31.025,31.025,0,0,1,1.083-3.145,35.582,35.582,0,0,1,1.562-3.481,40.1,40.1,0,0,1,4.868-7.238,40.79,40.79,0,0,1,6.409-5.92,36.578,36.578,0,0,1,3.184-2.1c1.008-.646,2.016-1.129,2.921-1.6C677.125,457.946,679.6,457.3,679.551,457.156Z" transform="translate(-651.963 -457.149)" fill="#263238"/>
            </g>
          </g>
        </g>
      </g>
    </g>
  </g>
</svg>
