<svg id="Group_6566" data-name="Group 6566" xmlns="http://www.w3.org/2000/svg" width="1920" height="1080" viewBox="0 0 1920 1080">
  <rect id="Rectangle_3079" data-name="Rectangle 3079" width="1920" height="1080" fill="#92e3ff"/>
  <g id="Background_Complete" data-name="Background Complete" transform="translate(265.379 100.188)">
    <g id="Group_4869" data-name="Group 4869" transform="translate(1251.122 542.587)">
      <g id="Group_4847" data-name="Group 4847">
        <g id="Group_4846" data-name="Group 4846">
          <path id="Path_12667" data-name="Path 12667" d="M759.083,337.136s-14.041-6.07-24,26.7S722.4,414.978,722.4,414.978s-2.927,7.016-7.985,3.671-13.058-13.963-20.036-10.553c-7.234,3.537-8.229,12.492-4.55,24.736s10.758,39.363,11.389,41.816c.618,2.41-.138,6.258-3.949,4.532s-27.216-20-35.223-8.375,7.85,44.048,9.517,47.626,1.215,5.312-.4,6.559-8.907-5.637-15.777-10.562-15.7-9.431-19.756-2.337S634.489,545.112,666.3,582.4l15.872,16.316,22.25-5.25c46.935-14.136,63.42-34.357,63.849-42.519s-9.433-9.151-17.875-8.729-18.3,2.264-18.982.338-.123-3.625,3.214-5.732,34.221-20.783,33.781-34.893-30.01-11.413-34.148-12.024-2.693-4.257-.868-5.948c1.859-1.721,22.491-20.693,32.213-28.995s13.733-16.369,9.564-23.26c-4.02-6.646-16.494-2.049-22.558-1.973s-4.724-7.41-4.724-7.41,7.656-16.908,17.02-49.858-6.118-35.436-6.118-35.436" transform="translate(-634.199 -336.692)" fill="#7ed4fd"/>
        </g>
      </g>
      <g id="Group_4850" data-name="Group 4850" transform="translate(37.292 29.779)">
        <g id="Group_4849" data-name="Group 4849">
          <g id="Group_4848" data-name="Group 4848">
            <path id="Path_12668" data-name="Path 12668" d="M730.131,350.516s-.041.241-.157.7c-.131.491-.31,1.168-.541,2.036-.5,1.82-1.221,4.446-2.148,7.811-1.874,6.781-4.659,16.574-8.147,28.659-6.967,24.174-16.876,57.486-27.942,94.237s-21.063,70.051-28.166,94.182c-3.533,12.044-6.394,21.8-8.384,28.585-.987,3.348-1.756,5.958-2.288,7.77q-.394,1.289-.614,2.014c-.144.455-.235.681-.235.681s.041-.241.157-.7c.129-.489.31-1.165.539-2.036.5-1.82,1.224-4.446,2.15-7.809,1.874-6.781,4.657-16.572,8.145-28.659,6.969-24.174,16.878-57.488,27.948-94.25s21.059-70.036,28.159-94.169c3.533-12.044,6.4-21.8,8.384-28.586.986-3.348,1.756-5.961,2.29-7.772.263-.859.465-1.529.614-2.014C730.038,350.742,730.131,350.516,730.131,350.516Z" transform="translate(-651.511 -350.516)" fill="#e0e0e0"/>
          </g>
        </g>
      </g>
      <g id="Group_4853" data-name="Group 4853" transform="translate(70.771 86.708)">
        <g id="Group_4852" data-name="Group 4852">
          <g id="Group_4851" data-name="Group 4851">
            <path id="Path_12669" data-name="Path 12669" d="M667.06,376.944a6.6,6.6,0,0,1,.849,1.413c.506.931,1.193,2.3,2.027,4,1.659,3.4,3.826,8.156,6.118,13.448,2.232,5.213,4.248,9.926,5.807,13.571q1.047,2.414,1.777,4.1a6.493,6.493,0,0,1,.586,1.54,6.743,6.743,0,0,1-.857-1.409c-.5-.931-1.191-2.3-2.008-4.007-1.626-3.416-3.731-8.2-6.021-13.489-2.268-5.194-4.317-9.892-5.9-13.526q-1.057-2.41-1.8-4.1A6.821,6.821,0,0,1,667.06,376.944Z" transform="translate(-667.053 -376.944)" fill="#e0e0e0"/>
          </g>
        </g>
      </g>
      <g id="Group_4856" data-name="Group 4856" transform="translate(90.072 103.591)">
        <g id="Group_4855" data-name="Group 4855">
          <g id="Group_4854" data-name="Group 4854">
            <path id="Path_12670" data-name="Path 12670" d="M676.013,406c-.095-.192,9.508-5.1,21.445-10.956s21.7-10.452,21.793-10.258-9.506,5.1-21.449,10.958S676.108,406.2,676.013,406Z" transform="translate(-676.013 -384.781)" fill="#e0e0e0"/>
          </g>
        </g>
      </g>
      <g id="Group_4859" data-name="Group 4859" transform="translate(70.53 171.441)">
        <g id="Group_4858" data-name="Group 4858">
          <g id="Group_4857" data-name="Group 4857">
            <path id="Path_12671" data-name="Path 12671" d="M666.941,425.331a6.955,6.955,0,0,1,1.637-.386q1.842-.323,4.5-.795c3.8-.674,9.034-1.624,14.777-2.88,5.747-1.241,10.911-2.542,14.642-3.509l4.422-1.14a7,7,0,0,1,1.65-.332,7.04,7.04,0,0,1-1.564.623c-1.021.351-2.51.829-4.36,1.379-3.7,1.107-8.86,2.5-14.625,3.742s-11.034,2.126-14.857,2.663c-1.915.261-3.466.452-4.541.551A6.9,6.9,0,0,1,666.941,425.331Z" transform="translate(-666.941 -416.279)" fill="#e0e0e0"/>
          </g>
        </g>
      </g>
      <g id="Group_4862" data-name="Group 4862" transform="translate(45.489 149.868)">
        <g id="Group_4861" data-name="Group 4861">
          <g id="Group_4860" data-name="Group 4860">
            <path id="Path_12672" data-name="Path 12672" d="M655.32,406.266a6.009,6.009,0,0,1,1.112,1.09c.676.732,1.637,1.812,2.809,3.154,2.346,2.684,5.545,6.43,9.041,10.6s6.63,7.968,8.869,10.745c1.118,1.389,2.014,2.52,2.62,3.313a6.146,6.146,0,0,1,.879,1.284,5.874,5.874,0,0,1-1.112-1.088c-.676-.735-1.637-1.812-2.809-3.154-2.346-2.686-5.545-6.43-9.043-10.6s-6.628-7.968-8.866-10.745c-1.118-1.387-2.014-2.518-2.619-3.313A5.972,5.972,0,0,1,655.32,406.266Z" transform="translate(-655.316 -406.264)" fill="#e0e0e0"/>
          </g>
        </g>
      </g>
      <g id="Group_4865" data-name="Group 4865" transform="translate(21.992 196.833)">
        <g id="Group_4864" data-name="Group 4864">
          <g id="Group_4863" data-name="Group 4863">
            <path id="Path_12673" data-name="Path 12673" d="M644.411,428.068a9.94,9.94,0,0,1,1.407,1.409c.954,1.068,2.167,2.419,3.61,4.033,3.024,3.425,7.163,8.194,11.693,13.491s8.606,10.125,11.523,13.642c1.37,1.676,2.516,3.083,3.423,4.192a9.72,9.72,0,0,1,1.174,1.6,9.581,9.581,0,0,1-1.4-1.409L672.224,461c-3.022-3.425-7.16-8.194-11.695-13.494s-8.6-10.122-11.518-13.64l-3.425-4.192A9.658,9.658,0,0,1,644.411,428.068Z" transform="translate(-644.409 -428.066)" fill="#e0e0e0"/>
          </g>
        </g>
      </g>
      <g id="Group_4868" data-name="Group 4868" transform="translate(54.299 221.155)">
        <g id="Group_4867" data-name="Group 4867">
          <g id="Group_4866" data-name="Group 4866">
            <path id="Path_12674" data-name="Path 12674" d="M659.406,452.271a11.12,11.12,0,0,1,2.061-.536l5.668-1.213c4.784-1.025,11.385-2.462,18.629-4.25s13.769-3.557,18.48-4.873c2.247-.625,4.123-1.144,5.583-1.551a11.113,11.113,0,0,1,2.075-.482,11.162,11.162,0,0,1-1.986.773c-1.292.448-3.177,1.066-5.517,1.79-4.677,1.452-11.187,3.317-18.448,5.1s-13.892,3.147-18.709,4.035c-2.411.44-4.364.771-5.719.972A11.329,11.329,0,0,1,659.406,452.271Z" transform="translate(-659.406 -439.357)" fill="#e0e0e0"/>
          </g>
        </g>
      </g>
    </g>
    <g id="Group_4904" data-name="Group 4904" transform="translate(1135.206)">
      <g id="Group_4901" data-name="Group 4901">
        <rect id="Rectangle_2887" data-name="Rectangle 2887" width="177.192" height="237.654" fill="#7ed4fd"/>
      </g>
      <g id="Group_4902" data-name="Group 4902" transform="translate(9.223 9.34)">
        <rect id="Rectangle_2888" data-name="Rectangle 2888" width="158.745" height="218.974" fill="#92e3ff"/>
      </g>
      <g id="Group_4903" data-name="Group 4903" transform="translate(60.666 85.085)">
        <rect id="Rectangle_2889" data-name="Rectangle 2889" width="60.605" height="69.251" fill="#7ed4fd"/>
      </g>
    </g>
    <g id="Group_4908" data-name="Group 4908" transform="translate(1235.23 293.996)">
      <g id="Group_4905" data-name="Group 4905">
        <rect id="Rectangle_2890" data-name="Rectangle 2890" width="115.071" height="154.336" transform="translate(0 115.071) rotate(-90)" fill="#7ed4fd"/>
      </g>
      <g id="Group_4906" data-name="Group 4906" transform="translate(6.065 5.99)">
        <rect id="Rectangle_2891" data-name="Rectangle 2891" width="142.205" height="103.091" fill="#92e3ff"/>
      </g>
      <g id="Group_4907" data-name="Group 4907" transform="translate(55.255 36.316)">
        <rect id="Rectangle_2892" data-name="Rectangle 2892" width="39.357" height="44.972" transform="translate(0 39.357) rotate(-90)" fill="#7ed4fd"/>
      </g>
    </g>
    <g id="Group_4912" data-name="Group 4912" transform="translate(0 91.775)">
      <g id="Group_4909" data-name="Group 4909">
        <rect id="Rectangle_2893" data-name="Rectangle 2893" width="112.427" height="150.79" fill="#7ed4fd"/>
      </g>
      <g id="Group_4910" data-name="Group 4910" transform="translate(5.852 5.926)">
        <rect id="Rectangle_2894" data-name="Rectangle 2894" width="100.723" height="138.937" fill="#92e3ff"/>
      </g>
      <g id="Group_4911" data-name="Group 4911" transform="translate(38.492 53.986)">
        <rect id="Rectangle_2895" data-name="Rectangle 2895" width="38.453" height="43.939" fill="#7ed4fd"/>
      </g>
    </g>
  </g>
  <g id="Floor" transform="translate(261 938.555)">
    <g id="Group_4926" data-name="Group 4926" transform="translate(0 0)">
      <g id="Group_4925" data-name="Group 4925">
        <path id="Path_12690" data-name="Path 12690" d="M1406.889,474.561c0,.308-303.468.56-677.727.56-374.389,0-677.792-.252-677.792-.56S354.773,474,729.162,474C1103.422,474,1406.889,474.251,1406.889,474.561Z" transform="translate(-51.37 -473.999)" fill="#263238"/>
      </g>
    </g>
  </g>
  <g id="Plants" transform="translate(310.982 499.35)">
    <g id="Group_5076" data-name="Group 5076">
      <g id="Group_5064" data-name="Group 5064">
        <g id="Group_4950" data-name="Group 4950" transform="translate(27.51)">
          <g id="Group_4949" data-name="Group 4949">
            <g id="Group_4948" data-name="Group 4948">
              <g id="Group_4947" data-name="Group 4947">
                <path id="Path_12708" data-name="Path 12708" d="M125.372,650.9a5.889,5.889,0,0,1,.4-.952c.315-.672.739-1.575,1.277-2.723a68.746,68.746,0,0,0,3.753-10.9c2.482-9.689,3.348-24.5-.321-42.09a225.829,225.829,0,0,0-7.807-28.271c-3.3-10.034-7.141-20.68-10.277-32.189-3.1-11.479-5.545-23.943-5.073-37.008.476-13.091,4.349-26.158,8.612-39.162,4.252-13.028,8.653-25.761,9.969-38.57a58.775,58.775,0,0,0-7.07-35.619c-5.642-10.394-12.74-19.284-18.052-28.493A98.982,98.982,0,0,1,89.932,327.53a101.966,101.966,0,0,1-.687-42.435,79.1,79.1,0,0,1,4.427-14.984,5.77,5.77,0,0,1-.263,1l-.9,2.874A109.3,109.3,0,0,0,89.762,285.2a103.306,103.306,0,0,0,1.1,42.114,98.728,98.728,0,0,0,10.885,27.043c5.3,9.1,12.429,17.951,18.181,28.465a59.973,59.973,0,0,1,7.292,36.345c-1.327,13.024-5.758,25.843-10,38.854-4.261,13-8.091,25.925-8.576,38.8s1.9,25.206,4.955,36.631c3.083,11.454,6.874,22.1,10.137,32.164a223.038,223.038,0,0,1,7.68,28.439c3.574,17.722,2.555,32.681-.108,42.4a62.826,62.826,0,0,1-4.015,10.883c-.59,1.129-1.056,2.012-1.4,2.673A5.623,5.623,0,0,1,125.372,650.9Z" transform="translate(-87.343 -270.111)" fill="#263238"/>
              </g>
            </g>
          </g>
        </g>
        <g id="Group_4958" data-name="Group 4958" transform="translate(45.163 38.827)">
          <g id="Group_4953" data-name="Group 4953">
            <g id="Group_4952" data-name="Group 4952">
              <g id="Group_4951" data-name="Group 4951">
                <path id="Path_12709" data-name="Path 12709" d="M98.536,343.2s-10.786-34.49,8.563-54.685a1.2,1.2,0,0,1,2.051.592C110.183,294.8,111.474,312.151,98.536,343.2Z" transform="translate(-95.539 -288.135)" fill="#e8505b"/>
              </g>
            </g>
          </g>
          <g id="Group_4957" data-name="Group 4957" transform="translate(2.608 11.871)">
            <g id="Group_4956" data-name="Group 4956">
              <g id="Group_4955" data-name="Group 4955">
                <g id="Group_4954" data-name="Group 4954">
                  <path id="Path_12710" data-name="Path 12710" d="M103.6,293.646c.183.037-.125,2.462-.726,6.363-.709,4.384-1.54,9.528-2.46,15.213-.9,5.685-1.719,10.831-2.415,15.213-.592,3.895-.946,6.31-1.142,6.294-.177-.013-.157-2.466.192-6.411S98.1,320.956,99.079,315s2.012-11.309,2.856-15.169S103.418,293.61,103.6,293.646Z" transform="translate(-96.749 -293.646)" fill="#263238"/>
                </g>
              </g>
            </g>
          </g>
        </g>
        <g id="Group_4966" data-name="Group 4966" transform="translate(60.62 130.841)">
          <g id="Group_4961" data-name="Group 4961" transform="translate(0.211)">
            <g id="Group_4960" data-name="Group 4960">
              <g id="Group_4959" data-name="Group 4959">
                <path id="Path_12711" data-name="Path 12711" d="M102.812,375.249s6.6-35.531,33.144-44.335a1.2,1.2,0,0,1,1.534,1.484C135.74,337.915,128.767,353.854,102.812,375.249Z" transform="translate(-102.812 -330.85)" fill="#e8505b"/>
              </g>
            </g>
          </g>
          <g id="Group_4965" data-name="Group 4965" transform="translate(0 9.235)">
            <g id="Group_4964" data-name="Group 4964">
              <g id="Group_4963" data-name="Group 4963">
                <g id="Group_4962" data-name="Group 4962">
                  <path id="Path_12712" data-name="Path 12712" d="M128.837,335.143c.144.118-1.262,2.117-3.619,5.286l-9.289,12.294c-3.457,4.6-6.585,8.77-9.248,12.317-2.346,3.167-3.787,5.138-3.955,5.03-.149-.093,1.017-2.253,3.169-5.575s5.308-7.785,8.957-12.587,7.066-9.056,9.618-12.074S128.693,335.027,128.837,335.143Z" transform="translate(-102.714 -335.138)" fill="#263238"/>
                </g>
              </g>
            </g>
          </g>
        </g>
        <g id="Group_4974" data-name="Group 4974" transform="translate(53.369 212.101)">
          <g id="Group_4969" data-name="Group 4969" transform="translate(0.019)">
            <g id="Group_4968" data-name="Group 4968">
              <g id="Group_4967" data-name="Group 4967">
                <path id="Path_12713" data-name="Path 12713" d="M99.627,420.848S95.62,384.932,118.465,368.8a1.2,1.2,0,0,1,1.9.974C120.292,375.559,118.249,392.838,99.627,420.848Z" transform="translate(-99.357 -368.573)" fill="#e8505b"/>
              </g>
            </g>
          </g>
          <g id="Group_4973" data-name="Group 4973" transform="translate(0 11.106)">
            <g id="Group_4972" data-name="Group 4972">
              <g id="Group_4971" data-name="Group 4971">
                <g id="Group_4970" data-name="Group 4970">
                  <path id="Path_12714" data-name="Path 12714" d="M114.22,373.73c.172.071-.592,2.393-1.926,6.107-1.534,4.168-3.332,9.06-5.319,14.465-1.971,5.409-3.755,10.3-5.273,14.472-1.323,3.712-2.13,6.014-2.322,5.963-.168-.047.317-2.454,1.413-6.258s2.82-8.989,4.914-14.646,4.132-10.717,5.7-14.344S114.048,373.659,114.22,373.73Z" transform="translate(-99.348 -373.728)" fill="#263238"/>
                </g>
              </g>
            </g>
          </g>
        </g>
        <g id="Group_4982" data-name="Group 4982" transform="translate(73.377 302.491)">
          <g id="Group_4977" data-name="Group 4977" transform="translate(0.181)">
            <g id="Group_4976" data-name="Group 4976">
              <g id="Group_4975" data-name="Group 4975">
                <path id="Path_12715" data-name="Path 12715" d="M108.817,462.077s-2.719-36.037,20.688-51.34a1.2,1.2,0,0,1,1.865,1.038C131.091,417.557,128.43,434.749,108.817,462.077Z" transform="translate(-108.72 -410.534)" fill="#e8505b"/>
              </g>
            </g>
          </g>
          <g id="Group_4981" data-name="Group 4981" transform="translate(0 10.922)">
            <g id="Group_4980" data-name="Group 4980">
              <g id="Group_4979" data-name="Group 4979">
                <g id="Group_4978" data-name="Group 4978">
                  <path id="Path_12716" data-name="Path 12716" d="M124.962,415.606c.17.075-.679,2.37-2.146,6.034-1.68,4.11-3.651,8.935-5.831,14.265L111.2,450.178c-1.454,3.662-2.344,5.935-2.533,5.874-.166-.052.4-2.439,1.637-6.2s3.136-8.884,5.435-14.461,4.513-10.564,6.206-14.133S124.792,415.528,124.962,415.606Z" transform="translate(-108.636 -415.604)" fill="#263238"/>
                </g>
              </g>
            </g>
          </g>
        </g>
        <g id="Group_4990" data-name="Group 4990" transform="translate(0 17.653)">
          <g id="Group_4985" data-name="Group 4985">
            <g id="Group_4984" data-name="Group 4984">
              <g id="Group_4983" data-name="Group 4983">
                <path id="Path_12717" data-name="Path 12717" d="M107.234,324.241S75.2,307.512,74.573,279.551a1.2,1.2,0,0,1,1.868-1.032C81.2,281.811,94.393,293.153,107.234,324.241Z" transform="translate(-74.573 -278.306)" fill="#e8505b"/>
              </g>
            </g>
          </g>
          <g id="Group_4989" data-name="Group 4989" transform="translate(6.637 10.847)">
            <g id="Group_4988" data-name="Group 4988">
              <g id="Group_4987" data-name="Group 4987">
                <g id="Group_4986" data-name="Group 4986">
                  <path id="Path_12718" data-name="Path 12718" d="M77.667,283.345c.155-.1,1.657,1.829,3.992,5.008,2.6,3.6,5.657,7.822,9.03,12.488s6.452,8.866,9.063,12.455c2.339,3.169,3.8,5.127,3.649,5.254-.131.114-1.857-1.631-4.4-4.664s-5.885-7.359-9.407-12.255-6.585-9.411-8.72-12.735S77.512,283.449,77.667,283.345Z" transform="translate(-77.654 -283.341)" fill="#263238"/>
                </g>
              </g>
            </g>
          </g>
        </g>
        <g id="Group_4998" data-name="Group 4998" transform="translate(31.739 93.719)">
          <g id="Group_4993" data-name="Group 4993">
            <g id="Group_4992" data-name="Group 4992">
              <g id="Group_4991" data-name="Group 4991">
                <path id="Path_12719" data-name="Path 12719" d="M124.624,357.559s-32.989-14.754-35.313-42.624a1.2,1.2,0,0,1,1.8-1.144C96.065,316.788,109.92,327.306,124.624,357.559Z" transform="translate(-89.307 -313.617)" fill="#e8505b"/>
              </g>
            </g>
          </g>
          <g id="Group_4997" data-name="Group 4997" transform="translate(7.214 10.496)">
            <g id="Group_4996" data-name="Group 4996">
              <g id="Group_4995" data-name="Group 4995">
                <g id="Group_4994" data-name="Group 4994">
                  <path id="Path_12720" data-name="Path 12720" d="M92.667,318.495c.149-.112,1.764,1.725,4.289,4.758,2.815,3.432,6.12,7.462,9.771,11.915s6.979,8.459,9.8,11.882c2.529,3.022,4.106,4.886,3.961,5.023-.125.123-1.952-1.516-4.675-4.39s-6.322-6.986-10.135-11.658-7.143-9-9.478-12.184S92.52,318.609,92.667,318.495Z" transform="translate(-92.656 -318.49)" fill="#263238"/>
                </g>
              </g>
            </g>
          </g>
        </g>
        <g id="Group_5006" data-name="Group 5006" transform="translate(33.214 165.496)">
          <g id="Group_5001" data-name="Group 5001">
            <g id="Group_5000" data-name="Group 5000">
              <g id="Group_4999" data-name="Group 4999">
                <path id="Path_12721" data-name="Path 12721" d="M104.854,401.727S82.2,373.568,92.827,347.7a1.2,1.2,0,0,1,2.124-.2C98,352.421,105.541,368.1,104.854,401.727Z" transform="translate(-89.992 -346.938)" fill="#e8505b"/>
              </g>
            </g>
          </g>
          <g id="Group_5005" data-name="Group 5005" transform="translate(5.026 12.223)">
            <g id="Group_5004" data-name="Group 5004">
              <g id="Group_5003" data-name="Group 5003">
                <g id="Group_5002" data-name="Group 5002">
                  <path id="Path_12722" data-name="Path 12722" d="M92.381,352.612c.183-.032.784,2.337,1.65,6.189.944,4.338,2.051,9.431,3.272,15.057,1.239,5.622,2.361,10.708,3.315,15.042.875,3.843,1.428,6.219,1.239,6.277-.168.052-1.047-2.24-2.163-6.038s-2.445-9.1-3.712-15-2.264-11.262-2.891-15.163S92.2,352.645,92.381,352.612Z" transform="translate(-92.325 -352.612)" fill="#263238"/>
                </g>
              </g>
            </g>
          </g>
        </g>
        <g id="Group_5014" data-name="Group 5014" transform="translate(35.916 273.006)">
          <g id="Group_5009" data-name="Group 5009">
            <g id="Group_5008" data-name="Group 5008">
              <g id="Group_5007" data-name="Group 5007">
                <path id="Path_12723" data-name="Path 12723" d="M125.842,441.355s-32.737-15.305-34.593-43.21a1.2,1.2,0,0,1,1.82-1.114C97.969,400.109,111.648,410.861,125.842,441.355Z" transform="translate(-91.246 -396.846)" fill="#e8505b"/>
              </g>
            </g>
          </g>
          <g id="Group_5013" data-name="Group 5013" transform="translate(7.059 10.595)">
            <g id="Group_5012" data-name="Group 5012">
              <g id="Group_5011" data-name="Group 5011">
                <g id="Group_5010" data-name="Group 5010">
                  <path id="Path_12724" data-name="Path 12724" d="M94.534,401.769c.151-.11,1.732,1.756,4.207,4.83,2.757,3.481,5.995,7.565,9.571,12.078s6.835,8.574,9.6,12.044c2.477,3.065,4.02,4.955,3.875,5.09-.127.121-1.926-1.549-4.6-4.468s-6.2-7.091-9.937-11.828-6.992-9.114-9.271-12.341S94.383,401.881,94.534,401.769Z" transform="translate(-94.523 -401.765)" fill="#263238"/>
                </g>
              </g>
            </g>
          </g>
        </g>
        <g id="Group_5063" data-name="Group 5063" transform="translate(62.498 167.214)">
          <g id="Group_5018" data-name="Group 5018" transform="translate(10.71 8.217)">
            <g id="Group_5017" data-name="Group 5017">
              <g id="Group_5016" data-name="Group 5016">
                <g id="Group_5015" data-name="Group 5015">
                  <path id="Path_12725" data-name="Path 12725" d="M171.07,351.55a2.761,2.761,0,0,1,.041.8c-.015.629-.034,1.387-.058,2.309-.095,2.171-.224,5.105-.388,8.763-.422,7.7-1.01,18.444-1.713,31.293l0,.03-.009.043c-2.337,13.078-9,27.571-17.942,41.642-6.562,10.368-13.44,19.792-19.372,28.558A202.345,202.345,0,0,0,117.1,488.993a101.754,101.754,0,0,0-6.794,17.619c-.577,2.161-1.008,3.843-1.258,5a9.247,9.247,0,0,1-.478,1.741,8.9,8.9,0,0,1,.211-1.794c.164-1.172.515-2.88,1.015-5.073a93.018,93.018,0,0,1,6.445-17.9,191.53,191.53,0,0,1,14.351-24.288c5.894-8.828,12.735-18.267,19.262-28.581,8.9-14,15.523-28.275,17.948-41.142l-.011.073c.9-12.837,1.657-23.566,2.2-31.263.3-3.649.532-6.574.709-8.742.09-.918.168-1.674.23-2.3A2.765,2.765,0,0,1,171.07,351.55Z" transform="translate(-108.558 -351.55)" fill="#263238"/>
                </g>
              </g>
            </g>
          </g>
          <g id="Group_5029" data-name="Group 5029" transform="translate(46.47 34.709)">
            <g id="Group_5021" data-name="Group 5021">
              <g id="Group_5020" data-name="Group 5020">
                <g id="Group_5019" data-name="Group 5019">
                  <path id="Path_12726" data-name="Path 12726" d="M132.418,419.546s13.864-33.372-3.576-55.237a1.2,1.2,0,0,0-2.1.4C125.2,370.293,122.345,387.453,132.418,419.546Z" transform="translate(-125.158 -363.848)" fill="#e8505b"/>
                </g>
              </g>
            </g>
            <g id="Group_5025" data-name="Group 5025" transform="translate(4.635 12.098)">
              <g id="Group_5024" data-name="Group 5024">
                <g id="Group_5023" data-name="Group 5023">
                  <g id="Group_5022" data-name="Group 5022">
                    <path id="Path_12727" data-name="Path 12727" d="M127.409,369.464c.185-.021.61,2.391,1.1,6.314s1.04,9.351,1.469,15.366.635,11.477.635,15.434-.213,6.4-.388,6.4c-.2,0-.332-2.439-.569-6.372-.3-4.429-.642-9.625-1.028-15.37-.4-5.743-.763-10.943-1.073-15.372C127.31,371.926,127.224,369.483,127.409,369.464Z" transform="translate(-127.31 -369.464)" fill="#263238"/>
                  </g>
                </g>
              </g>
            </g>
            <g id="Group_5028" data-name="Group 5028" opacity="0.3">
              <g id="Group_5027" data-name="Group 5027">
                <g id="Group_5026" data-name="Group 5026">
                  <path id="Path_12728" data-name="Path 12728" d="M132.418,419.546s13.864-33.372-3.576-55.237a1.2,1.2,0,0,0-2.1.4C125.2,370.293,122.345,387.453,132.418,419.546Z" transform="translate(-125.158 -363.848)"/>
                </g>
              </g>
            </g>
          </g>
          <g id="Group_5040" data-name="Group 5040" transform="translate(0 115.676)">
            <g id="Group_5032" data-name="Group 5032">
              <g id="Group_5031" data-name="Group 5031">
                <g id="Group_5030" data-name="Group 5030">
                  <path id="Path_12729" data-name="Path 12729" d="M114.372,456.586s11.111-34.387-8.044-54.765a1.2,1.2,0,0,0-2.055.573C103.186,408.081,101.73,425.416,114.372,456.586Z" transform="translate(-103.586 -401.434)" fill="#e8505b"/>
                </g>
              </g>
            </g>
            <g id="Group_5036" data-name="Group 5036" transform="translate(4.678 11.9)">
              <g id="Group_5035" data-name="Group 5035">
                <g id="Group_5034" data-name="Group 5034">
                  <g id="Group_5033" data-name="Group 5033">
                    <path id="Path_12730" data-name="Path 12730" d="M105.812,406.959c.185-.037.8,2.335,1.609,6.2s1.794,9.235,2.71,15.2,1.564,11.389,1.885,15.333.306,6.4.131,6.411c-.2.015-.528-2.4-1.081-6.305-.655-4.388-1.422-9.541-2.27-15.234-.866-5.693-1.65-10.846-2.316-15.236C105.916,409.421,105.629,406.994,105.812,406.959Z" transform="translate(-105.757 -406.959)" fill="#263238"/>
                  </g>
                </g>
              </g>
            </g>
            <g id="Group_5039" data-name="Group 5039" opacity="0.3">
              <g id="Group_5038" data-name="Group 5038">
                <g id="Group_5037" data-name="Group 5037">
                  <path id="Path_12731" data-name="Path 12731" d="M114.372,456.586s11.111-34.387-8.044-54.765a1.2,1.2,0,0,0-2.055.573C103.186,408.081,101.73,425.416,114.372,456.586Z" transform="translate(-103.586 -401.434)"/>
                </g>
              </g>
            </g>
          </g>
          <g id="Group_5051" data-name="Group 5051" transform="translate(71.385)">
            <g id="Group_5043" data-name="Group 5043">
              <g id="Group_5042" data-name="Group 5042">
                <g id="Group_5041" data-name="Group 5041">
                  <path id="Path_12732" data-name="Path 12732" d="M136.724,397.358s29.607-20.725,26.619-48.533a1.2,1.2,0,0,0-1.986-.782C157.061,351.92,145.444,364.871,136.724,397.358Z" transform="translate(-136.724 -347.735)" fill="#e8505b"/>
                </g>
              </g>
            </g>
            <g id="Group_5046" data-name="Group 5046" opacity="0.3">
              <g id="Group_5045" data-name="Group 5045">
                <g id="Group_5044" data-name="Group 5044">
                  <path id="Path_12733" data-name="Path 12733" d="M136.724,397.358s29.607-20.725,26.619-48.533a1.2,1.2,0,0,0-1.986-.782C157.061,351.92,145.444,364.871,136.724,397.358Z" transform="translate(-136.724 -347.735)"/>
                </g>
              </g>
            </g>
            <g id="Group_5050" data-name="Group 5050" transform="translate(0.275 11.47)">
              <g id="Group_5049" data-name="Group 5049">
                <g id="Group_5048" data-name="Group 5048">
                  <g id="Group_5047" data-name="Group 5047">
                    <path id="Path_12734" data-name="Path 12734" d="M157.84,353.062c.166.084-.769,2.346-2.46,5.917s-4.14,8.451-7.005,13.756-5.62,10.028-7.744,13.366-3.617,5.291-3.763,5.194c-.166-.108,1.03-2.236,2.94-5.683,2.126-3.895,4.621-8.466,7.378-13.519s5.228-9.646,7.343-13.55C156.435,355.089,157.672,352.98,157.84,353.062Z" transform="translate(-136.852 -353.06)" fill="#263238"/>
                  </g>
                </g>
              </g>
            </g>
          </g>
          <g id="Group_5062" data-name="Group 5062" transform="translate(22.725 103.264)">
            <g id="Group_5054" data-name="Group 5054">
              <g id="Group_5053" data-name="Group 5053">
                <g id="Group_5052" data-name="Group 5052">
                  <path id="Path_12735" data-name="Path 12735" d="M114.135,429.144s35.705-5.566,45.272-31.847a1.2,1.2,0,0,0-1.439-1.577C152.4,397.31,136.269,403.82,114.135,429.144Z" transform="translate(-114.135 -395.673)" fill="#e8505b"/>
                </g>
              </g>
            </g>
            <g id="Group_5057" data-name="Group 5057" opacity="0.3">
              <g id="Group_5056" data-name="Group 5056">
                <g id="Group_5055" data-name="Group 5055">
                  <path id="Path_12736" data-name="Path 12736" d="M114.135,429.144s35.705-5.566,45.272-31.847a1.2,1.2,0,0,0-1.439-1.577C152.4,397.31,136.269,403.82,114.135,429.144Z" transform="translate(-114.135 -395.673)"/>
                </g>
              </g>
            </g>
            <g id="Group_5061" data-name="Group 5061" transform="translate(0.218 8.576)">
              <g id="Group_5060" data-name="Group 5060">
                <g id="Group_5059" data-name="Group 5059">
                  <g id="Group_5058" data-name="Group 5058">
                    <path id="Path_12737" data-name="Path 12737" d="M149.908,399.665c.112.149-1.725,1.769-4.817,4.231s-7.438,5.762-12.345,9.265-9.463,6.527-12.841,8.589-5.577,3.156-5.665,3.005c-.1-.17,1.909-1.555,5.142-3.806l12.58-8.888,12.559-8.931C147.754,400.867,149.794,399.518,149.908,399.665Z" transform="translate(-114.236 -399.654)" fill="#263238"/>
                  </g>
                </g>
              </g>
            </g>
          </g>
        </g>
      </g>
      <g id="Group_5067" data-name="Group 5067" transform="translate(40.743 369.663)">
        <g id="Group_5066" data-name="Group 5066">
          <g id="Group_5065" data-name="Group 5065">
            <path id="Path_12738" data-name="Path 12738" d="M103.9,441.716l-10.416,70.1H158.4l-8.415-70.1Z" transform="translate(-93.487 -441.716)" fill="#455a64"/>
          </g>
        </g>
      </g>
      <g id="Group_5071" data-name="Group 5071" transform="translate(47.482 390.711)">
        <g id="Group_5070" data-name="Group 5070">
          <g id="Group_5069" data-name="Group 5069">
            <g id="Group_5068" data-name="Group 5068">
              <path id="Path_12739" data-name="Path 12739" d="M148.965,452.161c0,.375-11.721.676-26.173.676s-26.177-.3-26.177-.676,11.719-.674,26.177-.674S148.965,451.789,148.965,452.161Z" transform="translate(-96.615 -451.487)" fill="#263238"/>
            </g>
          </g>
        </g>
      </g>
      <g id="Group_5075" data-name="Group 5075" transform="translate(47.053 396.288)">
        <g id="Group_5074" data-name="Group 5074">
          <g id="Group_5073" data-name="Group 5073">
            <g id="Group_5072" data-name="Group 5072">
              <path id="Path_12740" data-name="Path 12740" d="M150.483,454.752c0,.373-12.1.676-27.032.676s-27.035-.3-27.035-.676,12.1-.676,27.035-.676S150.483,454.38,150.483,454.752Z" transform="translate(-96.416 -454.076)" fill="#263238"/>
            </g>
          </g>
        </g>
      </g>
    </g>
    <g id="Group_5092" data-name="Group 5092" transform="translate(1213.677 345.932)">
      <g id="Group_5078" data-name="Group 5078" transform="translate(28.726)">
        <g id="Group_5077" data-name="Group 5077">
          <path id="Path_12741" data-name="Path 12741" d="M665.793,430.7a17.757,17.757,0,0,0-10.831,8.722,31.326,31.326,0,0,0-3.589,13.711c-.523,9.209,3.046,19.2,7.337,27.368,8.741-5.334,12.475-16.615,14.01-22.455,2.426-9.233,1.2-27.392-6.928-27.347" transform="translate(-651.322 -430.7)" fill="#e8505b"/>
        </g>
      </g>
      <g id="Group_5080" data-name="Group 5080" transform="translate(0 41.027)">
        <g id="Group_5079" data-name="Group 5079">
          <path id="Path_12742" data-name="Path 12742" d="M662.706,471.915c2.092-4.9.926-10.861-2.393-15.023a20.115,20.115,0,0,0-13.845-7.074c-2.451-.23-5.187.028-6.913,1.781a6.479,6.479,0,0,0-1.208,6.456,13.149,13.149,0,0,0,3.983,5.54c5.883,5.265,12.542,9.278,20.376,8.319" transform="translate(-637.987 -449.746)" fill="#e8505b"/>
        </g>
      </g>
      <g id="Group_5083" data-name="Group 5083" transform="translate(11.779 50.779)">
        <g id="Group_5082" data-name="Group 5082">
          <g id="Group_5081" data-name="Group 5081">
            <path id="Path_12743" data-name="Path 12743" d="M661.405,496.053a10.661,10.661,0,0,0,.045-1.9c-.015-1.344-.037-3.083-.06-5.172-.123-4.336-.172-10.525-2.432-16.912a32.558,32.558,0,0,0-9.4-14.189A22.042,22.042,0,0,0,645.219,455a13.111,13.111,0,0,0-1.292-.575c-.3-.118-.461-.172-.47-.151a34.647,34.647,0,0,1,5.786,3.959,33.61,33.61,0,0,1,9.086,14.056c2.215,6.253,2.348,12.371,2.589,16.7.1,2.18.183,3.949.274,5.168A9.8,9.8,0,0,0,661.405,496.053Z" transform="translate(-643.455 -454.273)" fill="#263238"/>
          </g>
        </g>
      </g>
      <g id="Group_5086" data-name="Group 5086" transform="translate(29.541 13.911)">
        <g id="Group_5085" data-name="Group 5085">
          <g id="Group_5084" data-name="Group 5084">
            <path id="Path_12744" data-name="Path 12744" d="M665.066,437.158a3.834,3.834,0,0,0-.233.793l-.536,2.3c-.454,2-1.075,4.911-1.812,8.511-1.473,7.2-3.371,17.169-5.217,28.226s-3.287,21.111-4.229,28.4c-.472,3.643-.829,6.594-1.049,8.636-.1.965-.179,1.745-.241,2.354a3.96,3.96,0,0,0-.039.825,3.778,3.778,0,0,0,.172-.81c.095-.6.215-1.379.364-2.337.31-2.113.739-5.032,1.26-8.6,1.062-7.266,2.579-17.3,4.42-28.351s3.669-21.029,5.023-28.245c.664-3.548,1.208-6.447,1.6-8.55.17-.954.308-1.728.416-2.329A4.012,4.012,0,0,0,665.066,437.158Z" transform="translate(-651.7 -437.158)" fill="#263238"/>
          </g>
        </g>
      </g>
      <g id="Group_5088" data-name="Group 5088" transform="translate(36.937 48.076)">
        <g id="Group_5087" data-name="Group 5087">
          <path id="Path_12745" data-name="Path 12745" d="M655.134,475.889a35.446,35.446,0,0,1,23.457-22.321c2.751-.782,6.206-1.008,7.97,1.241s.717,5.571-.756,8.024a30.277,30.277,0,0,1-30.619,13.83" transform="translate(-655.134 -453.018)" fill="#e8505b"/>
        </g>
      </g>
      <g id="Group_5091" data-name="Group 5091" transform="translate(30.107 56.974)">
        <g id="Group_5090" data-name="Group 5090">
          <g id="Group_5089" data-name="Group 5089">
            <path id="Path_12746" data-name="Path 12746" d="M679.551,457.156a9.17,9.17,0,0,0-1.734.429,16.846,16.846,0,0,0-1.99.659c-.756.31-1.654.586-2.572,1.058a31.526,31.526,0,0,0-3,1.544,35.033,35.033,0,0,0-3.266,2.085,39.3,39.3,0,0,0-6.555,5.98,38.73,38.73,0,0,0-4.909,7.4A33.459,33.459,0,0,0,654,479.869a28.723,28.723,0,0,0-1.021,3.216,25.916,25.916,0,0,0-.594,2.716,15.505,15.505,0,0,0-.293,2.077,9.141,9.141,0,0,0-.106,1.784c.151.019.321-2.531,1.448-6.45a31.025,31.025,0,0,1,1.083-3.145,35.582,35.582,0,0,1,1.562-3.481,40.1,40.1,0,0,1,4.868-7.238,40.79,40.79,0,0,1,6.409-5.92,36.578,36.578,0,0,1,3.184-2.1c1.008-.646,2.016-1.129,2.921-1.6C677.125,457.946,679.6,457.3,679.551,457.156Z" transform="translate(-651.963 -457.149)" fill="#263238"/>
          </g>
        </g>
      </g>
    </g>
  </g>
  <g id="Group_6565" data-name="Group 6565" transform="translate(209.63 6.537)">
    <g id="headphones" transform="translate(725.93 823.77)">
      <g id="Group_6564" data-name="Group 6564" transform="translate(2.56)">
        <path id="Path_16413" data-name="Path 16413" d="M42.951,10.045A19.727,19.727,0,0,0,25.785,0H22.171A19.643,19.643,0,0,0,5.058,10.045a19.176,19.176,0,0,0-2.5,9.566v12.17A11.869,11.869,0,0,0,14.2,43.367a1.816,1.816,0,0,0,1.86-1.86V20.78a1.816,1.816,0,0,0-1.86-1.86,11.351,11.351,0,0,0-7.972,3.348v-2.71a15.954,15.954,0,0,1,16-15.944h3.614A15.954,15.954,0,0,1,41.782,19.558v2.71A11.256,11.256,0,0,0,33.81,18.92a1.816,1.816,0,0,0-1.86,1.86V41.56a1.816,1.816,0,0,0,1.86,1.86c6.218,0,11.32-5.155,11.639-11.639V19.611A19.469,19.469,0,0,0,42.951,10.045Z" transform="translate(-2.56)" fill="#0e3e7c"/>
      </g>
    </g>
  </g>
  <text id="For_better_User_Experience_use_your_headphones_or_turn_on_your_speakers._" data-name="For better User Experience use your headphones or turn on your speakers. " transform="translate(547 907)" fill="#643703" font-size="24" font-family="Raleway"><tspan x="0" y="0">For better User Experience use your headphones or turn on your speakers. </tspan></text>
  <g id="Group_6596" data-name="Group 6596" transform="translate(650.349 -54.498)">
    <g id="Group_6594" data-name="Group 6594" style="isolation: isolate">
      <path id="Path_16685" data-name="Path 16685" d="M-154.3,293.738a70.954,70.954,0,0,1-7.625-5.416q-3.451-2.762-5.9-4.451a28.135,28.135,0,0,0-5.313-2.864,15.258,15.258,0,0,0-5.831-1.173,13.457,13.457,0,0,0-1.587.07l10.282-47.818a14.987,14.987,0,0,0-7.142,5.693,16.639,16.639,0,0,0-2.519,9.349,9.046,9.046,0,0,0,.483,3.554,5.99,5.99,0,0,1,.483,1.139q-3.726,0-5.554-1.553t-1.829-5.141a13.049,13.049,0,0,1,3.623-8.59,26.852,26.852,0,0,1,9.28-6.762,27.009,27.009,0,0,1,11.316-2.587q.966,0,2.76.138L-170,276.868a22.939,22.939,0,0,1,3.968,1.414q2.034.932,4.933,2.518a78.5,78.5,0,0,0,7.659,3.692,17.61,17.61,0,0,0,6.624,1.277,15.14,15.14,0,0,0,5.8-1.1,18.072,18.072,0,0,1-2.449,7.934,5.548,5.548,0,0,1-4.727,2.9A11.948,11.948,0,0,1-154.3,293.738Z" fill="#3cafce"/>
      <path id="Path_16686" data-name="Path 16686" d="M-158.68,276.005q-2.829-2.655-2.829-8.314a34.15,34.15,0,0,1,1.863-10.488,24.345,24.345,0,0,1,6.072-9.9,14.552,14.552,0,0,1,10.7-4.175q7.59,0,7.59,6.624a12.363,12.363,0,0,1-2.208,7.108,16.3,16.3,0,0,1-5.865,5.209,18.923,18.923,0,0,1-7.8,2.242q-.138,2.072-.138,2.761,0,3.381,1.173,4.588a5.11,5.11,0,0,0,3.795,1.208,11.46,11.46,0,0,0,6.383-1.726,30.885,30.885,0,0,0,5.83-5.243h2.346q-7.659,12.766-18.975,12.765Q-155.851,278.662-158.68,276.005Zm12.938-16.8a12.656,12.656,0,0,0,3.726-4.209,10.952,10.952,0,0,0,1.414-5.382q0-2.829-1.725-2.829-2.484,0-4.864,4.346A33.124,33.124,0,0,0-150.607,261,9.111,9.111,0,0,0-145.742,259.2Z" fill="#3cafce"/>
      <path id="Path_16687" data-name="Path 16687" d="M-132.84,276.523a8.861,8.861,0,0,1-1.691-5.658,16.819,16.819,0,0,1,.414-3.657l4.416-20.7h-2.277l.552-2.759h2.277l2.07-9.523,10.212-1.38q-.621,2.623-.69,3.106-.483,1.932-1.656,7.8h4.14l-.552,2.759h-4.14l-4.416,20.7a11.477,11.477,0,0,0-.345,2.415,2.166,2.166,0,0,0,2.415,2.484,5.577,5.577,0,0,0,1.794-.207q-1.38,4-3.243,5.382a6.686,6.686,0,0,1-4.071,1.38A6.233,6.233,0,0,1-132.84,276.523Z" fill="#3cafce"/>
      <path id="Path_16688" data-name="Path 16688" d="M-108.45,241.747a18.521,18.521,0,0,0,2.277-2.83,4.355,4.355,0,0,0,.828-2.138,1.471,1.471,0,0,0-.31-.9,5.049,5.049,0,0,0-.932-.9A6.948,6.948,0,0,1-108.1,233.4a3.91,3.91,0,0,1-.553-2.208,4.784,4.784,0,0,1,1.311-3.485,4.426,4.426,0,0,1,3.312-1.345,4.715,4.715,0,0,1,3.485,1.345A4.716,4.716,0,0,1-99.2,231.19a10.557,10.557,0,0,1-2.242,5.9,22.157,22.157,0,0,1-5.969,5.693Z" fill="#3cafce"/>
      <path id="Path_16689" data-name="Path 16689" d="M-96.375,277.385a8.367,8.367,0,0,1-3.381-3.312,8.782,8.782,0,0,1-1.1-4.243,7.275,7.275,0,0,1,1.069-3.968,6.563,6.563,0,0,1,2.588-2.449,88.256,88.256,0,0,0,4.692-9.764q2-4.932,3.795-10.66l10.212-1.38q.343,8.834,1.172,19.112.345,4.141.346,6a10.755,10.755,0,0,1-2.139,6.9,12.025,12.025,0,0,1-5.279,3.864,18.134,18.134,0,0,1-6.382,1.173A11.272,11.272,0,0,1-96.375,277.385Zm7.659-5.692q1.724-1.518,1.725-4.9A56.079,56.079,0,0,0-87.4,261q-.691-7.867-.9-10.557a79.93,79.93,0,0,1-5.589,13.041A2.61,2.61,0,0,1-92.3,265.9a3.568,3.568,0,0,1-.863,2.346,2.716,2.716,0,0,1-2.173,1.035,1.832,1.832,0,0,1-1.863-.9,5.558,5.558,0,0,0,1,3.658,4,4,0,0,0,3.209,1.172A6.245,6.245,0,0,0-88.716,271.693Z" fill="#3cafce"/>
      <path id="Path_16690" data-name="Path 16690" d="M-59.875,276.35a8.467,8.467,0,0,1-2.484-6.52,15.656,15.656,0,0,1,.483-3.933l7.383-34.569,10.212-1.38-3.312,15.524a15.026,15.026,0,0,1,3.174-1.552,8.461,8.461,0,0,1,2.484-.379q8.141,0,8.142,11.8a31.893,31.893,0,0,1-1.829,10.178,21.771,21.771,0,0,1-6.071,9.28A15.705,15.705,0,0,1-52.7,278.662Q-57.392,278.662-59.875,276.35Zm15.042-7.038a21.527,21.527,0,0,0,2.967-6.624,28.455,28.455,0,0,0,1.1-7.624,10.406,10.406,0,0,0-.966-4.692,2.967,2.967,0,0,0-2.691-1.932,9.855,9.855,0,0,0-2.311.31,3.1,3.1,0,0,0-1.76.931l-3.795,17.527a6.534,6.534,0,0,0-.207,1.586q0,3.176,3.657,3.174Q-46.7,271.968-44.833,269.312Z" fill="#3cafce"/>
      <path id="Path_16691" data-name="Path 16691" d="M-29.309,276.005q-2.83-2.655-2.829-8.314A34.15,34.15,0,0,1-30.275,257.2a24.334,24.334,0,0,1,6.072-9.9,14.551,14.551,0,0,1,10.695-4.175q7.589,0,7.59,6.624a12.37,12.37,0,0,1-2.208,7.108,16.3,16.3,0,0,1-5.865,5.209,18.927,18.927,0,0,1-7.8,2.242q-.14,2.072-.138,2.761,0,3.381,1.173,4.588a5.108,5.108,0,0,0,3.8,1.208,11.454,11.454,0,0,0,6.382-1.726A30.887,30.887,0,0,0-4.745,265.9H-2.4q-7.659,12.766-18.975,12.765Q-26.481,278.662-29.309,276.005Zm12.937-16.8a12.645,12.645,0,0,0,3.726-4.209,10.953,10.953,0,0,0,1.415-5.382q0-2.829-1.725-2.829-2.484,0-4.865,4.346A33.123,33.123,0,0,0-21.236,261,9.108,9.108,0,0,0-16.372,259.2Z" fill="#3cafce"/>
      <path id="Path_16692" data-name="Path 16692" d="M1.947,293.773A5.929,5.929,0,0,1-.261,288.8a7.5,7.5,0,0,1,3.174-6.313,27.505,27.505,0,0,1,8.073-3.967l.828-3.657a10.945,10.945,0,0,1-8.28,3.795,8.777,8.777,0,0,1-6.555-2.692q-2.622-2.691-2.622-8.418a31.524,31.524,0,0,1,2.036-10.729A24.711,24.711,0,0,1,2.464,247.3a13.38,13.38,0,0,1,9.626-3.9,7.392,7.392,0,0,1,4.209.966,2.977,2.977,0,0,1,1.38,2.552v.414l.759-3.587h9.936l-6.831,32.015a12.2,12.2,0,0,0,5.313-3.311,17.77,17.77,0,0,0,3.381-6.555h2.9q-1.863,6.143-5.037,9a16.906,16.906,0,0,1-7.176,3.9l-1.035,4.968q-1.381,6.693-4.761,9.212A12.5,12.5,0,0,1,7.467,295.5,8.7,8.7,0,0,1,1.947,293.773Zm6.21-5.244a12.593,12.593,0,0,0,1.725-4.555l.414-2q-6.763,2.484-6.762,5.865a2.3,2.3,0,0,0,.621,1.587,2.2,2.2,0,0,0,1.725.691A2.983,2.983,0,0,0,8.157,288.529Zm3.105-18.009a7.469,7.469,0,0,0,2.277-3.934l3.519-16.352a2.733,2.733,0,0,0-.69-1.691,2.575,2.575,0,0,0-2.139-.863q-2.76,0-4.968,3.209a25.389,25.389,0,0,0-3.45,7.728,30.568,30.568,0,0,0-1.242,7.969q0,3.451,1,4.416a3.39,3.39,0,0,0,2.45.966A4.994,4.994,0,0,0,11.262,270.52Z" fill="#3cafce"/>
      <path id="Path_16693" data-name="Path 16693" d="M31.72,276.591q-2.037-2.07-2.035-6.21a24,24,0,0,1,.551-4.484l4.692-22.149h9.936L39.9,267.208a8.54,8.54,0,0,0-.276,2.208,2.525,2.525,0,0,0,.656,1.966,3.231,3.231,0,0,0,2.173.586,5.25,5.25,0,0,0,3.726-1.69,9.655,9.655,0,0,0,2.484-4.381h2.9Q49,273.349,45,276.005a14.286,14.286,0,0,1-7.935,2.657A7.163,7.163,0,0,1,31.72,276.591ZM37.9,238.434a5.251,5.251,0,0,1-1.588-3.863,5.366,5.366,0,0,1,1.588-3.9,5.2,5.2,0,0,1,3.863-1.622,5.536,5.536,0,0,1,5.52,5.521,5.205,5.205,0,0,1-1.621,3.863,5.368,5.368,0,0,1-3.9,1.588A5.248,5.248,0,0,1,37.9,238.434Z" fill="#3cafce"/>
      <path id="Path_16694" data-name="Path 16694" d="M67.082,276.454a9.058,9.058,0,0,1-1.656-5.589,17.873,17.873,0,0,1,.345-3.278q.345-1.827.725-3.553t.517-2.208q.552-2.415,1.035-4.761a19.738,19.738,0,0,0,.483-3.795q0-3.521-2.484-3.52a3.988,3.988,0,0,0-3.174,1.76,13.548,13.548,0,0,0-2.208,4.588l-4.692,22.15H46.037l7.314-34.5h9.936l-.759,3.587a10.525,10.525,0,0,1,8.073-3.864A7.869,7.869,0,0,1,76.19,245.4q2.07,1.932,2.07,5.865a23.184,23.184,0,0,1-.483,4.45q-.483,2.449-1.38,5.969-.554,2.139-1,4.174a15.874,15.874,0,0,0-.448,3.209,3.286,3.286,0,0,0,.621,2.138,2.622,2.622,0,0,0,2.139.759,4.4,4.4,0,0,0,2.277-.414,7.879,7.879,0,0,1-2.518,5.314,7.559,7.559,0,0,1-5.072,1.794Q68.738,278.662,67.082,276.454Z" fill="#3cafce"/>
      <path id="Path_16695" data-name="Path 16695" d="M96.683,275.97q-2.622-2.691-2.622-8.418A31.546,31.546,0,0,1,96.1,256.823a24.713,24.713,0,0,1,6.072-9.522,13.378,13.378,0,0,1,9.625-3.9,7.39,7.39,0,0,1,4.209.966,2.977,2.977,0,0,1,1.38,2.552v.484l.76-3.657h9.935l-4.967,23.46a8.5,8.5,0,0,0-.277,2.208,2.529,2.529,0,0,0,.656,1.966,3.23,3.23,0,0,0,2.174.586,3.463,3.463,0,0,0,1.518-.275,19.027,19.027,0,0,1-2.9,5.416,5.074,5.074,0,0,1-4,1.553,6.342,6.342,0,0,1-4.588-1.691,7.77,7.77,0,0,1-2.173-4.726q-4.21,6.417-10.282,6.417A8.775,8.775,0,0,1,96.683,275.97Zm14.455-5.623a8.5,8.5,0,0,0,2.312-4.45l3.312-15.6a2.807,2.807,0,0,0-.691-1.759,2.574,2.574,0,0,0-2.138-.863q-2.761,0-4.969,3.209a25.389,25.389,0,0,0-3.449,7.728,30.574,30.574,0,0,0-1.243,7.969q0,3.451,1,4.416a3.387,3.387,0,0,0,2.45.966A4.983,4.983,0,0,0,111.138,270.347Z" fill="#3cafce"/>
      <path id="Path_16696" data-name="Path 16696" d="M160.886,276.419a8.122,8.122,0,0,1-1.967-5.554,17.708,17.708,0,0,1,.346-3.278q.344-1.827.724-3.553t.517-2.208q.552-2.415,1.035-4.761a19.819,19.819,0,0,0,.483-3.795q0-3.521-2.484-3.52a3.988,3.988,0,0,0-3.174,1.76,13.53,13.53,0,0,0-2.208,4.588l-4.691,22.15H139.53l7.315-34.5h9.935l-.759,3.587a10.526,10.526,0,0,1,8.074-3.864,7.871,7.871,0,0,1,5.589,1.933q2.068,1.932,2.069,5.865a23.257,23.257,0,0,1-.482,4.45q-.484,2.449-1.38,5.969-.555,2.139-1,4.174a15.816,15.816,0,0,0-.449,3.209,3.286,3.286,0,0,0,.621,2.138,2.623,2.623,0,0,0,2.139.759,4.1,4.1,0,0,0,3.313-1.483A17.4,17.4,0,0,0,177,265.9h2.9q-2.555,7.592-5.9,10.177a11.216,11.216,0,0,1-6.934,2.588Q162.852,278.662,160.886,276.419Z" fill="#3cafce"/>
      <path id="Path_16697" data-name="Path 16697" d="M178.929,276.005q-2.83-2.655-2.829-8.314a34.15,34.15,0,0,1,1.863-10.488,24.345,24.345,0,0,1,6.072-9.9,14.552,14.552,0,0,1,10.695-4.175q7.59,0,7.59,6.624a12.363,12.363,0,0,1-2.208,7.108,16.288,16.288,0,0,1-5.865,5.209,18.923,18.923,0,0,1-7.8,2.242q-.14,2.072-.138,2.761,0,3.381,1.173,4.588a5.11,5.11,0,0,0,3.795,1.208,11.452,11.452,0,0,0,6.382-1.726,30.856,30.856,0,0,0,5.831-5.243h2.346q-7.659,12.766-18.975,12.765Q181.757,278.662,178.929,276.005Zm12.937-16.8a12.659,12.659,0,0,0,3.727-4.209,10.952,10.952,0,0,0,1.414-5.382q0-2.829-1.725-2.829-2.484,0-4.864,4.346A33.124,33.124,0,0,0,187,261,9.105,9.105,0,0,0,191.866,259.2Z" fill="#3cafce"/>
      <path id="Path_16698" data-name="Path 16698" d="M204.976,276.591q-2.037-2.07-2.036-6.21a24.01,24.01,0,0,1,.552-4.484l4.693-22.149h9.935l-4.968,23.46a7.128,7.128,0,0,0-.207,1.724q0,3.039,2.071,3.036a4.211,4.211,0,0,0,3.311-1.621,12,12,0,0,0,2.208-4.45l4.693-22.149h9.935l-4.968,23.46a14.453,14.453,0,0,0-.344,2.484,2.043,2.043,0,0,0,2.345,2.276q3.174,0,5.9-4a34.374,34.374,0,0,0,4.382-9.521,33.973,33.973,0,0,0,1.655-9.523c-.093.231-.391.4-.9.518a6.056,6.056,0,0,1-1.311.173,2.029,2.029,0,0,1-1.828-1.105,4.63,4.63,0,0,1-.656-2.415,3.572,3.572,0,0,1,1.07-2.69,4.442,4.442,0,0,1,3.208-1.035,3.592,3.592,0,0,1,3.312,1.69,8.15,8.15,0,0,1,1.035,4.313,45.991,45.991,0,0,1-2.139,13.282,31.628,31.628,0,0,1-6.555,12.041,14.089,14.089,0,0,1-10.971,4.968,9.65,9.65,0,0,1-5.52-1.45,6.687,6.687,0,0,1-2.76-4.346q-3.864,5.8-9.8,5.8A7.163,7.163,0,0,1,204.976,276.591Z" fill="#3cafce"/>
      <path id="Path_16699" data-name="Path 16699" d="M266.005,276.005q-2.83-2.655-2.829-8.314a34.15,34.15,0,0,1,1.863-10.488,24.345,24.345,0,0,1,6.072-9.9,14.553,14.553,0,0,1,10.7-4.175q7.588,0,7.589,6.624a12.363,12.363,0,0,1-2.208,7.108,16.288,16.288,0,0,1-5.865,5.209,18.923,18.923,0,0,1-7.8,2.242q-.138,2.072-.137,2.761,0,3.381,1.173,4.588a5.106,5.106,0,0,0,3.794,1.208,11.452,11.452,0,0,0,6.382-1.726,30.856,30.856,0,0,0,5.831-5.243h2.346q-7.658,12.766-18.975,12.765Q268.833,278.662,266.005,276.005Zm12.937-16.8a12.648,12.648,0,0,0,3.727-4.209,10.952,10.952,0,0,0,1.414-5.382q0-2.829-1.725-2.829-2.484,0-4.864,4.346A33.153,33.153,0,0,0,274.078,261,9.1,9.1,0,0,0,278.942,259.2Z" fill="#3cafce"/>
      <path id="Path_16700" data-name="Path 16700" d="M326.345,276.419a8.122,8.122,0,0,1-1.967-5.554,17.708,17.708,0,0,1,.346-3.278q.344-1.827.724-3.553t.518-2.208q.551-2.415,1.034-4.761a19.817,19.817,0,0,0,.483-3.795q0-3.521-2.484-3.52a3.988,3.988,0,0,0-3.174,1.76,13.529,13.529,0,0,0-2.208,4.588l-4.691,22.15h-9.937l5.037-23.8a7.1,7.1,0,0,0,.207-1.726q0-3.034-2.07-3.036a4.193,4.193,0,0,0-3.347,1.76,13.13,13.13,0,0,0-2.242,4.657l-4.691,22.15h-9.937l7.315-34.5H305.2l-.759,3.587a10.92,10.92,0,0,1,8.418-3.932q6.07,0,7.107,5.933,3.793-5.863,9.592-5.865a7.871,7.871,0,0,1,5.589,1.933q2.068,1.932,2.069,5.865a23.184,23.184,0,0,1-.483,4.45q-.483,2.449-1.379,5.969-.555,2.139-1,4.174a15.818,15.818,0,0,0-.449,3.209,3.286,3.286,0,0,0,.621,2.138,2.623,2.623,0,0,0,2.139.759,4.1,4.1,0,0,0,3.313-1.483,17.4,17.4,0,0,0,2.483-4.588h2.9q-2.553,7.592-5.9,10.177a11.214,11.214,0,0,1-6.934,2.588Q328.31,278.662,326.345,276.419Z" fill="#3cafce"/>
      <path id="Path_16701" data-name="Path 16701" d="M347.7,241.2h9.936l-1.1,5.175a11.994,11.994,0,0,1,8.073-2.967,7.816,7.816,0,0,1,6.141,2.553q2.277,2.553,2.277,8.348a39.91,39.91,0,0,1-1.587,11.006,21.958,21.958,0,0,1-5.382,9.453,13.329,13.329,0,0,1-10.005,3.9q-4.417,0-5.865-2.485L346.6,293.013,336.178,295.5Zm11.7,28.358a21.083,21.083,0,0,0,3.174-7.417,35.745,35.745,0,0,0,1-8.039q0-5.726-3.45-5.726a4.378,4.378,0,0,0-2.518.9,8.164,8.164,0,0,0-2.243,2.484l-4.071,19.321a2.448,2.448,0,0,0,2.622,1.587A6.484,6.484,0,0,0,359.4,269.553Z" fill="#3cafce"/>
      <path id="Path_16702" data-name="Path 16702" d="M376.231,276.591q-2.035-2.07-2.035-6.21a24.012,24.012,0,0,1,.552-4.484l7.383-34.569,10.212-1.38-7.935,37.26a8.54,8.54,0,0,0-.276,2.208,2.529,2.529,0,0,0,.655,1.966,3.236,3.236,0,0,0,2.174.586,5.25,5.25,0,0,0,3.726-1.69,9.674,9.674,0,0,0,2.484-4.381h2.9q-2.555,7.452-6.555,10.108a14.286,14.286,0,0,1-7.935,2.657A7.167,7.167,0,0,1,376.231,276.591Z" fill="#3cafce"/>
      <path id="Path_16703" data-name="Path 16703" d="M395.172,275.9q-2.969-2.622-2.967-8.28a32.922,32.922,0,0,1,1.932-10.419,24.618,24.618,0,0,1,6.21-9.9,14.785,14.785,0,0,1,10.764-4.175q8.832,0,8.832,11.041v.069a2.783,2.783,0,0,0,.759.068,14.168,14.168,0,0,0,5.244-1.207,26.271,26.271,0,0,0,5.382-2.932l.621,1.863a16.511,16.511,0,0,1-5.21,3.622,26.936,26.936,0,0,1-7,2.1,31.253,31.253,0,0,1-2.829,10.971,18.616,18.616,0,0,1-5.865,7.245,13.172,13.172,0,0,1-7.8,2.554A11.755,11.755,0,0,1,395.172,275.9Zm14.145-5.485a17,17,0,0,0,2.9-5.176,33.365,33.365,0,0,0,1.794-7.28q-1.863-.412-1.863-2.9,0-2.829,2.139-3.727a7.117,7.117,0,0,0-.69-3.139,2.117,2.117,0,0,0-1.932-.863q-2.277,0-4.416,3.313a29.223,29.223,0,0,0-3.45,7.935,30.341,30.341,0,0,0-1.311,8.141q0,3.312.759,4.451a3.074,3.074,0,0,0,2.76,1.139A4.568,4.568,0,0,0,409.317,270.417Z" fill="#3cafce"/>
      <path id="Path_16704" data-name="Path 16704" d="M428.7,293.773A5.929,5.929,0,0,1,426.5,288.8a7.507,7.507,0,0,1,3.174-6.313,27.518,27.518,0,0,1,8.073-3.967l.828-3.727a10.585,10.585,0,0,1-8.28,3.865,7.167,7.167,0,0,1-5.348-2.071q-2.035-2.07-2.035-6.21a24.01,24.01,0,0,1,.552-4.484l4.692-22.149h9.936l-4.968,23.46a7.078,7.078,0,0,0-.207,1.724q0,3.039,2.07,3.036a4.153,4.153,0,0,0,3.174-1.551,11.43,11.43,0,0,0,2.208-4.106l4.83-22.563h9.936L448.3,275.763a12.2,12.2,0,0,0,5.313-3.311,17.77,17.77,0,0,0,3.381-6.555h2.9q-1.863,6.143-5.038,9a16.891,16.891,0,0,1-7.175,3.9l-1.035,4.968q-1.38,6.693-4.761,9.212a12.5,12.5,0,0,1-7.659,2.519A8.706,8.706,0,0,1,428.7,293.773Zm6.21-5.244a12.593,12.593,0,0,0,1.725-4.555l.414-2q-6.763,2.484-6.762,5.865a2.3,2.3,0,0,0,.621,1.587,2.2,2.2,0,0,0,1.725.691A2.982,2.982,0,0,0,434.915,288.529Z" fill="#3cafce"/>
      <path id="Path_16705" data-name="Path 16705" d="M492.771,276.419a8.126,8.126,0,0,1-1.966-5.554,17.787,17.787,0,0,1,.345-3.278q.345-1.827.725-3.553t.518-2.208q.551-2.415,1.034-4.761a19.82,19.82,0,0,0,.483-3.795q0-3.521-2.484-3.52a3.987,3.987,0,0,0-3.174,1.76,13.529,13.529,0,0,0-2.208,4.588l-4.691,22.15h-9.937l5.037-23.8a7.1,7.1,0,0,0,.207-1.726q0-3.034-2.07-3.036a4.193,4.193,0,0,0-3.347,1.76A13.13,13.13,0,0,0,469,256.1l-4.691,22.15h-9.937l7.314-34.5h9.936l-.759,3.587a10.92,10.92,0,0,1,8.418-3.932q6.07,0,7.107,5.933,3.793-5.863,9.591-5.865a7.869,7.869,0,0,1,5.589,1.933q2.07,1.932,2.07,5.865a23.184,23.184,0,0,1-.483,4.45q-.483,2.449-1.38,5.969-.553,2.139-1,4.174a15.875,15.875,0,0,0-.448,3.209,3.286,3.286,0,0,0,.621,2.138,2.622,2.622,0,0,0,2.139.759,4.1,4.1,0,0,0,3.312-1.483,17.37,17.37,0,0,0,2.484-4.588h2.9q-2.553,7.592-5.9,10.177a11.217,11.217,0,0,1-6.935,2.588Q494.738,278.662,492.771,276.419Z" fill="#3cafce"/>
      <path id="Path_16706" data-name="Path 16706" d="M510.814,276.005q-2.829-2.655-2.829-8.314a34.123,34.123,0,0,1,1.864-10.488,24.334,24.334,0,0,1,6.072-9.9,14.552,14.552,0,0,1,10.7-4.175q7.59,0,7.59,6.624A12.363,12.363,0,0,1,532,256.858a16.3,16.3,0,0,1-5.865,5.209,18.927,18.927,0,0,1-7.8,2.242q-.14,2.072-.138,2.761,0,3.381,1.173,4.588a5.108,5.108,0,0,0,3.8,1.208,11.456,11.456,0,0,0,6.382-1.726,30.887,30.887,0,0,0,5.831-5.243h2.346q-7.659,12.766-18.975,12.765Q513.642,278.662,510.814,276.005Zm12.938-16.8a12.659,12.659,0,0,0,3.727-4.209,10.952,10.952,0,0,0,1.414-5.382q0-2.829-1.725-2.829-2.484,0-4.864,4.346A33.123,33.123,0,0,0,518.888,261,9.105,9.105,0,0,0,523.752,259.2Z" fill="#3cafce"/>
      <path id="Path_16707" data-name="Path 16707" d="M554.111,276.419a8.126,8.126,0,0,1-1.966-5.554,17.784,17.784,0,0,1,.345-3.278q.345-1.827.725-3.553t.516-2.208q.553-2.415,1.036-4.761a19.819,19.819,0,0,0,.483-3.795q0-3.521-2.484-3.52a3.987,3.987,0,0,0-3.174,1.76,13.531,13.531,0,0,0-2.208,4.588l-4.692,22.15h-9.936l7.314-34.5h9.936l-.759,3.587a10.524,10.524,0,0,1,8.073-3.864,7.869,7.869,0,0,1,5.589,1.933q2.07,1.932,2.07,5.865a23.26,23.26,0,0,1-.483,4.45q-.483,2.449-1.38,5.969-.554,2.139-1,4.174a15.8,15.8,0,0,0-.448,3.209,3.286,3.286,0,0,0,.621,2.138,2.622,2.622,0,0,0,2.139.759,4.1,4.1,0,0,0,3.312-1.483,17.4,17.4,0,0,0,2.484-4.588h2.9q-2.553,7.592-5.9,10.177a11.219,11.219,0,0,1-6.935,2.588Q556.076,278.662,554.111,276.419Z" fill="#3cafce"/>
      <path id="Path_16708" data-name="Path 16708" d="M571.5,276.523a8.86,8.86,0,0,1-1.69-5.658,16.759,16.759,0,0,1,.414-3.657l4.416-20.7H572.36l.553-2.759h2.276l2.071-9.523,10.212-1.38q-.621,2.623-.691,3.106-.483,1.932-1.655,7.8h4.14l-.552,2.759h-4.141l-4.416,20.7a11.545,11.545,0,0,0-.345,2.415,2.166,2.166,0,0,0,2.416,2.484,5.565,5.565,0,0,0,1.793-.207q-1.38,4-3.243,5.382a6.682,6.682,0,0,1-4.07,1.38A6.234,6.234,0,0,1,571.5,276.523Z" fill="#3cafce"/>
      <path id="Path_16709" data-name="Path 16709" d="M592.507,293.773A5.934,5.934,0,0,1,590.3,288.8q0-6.693,11.316-10.28L609,243.748h9.937L612.1,275.763a12.19,12.19,0,0,0,5.312-3.311A17.74,17.74,0,0,0,620.8,265.9h2.9q-1.863,6.143-5.037,9a16.9,16.9,0,0,1-7.176,3.9l-1.035,4.968q-1.382,6.693-4.76,9.212a12.5,12.5,0,0,1-7.66,2.519A8.707,8.707,0,0,1,592.507,293.773Zm6.211-5.244a12.576,12.576,0,0,0,1.724-4.555l.414-2q-6.761,2.484-6.761,5.865a2.306,2.306,0,0,0,.62,1.587,2.2,2.2,0,0,0,1.725.691A2.982,2.982,0,0,0,598.718,288.529Zm12.627-50.163a5.253,5.253,0,0,1-1.588-3.865,5.367,5.367,0,0,1,1.588-3.9,5.2,5.2,0,0,1,3.863-1.621,5.538,5.538,0,0,1,5.521,5.519,5.2,5.2,0,0,1-1.623,3.865,5.371,5.371,0,0,1-3.9,1.587A5.255,5.255,0,0,1,611.345,238.366Z" fill="#3cafce"/>
      <path id="Path_16710" data-name="Path 16710" d="M622.8,275.9q-2.969-2.622-2.967-8.28a32.922,32.922,0,0,1,1.932-10.419,24.618,24.618,0,0,1,6.21-9.9,14.785,14.785,0,0,1,10.764-4.175q8.832,0,8.832,11.041v.069a2.783,2.783,0,0,0,.759.068,14.168,14.168,0,0,0,5.244-1.207,26.27,26.27,0,0,0,5.382-2.932l.621,1.863a16.511,16.511,0,0,1-5.21,3.622,26.935,26.935,0,0,1-7,2.1,31.253,31.253,0,0,1-2.829,10.971,18.616,18.616,0,0,1-5.865,7.245,13.172,13.172,0,0,1-7.8,2.554A11.755,11.755,0,0,1,622.8,275.9Zm14.145-5.485a17,17,0,0,0,2.9-5.176,33.364,33.364,0,0,0,1.794-7.28q-1.863-.412-1.864-2.9,0-2.829,2.14-3.727a7.118,7.118,0,0,0-.69-3.139,2.117,2.117,0,0,0-1.932-.863q-2.277,0-4.416,3.313a29.224,29.224,0,0,0-3.45,7.935,30.342,30.342,0,0,0-1.311,8.141q0,3.312.759,4.451a3.074,3.074,0,0,0,2.76,1.139A4.568,4.568,0,0,0,636.943,270.417Z" fill="#3cafce"/>
      <path id="Path_16711" data-name="Path 16711" d="M652.571,276.591q-2.035-2.07-2.035-6.21a24.01,24.01,0,0,1,.552-4.484l4.692-22.149h9.936l-4.968,23.46a9.883,9.883,0,0,0-.207,1.931q0,2.83,2.07,2.829a4.213,4.213,0,0,0,3.312-1.621,12,12,0,0,0,2.208-4.45l4.692-22.149h9.936l-4.968,23.46a8.5,8.5,0,0,0-.276,2.208,2.525,2.525,0,0,0,.655,1.966,3.234,3.234,0,0,0,2.174.586,4.276,4.276,0,0,0,3.346-1.655,12.066,12.066,0,0,0,2.243-4.416h2.9q-2.553,7.452-6.313,10.108a13.019,13.019,0,0,1-7.556,2.657,6.612,6.612,0,0,1-4.727-1.657,7.561,7.561,0,0,1-2.1-4.9,13.95,13.95,0,0,1-4.934,5.175,11.082,11.082,0,0,1-5.278,1.38A7.167,7.167,0,0,1,652.571,276.591Z" fill="#3cafce"/>
      <path id="Path_16712" data-name="Path 16712" d="M690.624,243.748h9.936l-.9,4.278a27.683,27.683,0,0,1,4.243-3.175,8.042,8.042,0,0,1,4.106-1.1,4.314,4.314,0,0,1,3.484,1.517,5.5,5.5,0,0,1,1.276,3.657,5.226,5.226,0,0,1-1.31,3.52,4.576,4.576,0,0,1-3.657,1.517,2.363,2.363,0,0,1-2.035-.724,5.477,5.477,0,0,1-.794-2.1,6.406,6.406,0,0,0-.414-1.31.77.77,0,0,0-.759-.414,4.774,4.774,0,0,0-2.449.586,16.749,16.749,0,0,0-2.588,2.036l-5.52,26.22H683.31Z" fill="#3cafce"/>
      <path id="Path_16713" data-name="Path 16713" d="M730.608,276.419a8.126,8.126,0,0,1-1.966-5.554,17.784,17.784,0,0,1,.345-3.278q.345-1.827.725-3.553t.517-2.208q.552-2.415,1.035-4.761a19.815,19.815,0,0,0,.483-3.795q0-3.521-2.484-3.52a3.987,3.987,0,0,0-3.174,1.76,13.531,13.531,0,0,0-2.208,4.588l-4.692,22.15h-9.936l7.314-34.5H726.5l-.759,3.587a10.524,10.524,0,0,1,8.073-3.864,7.869,7.869,0,0,1,5.589,1.933q2.07,1.932,2.07,5.865a23.26,23.26,0,0,1-.483,4.45q-.483,2.449-1.38,5.969-.553,2.139-1,4.174a15.8,15.8,0,0,0-.448,3.209,3.286,3.286,0,0,0,.621,2.138,2.622,2.622,0,0,0,2.139.759,4.1,4.1,0,0,0,3.312-1.483,17.4,17.4,0,0,0,2.484-4.588h2.9q-2.553,7.592-5.9,10.177a11.219,11.219,0,0,1-6.935,2.588Q732.575,278.662,730.608,276.419Z" fill="#3cafce"/>
      <path id="Path_16714" data-name="Path 16714" d="M748.651,276.005q-2.829-2.655-2.829-8.314a34.124,34.124,0,0,1,1.864-10.488,24.334,24.334,0,0,1,6.072-9.9,14.551,14.551,0,0,1,10.7-4.175q7.59,0,7.59,6.624a12.363,12.363,0,0,1-2.208,7.108,16.3,16.3,0,0,1-5.865,5.209,18.927,18.927,0,0,1-7.8,2.242q-.139,2.072-.138,2.761,0,3.381,1.173,4.588A5.108,5.108,0,0,0,761,272.866a11.456,11.456,0,0,0,6.382-1.726,30.887,30.887,0,0,0,5.831-5.243h2.346q-7.659,12.766-18.975,12.765Q751.48,278.662,748.651,276.005Zm12.938-16.8a12.645,12.645,0,0,0,3.726-4.209,10.942,10.942,0,0,0,1.414-5.382q0-2.829-1.724-2.829-2.484,0-4.864,4.346A33.125,33.125,0,0,0,756.725,261,9.1,9.1,0,0,0,761.589,259.2Z" fill="#3cafce"/>
      <path id="Path_16715" data-name="Path 16715" d="M778.286,293.393a6.741,6.741,0,0,1-2.449-5.348,7.8,7.8,0,0,1,1.517-4.967,10.388,10.388,0,0,1,3.934-3.036,53.976,53.976,0,0,1,6.485-2.346l.691-3.036a10.846,10.846,0,0,1-8.418,4,7.167,7.167,0,0,1-5.348-2.071q-2.035-2.07-2.035-6.21a24.01,24.01,0,0,1,.552-4.484l4.692-22.149h9.936l-4.968,23.46a7.078,7.078,0,0,0-.207,1.724q0,3.039,2.07,3.036a4.213,4.213,0,0,0,3.312-1.621,12,12,0,0,0,2.208-4.45l4.692-22.149h10.005l-8.418,40.019q-1.381,6.624-4.865,9.178a12.73,12.73,0,0,1-7.693,2.553A8.474,8.474,0,0,1,778.286,293.393Zm6.452-5.313a9.444,9.444,0,0,0,1.725-4.106l.828-4.07a17.967,17.967,0,0,0-5.658,2.9,5.3,5.3,0,0,0-2,4.279,2.071,2.071,0,0,0,.828,1.552,2.841,2.841,0,0,0,1.932.725A3.13,3.13,0,0,0,784.738,288.08Z" fill="#3cafce"/>
    </g>
    <g id="Group_6595" data-name="Group 6595" style="isolation: isolate">
      <path id="Path_16716" data-name="Path 16716" d="M-154.3,286.738a70.954,70.954,0,0,1-7.625-5.416q-3.451-2.762-5.9-4.451a28.135,28.135,0,0,0-5.313-2.864,15.258,15.258,0,0,0-5.831-1.173,13.457,13.457,0,0,0-1.587.07l10.282-47.818a14.987,14.987,0,0,0-7.142,5.693,16.639,16.639,0,0,0-2.519,9.349,9.046,9.046,0,0,0,.483,3.554,5.99,5.99,0,0,1,.483,1.139q-3.726,0-5.554-1.553t-1.829-5.141a13.049,13.049,0,0,1,3.623-8.59,26.852,26.852,0,0,1,9.28-6.762,27.009,27.009,0,0,1,11.316-2.587q.966,0,2.76.138L-170,269.868a22.939,22.939,0,0,1,3.968,1.414q2.034.932,4.933,2.518a78.5,78.5,0,0,0,7.659,3.692,17.61,17.61,0,0,0,6.624,1.277,15.14,15.14,0,0,0,5.8-1.1,18.072,18.072,0,0,1-2.449,7.934,5.548,5.548,0,0,1-4.727,2.9A11.948,11.948,0,0,1-154.3,286.738Z" fill="#125562"/>
      <path id="Path_16717" data-name="Path 16717" d="M-158.68,269.005q-2.829-2.655-2.829-8.314a34.15,34.15,0,0,1,1.863-10.488,24.345,24.345,0,0,1,6.072-9.9,14.552,14.552,0,0,1,10.7-4.175q7.59,0,7.59,6.624a12.363,12.363,0,0,1-2.208,7.108,16.3,16.3,0,0,1-5.865,5.209,18.923,18.923,0,0,1-7.8,2.242q-.138,2.072-.138,2.761,0,3.381,1.173,4.588a5.11,5.11,0,0,0,3.795,1.208,11.46,11.46,0,0,0,6.383-1.726,30.885,30.885,0,0,0,5.83-5.243h2.346q-7.659,12.766-18.975,12.765Q-155.851,271.662-158.68,269.005Zm12.938-16.8a12.656,12.656,0,0,0,3.726-4.209,10.952,10.952,0,0,0,1.414-5.382q0-2.829-1.725-2.829-2.484,0-4.864,4.346A33.124,33.124,0,0,0-150.607,254,9.111,9.111,0,0,0-145.742,252.2Z" fill="#125562"/>
      <path id="Path_16718" data-name="Path 16718" d="M-132.84,269.523a8.861,8.861,0,0,1-1.691-5.658,16.819,16.819,0,0,1,.414-3.657l4.416-20.7h-2.277l.552-2.759h2.277l2.07-9.523,10.212-1.38q-.621,2.623-.69,3.106-.483,1.932-1.656,7.8h4.14l-.552,2.759h-4.14l-4.416,20.7a11.477,11.477,0,0,0-.345,2.415,2.166,2.166,0,0,0,2.415,2.484,5.577,5.577,0,0,0,1.794-.207q-1.38,4-3.243,5.382a6.686,6.686,0,0,1-4.071,1.38A6.233,6.233,0,0,1-132.84,269.523Z" fill="#125562"/>
      <path id="Path_16719" data-name="Path 16719" d="M-108.45,234.747a18.521,18.521,0,0,0,2.277-2.83,4.355,4.355,0,0,0,.828-2.138,1.471,1.471,0,0,0-.31-.9,5.049,5.049,0,0,0-.932-.9A6.948,6.948,0,0,1-108.1,226.4a3.91,3.91,0,0,1-.553-2.208,4.784,4.784,0,0,1,1.311-3.485,4.426,4.426,0,0,1,3.312-1.345,4.715,4.715,0,0,1,3.485,1.345A4.716,4.716,0,0,1-99.2,224.19a10.557,10.557,0,0,1-2.242,5.9,22.157,22.157,0,0,1-5.969,5.693Z" fill="#125562"/>
      <path id="Path_16720" data-name="Path 16720" d="M-96.375,270.385a8.367,8.367,0,0,1-3.381-3.312,8.782,8.782,0,0,1-1.1-4.243,7.275,7.275,0,0,1,1.069-3.968,6.563,6.563,0,0,1,2.588-2.449,88.255,88.255,0,0,0,4.692-9.764q2-4.932,3.795-10.66l10.212-1.38q.343,8.834,1.172,19.112.345,4.142.346,6a10.755,10.755,0,0,1-2.139,6.9,12.025,12.025,0,0,1-5.279,3.864,18.134,18.134,0,0,1-6.382,1.173A11.272,11.272,0,0,1-96.375,270.385Zm7.659-5.692q1.724-1.518,1.725-4.9A56.079,56.079,0,0,0-87.4,254q-.691-7.867-.9-10.557a79.93,79.93,0,0,1-5.589,13.041A2.61,2.61,0,0,1-92.3,258.9a3.568,3.568,0,0,1-.863,2.346,2.716,2.716,0,0,1-2.173,1.035,1.832,1.832,0,0,1-1.863-.9,5.558,5.558,0,0,0,1,3.658,4,4,0,0,0,3.209,1.172A6.245,6.245,0,0,0-88.716,264.693Z" fill="#125562"/>
      <path id="Path_16721" data-name="Path 16721" d="M-59.875,269.35a8.467,8.467,0,0,1-2.484-6.52,15.656,15.656,0,0,1,.483-3.933l7.383-34.569,10.212-1.38-3.312,15.524a15.026,15.026,0,0,1,3.174-1.552,8.461,8.461,0,0,1,2.484-.379q8.141,0,8.142,11.8a31.893,31.893,0,0,1-1.829,10.178,21.771,21.771,0,0,1-6.071,9.28A15.705,15.705,0,0,1-52.7,271.662Q-57.392,271.662-59.875,269.35Zm15.042-7.038a21.527,21.527,0,0,0,2.967-6.624,28.456,28.456,0,0,0,1.1-7.624,10.406,10.406,0,0,0-.966-4.692,2.967,2.967,0,0,0-2.691-1.932,9.855,9.855,0,0,0-2.311.31,3.1,3.1,0,0,0-1.76.931l-3.795,17.527a6.534,6.534,0,0,0-.207,1.586q0,3.176,3.657,3.174Q-46.7,264.968-44.833,262.312Z" fill="#125562"/>
      <path id="Path_16722" data-name="Path 16722" d="M-29.309,269.005q-2.83-2.655-2.829-8.314A34.15,34.15,0,0,1-30.275,250.2a24.334,24.334,0,0,1,6.072-9.9,14.551,14.551,0,0,1,10.695-4.175q7.589,0,7.59,6.624a12.37,12.37,0,0,1-2.208,7.108,16.3,16.3,0,0,1-5.865,5.209,18.927,18.927,0,0,1-7.8,2.242q-.14,2.072-.138,2.761,0,3.381,1.173,4.588a5.108,5.108,0,0,0,3.8,1.208,11.454,11.454,0,0,0,6.382-1.726A30.887,30.887,0,0,0-4.745,258.9H-2.4q-7.659,12.766-18.975,12.765Q-26.481,271.662-29.309,269.005Zm12.937-16.8a12.645,12.645,0,0,0,3.726-4.209,10.953,10.953,0,0,0,1.415-5.382q0-2.829-1.725-2.829-2.484,0-4.865,4.346A33.123,33.123,0,0,0-21.236,254,9.108,9.108,0,0,0-16.372,252.2Z" fill="#125562"/>
      <path id="Path_16723" data-name="Path 16723" d="M1.947,286.773A5.929,5.929,0,0,1-.261,281.8a7.5,7.5,0,0,1,3.174-6.313,27.505,27.505,0,0,1,8.073-3.967l.828-3.657a10.945,10.945,0,0,1-8.28,3.795,8.777,8.777,0,0,1-6.555-2.692q-2.622-2.691-2.622-8.418a31.524,31.524,0,0,1,2.036-10.729A24.711,24.711,0,0,1,2.464,240.3a13.38,13.38,0,0,1,9.626-3.9,7.392,7.392,0,0,1,4.209.966,2.977,2.977,0,0,1,1.38,2.552v.414l.759-3.587h9.936l-6.831,32.015a12.2,12.2,0,0,0,5.313-3.311,17.77,17.77,0,0,0,3.381-6.555h2.9q-1.863,6.143-5.037,9a16.906,16.906,0,0,1-7.176,3.9l-1.035,4.968q-1.381,6.693-4.761,9.212A12.5,12.5,0,0,1,7.467,288.5,8.7,8.7,0,0,1,1.947,286.773Zm6.21-5.244a12.593,12.593,0,0,0,1.725-4.555l.414-2q-6.763,2.484-6.762,5.865a2.3,2.3,0,0,0,.621,1.587,2.2,2.2,0,0,0,1.725.691A2.983,2.983,0,0,0,8.157,281.529Zm3.105-18.009a7.469,7.469,0,0,0,2.277-3.934l3.519-16.352a2.733,2.733,0,0,0-.69-1.691,2.575,2.575,0,0,0-2.139-.863q-2.76,0-4.968,3.209a25.389,25.389,0,0,0-3.45,7.728,30.568,30.568,0,0,0-1.242,7.969q0,3.451,1,4.416a3.39,3.39,0,0,0,2.45.966A4.994,4.994,0,0,0,11.262,263.52Z" fill="#125562"/>
      <path id="Path_16724" data-name="Path 16724" d="M31.72,269.591q-2.037-2.07-2.035-6.21a24,24,0,0,1,.551-4.484l4.692-22.149h9.936L39.9,260.208a8.54,8.54,0,0,0-.276,2.208,2.525,2.525,0,0,0,.656,1.966,3.231,3.231,0,0,0,2.173.586,5.25,5.25,0,0,0,3.726-1.69,9.655,9.655,0,0,0,2.484-4.381h2.9Q49,266.349,45,269.005a14.286,14.286,0,0,1-7.935,2.657A7.163,7.163,0,0,1,31.72,269.591ZM37.9,231.434a5.251,5.251,0,0,1-1.588-3.863,5.366,5.366,0,0,1,1.588-3.9,5.2,5.2,0,0,1,3.863-1.622,5.536,5.536,0,0,1,5.52,5.521,5.205,5.205,0,0,1-1.621,3.863,5.368,5.368,0,0,1-3.9,1.588A5.248,5.248,0,0,1,37.9,231.434Z" fill="#125562"/>
      <path id="Path_16725" data-name="Path 16725" d="M67.082,269.454a9.058,9.058,0,0,1-1.656-5.589,17.873,17.873,0,0,1,.345-3.278q.345-1.827.725-3.553t.517-2.208q.552-2.415,1.035-4.761a19.738,19.738,0,0,0,.483-3.795q0-3.521-2.484-3.52a3.988,3.988,0,0,0-3.174,1.76,13.548,13.548,0,0,0-2.208,4.588l-4.692,22.15H46.037l7.314-34.5h9.936l-.759,3.587a10.525,10.525,0,0,1,8.073-3.864A7.869,7.869,0,0,1,76.19,238.4q2.07,1.932,2.07,5.865a23.184,23.184,0,0,1-.483,4.45q-.483,2.45-1.38,5.969-.554,2.139-1,4.174a15.874,15.874,0,0,0-.448,3.209,3.286,3.286,0,0,0,.621,2.138,2.622,2.622,0,0,0,2.139.759,4.4,4.4,0,0,0,2.277-.414,7.879,7.879,0,0,1-2.518,5.314,7.559,7.559,0,0,1-5.072,1.794Q68.738,271.662,67.082,269.454Z" fill="#125562"/>
      <path id="Path_16726" data-name="Path 16726" d="M96.683,268.97q-2.622-2.691-2.622-8.418A31.546,31.546,0,0,1,96.1,249.823a24.713,24.713,0,0,1,6.072-9.522,13.378,13.378,0,0,1,9.625-3.9,7.39,7.39,0,0,1,4.209.966,2.977,2.977,0,0,1,1.38,2.552v.484l.76-3.657h9.935l-4.967,23.46a8.5,8.5,0,0,0-.277,2.208,2.529,2.529,0,0,0,.656,1.966,3.23,3.23,0,0,0,2.174.586,3.463,3.463,0,0,0,1.518-.275,19.027,19.027,0,0,1-2.9,5.416,5.074,5.074,0,0,1-4,1.553,6.342,6.342,0,0,1-4.588-1.691,7.77,7.77,0,0,1-2.173-4.726q-4.21,6.417-10.282,6.417A8.775,8.775,0,0,1,96.683,268.97Zm14.455-5.623a8.5,8.5,0,0,0,2.312-4.45l3.312-15.6a2.807,2.807,0,0,0-.691-1.759,2.574,2.574,0,0,0-2.138-.863q-2.761,0-4.969,3.209a25.389,25.389,0,0,0-3.449,7.728,30.574,30.574,0,0,0-1.243,7.969q0,3.451,1,4.416a3.387,3.387,0,0,0,2.45.966A4.983,4.983,0,0,0,111.138,263.347Z" fill="#125562"/>
      <path id="Path_16727" data-name="Path 16727" d="M160.886,269.419a8.122,8.122,0,0,1-1.967-5.554,17.708,17.708,0,0,1,.346-3.278q.344-1.827.724-3.553t.517-2.208q.552-2.415,1.035-4.761a19.819,19.819,0,0,0,.483-3.795q0-3.521-2.484-3.52a3.988,3.988,0,0,0-3.174,1.76,13.53,13.53,0,0,0-2.208,4.588l-4.691,22.15H139.53l7.315-34.5h9.935l-.759,3.587a10.526,10.526,0,0,1,8.074-3.864,7.871,7.871,0,0,1,5.589,1.933q2.068,1.932,2.069,5.865a23.257,23.257,0,0,1-.482,4.45q-.484,2.45-1.38,5.969-.555,2.139-1,4.174a15.816,15.816,0,0,0-.449,3.209,3.286,3.286,0,0,0,.621,2.138,2.623,2.623,0,0,0,2.139.759,4.1,4.1,0,0,0,3.313-1.483A17.4,17.4,0,0,0,177,258.9h2.9q-2.555,7.592-5.9,10.177a11.216,11.216,0,0,1-6.934,2.588Q162.852,271.662,160.886,269.419Z" fill="#125562"/>
      <path id="Path_16728" data-name="Path 16728" d="M178.929,269.005q-2.83-2.655-2.829-8.314a34.15,34.15,0,0,1,1.863-10.488,24.345,24.345,0,0,1,6.072-9.9,14.552,14.552,0,0,1,10.695-4.175q7.59,0,7.59,6.624a12.363,12.363,0,0,1-2.208,7.108,16.288,16.288,0,0,1-5.865,5.209,18.923,18.923,0,0,1-7.8,2.242q-.14,2.072-.138,2.761,0,3.381,1.173,4.588a5.11,5.11,0,0,0,3.795,1.208,11.452,11.452,0,0,0,6.382-1.726,30.856,30.856,0,0,0,5.831-5.243h2.346q-7.659,12.766-18.975,12.765Q181.757,271.662,178.929,269.005Zm12.937-16.8a12.659,12.659,0,0,0,3.727-4.209,10.952,10.952,0,0,0,1.414-5.382q0-2.829-1.725-2.829-2.484,0-4.864,4.346A33.124,33.124,0,0,0,187,254,9.105,9.105,0,0,0,191.866,252.2Z" fill="#125562"/>
      <path id="Path_16729" data-name="Path 16729" d="M204.976,269.591q-2.037-2.07-2.036-6.21a24.01,24.01,0,0,1,.552-4.484l4.693-22.149h9.935l-4.968,23.46a7.128,7.128,0,0,0-.207,1.724q0,3.039,2.071,3.036a4.211,4.211,0,0,0,3.311-1.621,12,12,0,0,0,2.208-4.45l4.693-22.149h9.935l-4.968,23.46a14.453,14.453,0,0,0-.344,2.484,2.043,2.043,0,0,0,2.345,2.276q3.174,0,5.9-4a34.374,34.374,0,0,0,4.382-9.521,33.973,33.973,0,0,0,1.655-9.523c-.093.231-.391.4-.9.518a6.056,6.056,0,0,1-1.311.173,2.029,2.029,0,0,1-1.828-1.105,4.63,4.63,0,0,1-.656-2.415,3.572,3.572,0,0,1,1.07-2.69,4.442,4.442,0,0,1,3.208-1.035,3.592,3.592,0,0,1,3.312,1.69,8.15,8.15,0,0,1,1.035,4.313,45.991,45.991,0,0,1-2.139,13.282,31.628,31.628,0,0,1-6.555,12.041,14.089,14.089,0,0,1-10.971,4.968,9.65,9.65,0,0,1-5.52-1.45,6.687,6.687,0,0,1-2.76-4.346q-3.864,5.8-9.8,5.8A7.163,7.163,0,0,1,204.976,269.591Z" fill="#125562"/>
      <path id="Path_16730" data-name="Path 16730" d="M266.005,269.005q-2.83-2.655-2.829-8.314a34.15,34.15,0,0,1,1.863-10.488,24.345,24.345,0,0,1,6.072-9.9,14.553,14.553,0,0,1,10.7-4.175q7.588,0,7.589,6.624a12.363,12.363,0,0,1-2.208,7.108,16.288,16.288,0,0,1-5.865,5.209,18.923,18.923,0,0,1-7.8,2.242q-.138,2.072-.137,2.761,0,3.381,1.173,4.588a5.106,5.106,0,0,0,3.794,1.208,11.452,11.452,0,0,0,6.382-1.726,30.856,30.856,0,0,0,5.831-5.243h2.346q-7.658,12.766-18.975,12.765Q268.833,271.662,266.005,269.005Zm12.937-16.8a12.648,12.648,0,0,0,3.727-4.209,10.952,10.952,0,0,0,1.414-5.382q0-2.829-1.725-2.829-2.484,0-4.864,4.346A33.153,33.153,0,0,0,274.078,254,9.105,9.105,0,0,0,278.942,252.2Z" fill="#125562"/>
      <path id="Path_16731" data-name="Path 16731" d="M326.345,269.419a8.122,8.122,0,0,1-1.967-5.554,17.708,17.708,0,0,1,.346-3.278q.344-1.827.724-3.553t.518-2.208q.551-2.415,1.034-4.761a19.817,19.817,0,0,0,.483-3.795q0-3.521-2.484-3.52a3.988,3.988,0,0,0-3.174,1.76,13.529,13.529,0,0,0-2.208,4.588l-4.691,22.15h-9.937l5.037-23.8a7.1,7.1,0,0,0,.207-1.726q0-3.034-2.07-3.036a4.193,4.193,0,0,0-3.347,1.76,13.13,13.13,0,0,0-2.242,4.657l-4.691,22.15h-9.937l7.315-34.5H305.2l-.759,3.587a10.92,10.92,0,0,1,8.418-3.932q6.07,0,7.107,5.933,3.793-5.863,9.592-5.865a7.871,7.871,0,0,1,5.589,1.933q2.068,1.932,2.069,5.865a23.184,23.184,0,0,1-.483,4.45q-.483,2.45-1.379,5.969-.555,2.139-1,4.174a15.818,15.818,0,0,0-.449,3.209,3.286,3.286,0,0,0,.621,2.138,2.623,2.623,0,0,0,2.139.759,4.1,4.1,0,0,0,3.313-1.483,17.4,17.4,0,0,0,2.483-4.588h2.9q-2.553,7.592-5.9,10.177a11.214,11.214,0,0,1-6.934,2.588Q328.31,271.662,326.345,269.419Z" fill="#125562"/>
      <path id="Path_16732" data-name="Path 16732" d="M347.7,234.2h9.936l-1.1,5.175a11.994,11.994,0,0,1,8.073-2.967,7.816,7.816,0,0,1,6.141,2.553q2.277,2.553,2.277,8.348a39.91,39.91,0,0,1-1.587,11.006,21.958,21.958,0,0,1-5.382,9.453,13.329,13.329,0,0,1-10.005,3.9q-4.417,0-5.865-2.485L346.6,286.013,336.178,288.5Zm11.7,28.358a21.083,21.083,0,0,0,3.174-7.417,35.746,35.746,0,0,0,1-8.039q0-5.726-3.45-5.726a4.378,4.378,0,0,0-2.518.9,8.164,8.164,0,0,0-2.243,2.484l-4.071,19.321a2.448,2.448,0,0,0,2.622,1.587A6.484,6.484,0,0,0,359.4,262.553Z" fill="#125562"/>
      <path id="Path_16733" data-name="Path 16733" d="M376.231,269.591q-2.035-2.07-2.035-6.21a24.012,24.012,0,0,1,.552-4.484l7.383-34.569,10.212-1.38-7.935,37.26a8.54,8.54,0,0,0-.276,2.208,2.529,2.529,0,0,0,.655,1.966,3.236,3.236,0,0,0,2.174.586,5.25,5.25,0,0,0,3.726-1.69,9.674,9.674,0,0,0,2.484-4.381h2.9q-2.555,7.452-6.555,10.108a14.286,14.286,0,0,1-7.935,2.657A7.167,7.167,0,0,1,376.231,269.591Z" fill="#125562"/>
      <path id="Path_16734" data-name="Path 16734" d="M395.172,268.9q-2.969-2.622-2.967-8.28a32.922,32.922,0,0,1,1.932-10.419,24.618,24.618,0,0,1,6.21-9.9,14.785,14.785,0,0,1,10.764-4.175q8.832,0,8.832,11.041v.069a2.783,2.783,0,0,0,.759.068,14.168,14.168,0,0,0,5.244-1.207,26.271,26.271,0,0,0,5.382-2.932l.621,1.863a16.511,16.511,0,0,1-5.21,3.622,26.937,26.937,0,0,1-7,2.1,31.253,31.253,0,0,1-2.829,10.971,18.616,18.616,0,0,1-5.865,7.245,13.172,13.172,0,0,1-7.8,2.554A11.755,11.755,0,0,1,395.172,268.9Zm14.145-5.485a17,17,0,0,0,2.9-5.176,33.365,33.365,0,0,0,1.794-7.28q-1.863-.412-1.863-2.9,0-2.829,2.139-3.727a7.117,7.117,0,0,0-.69-3.139,2.117,2.117,0,0,0-1.932-.863q-2.277,0-4.416,3.313a29.224,29.224,0,0,0-3.45,7.935,30.341,30.341,0,0,0-1.311,8.141q0,3.312.759,4.451a3.074,3.074,0,0,0,2.76,1.139A4.568,4.568,0,0,0,409.317,263.417Z" fill="#125562"/>
      <path id="Path_16735" data-name="Path 16735" d="M428.7,286.773A5.929,5.929,0,0,1,426.5,281.8a7.507,7.507,0,0,1,3.174-6.313,27.518,27.518,0,0,1,8.073-3.967l.828-3.727a10.585,10.585,0,0,1-8.28,3.865,7.167,7.167,0,0,1-5.348-2.071q-2.035-2.07-2.035-6.21a24.01,24.01,0,0,1,.552-4.484l4.692-22.149h9.936l-4.968,23.46a7.078,7.078,0,0,0-.207,1.724q0,3.039,2.07,3.036a4.153,4.153,0,0,0,3.174-1.551,11.43,11.43,0,0,0,2.208-4.106l4.83-22.563h9.936L448.3,268.763a12.2,12.2,0,0,0,5.313-3.311,17.77,17.77,0,0,0,3.381-6.555h2.9q-1.863,6.143-5.038,9a16.891,16.891,0,0,1-7.175,3.9l-1.035,4.968q-1.38,6.693-4.761,9.212a12.5,12.5,0,0,1-7.659,2.519A8.706,8.706,0,0,1,428.7,286.773Zm6.21-5.244a12.593,12.593,0,0,0,1.725-4.555l.414-2q-6.763,2.484-6.762,5.865a2.3,2.3,0,0,0,.621,1.587,2.2,2.2,0,0,0,1.725.691A2.982,2.982,0,0,0,434.915,281.529Z" fill="#125562"/>
      <path id="Path_16736" data-name="Path 16736" d="M492.771,269.419a8.126,8.126,0,0,1-1.966-5.554,17.787,17.787,0,0,1,.345-3.278q.345-1.827.725-3.553t.518-2.208q.551-2.415,1.034-4.761a19.82,19.82,0,0,0,.483-3.795q0-3.521-2.484-3.52a3.987,3.987,0,0,0-3.174,1.76,13.529,13.529,0,0,0-2.208,4.588l-4.691,22.15h-9.937l5.037-23.8a7.1,7.1,0,0,0,.207-1.726q0-3.034-2.07-3.036a4.193,4.193,0,0,0-3.347,1.76A13.13,13.13,0,0,0,469,249.1l-4.691,22.15h-9.937l7.314-34.5h9.936l-.759,3.587a10.92,10.92,0,0,1,8.418-3.932q6.07,0,7.107,5.933,3.793-5.863,9.591-5.865a7.869,7.869,0,0,1,5.589,1.933q2.07,1.932,2.07,5.865a23.184,23.184,0,0,1-.483,4.45q-.483,2.45-1.38,5.969-.553,2.139-1,4.174a15.875,15.875,0,0,0-.448,3.209,3.286,3.286,0,0,0,.621,2.138,2.622,2.622,0,0,0,2.139.759,4.1,4.1,0,0,0,3.312-1.483,17.37,17.37,0,0,0,2.484-4.588h2.9q-2.553,7.592-5.9,10.177a11.217,11.217,0,0,1-6.935,2.588Q494.738,271.662,492.771,269.419Z" fill="#125562"/>
      <path id="Path_16737" data-name="Path 16737" d="M510.814,269.005q-2.829-2.655-2.829-8.314a34.123,34.123,0,0,1,1.864-10.488,24.334,24.334,0,0,1,6.072-9.9,14.552,14.552,0,0,1,10.7-4.175q7.59,0,7.59,6.624A12.363,12.363,0,0,1,532,249.858a16.3,16.3,0,0,1-5.865,5.209,18.927,18.927,0,0,1-7.8,2.242q-.14,2.072-.138,2.761,0,3.381,1.173,4.588a5.108,5.108,0,0,0,3.8,1.208,11.456,11.456,0,0,0,6.382-1.726,30.887,30.887,0,0,0,5.831-5.243h2.346q-7.659,12.766-18.975,12.765Q513.642,271.662,510.814,269.005Zm12.938-16.8a12.659,12.659,0,0,0,3.727-4.209,10.952,10.952,0,0,0,1.414-5.382q0-2.829-1.725-2.829-2.484,0-4.864,4.346A33.123,33.123,0,0,0,518.888,254,9.105,9.105,0,0,0,523.752,252.2Z" fill="#125562"/>
      <path id="Path_16738" data-name="Path 16738" d="M554.111,269.419a8.126,8.126,0,0,1-1.966-5.554,17.784,17.784,0,0,1,.345-3.278q.345-1.827.725-3.553t.516-2.208q.553-2.415,1.036-4.761a19.819,19.819,0,0,0,.483-3.795q0-3.521-2.484-3.52a3.987,3.987,0,0,0-3.174,1.76,13.531,13.531,0,0,0-2.208,4.588l-4.692,22.15h-9.936l7.314-34.5h9.936l-.759,3.587a10.524,10.524,0,0,1,8.073-3.864,7.869,7.869,0,0,1,5.589,1.933q2.07,1.932,2.07,5.865a23.26,23.26,0,0,1-.483,4.45q-.483,2.45-1.38,5.969-.554,2.139-1,4.174a15.8,15.8,0,0,0-.448,3.209,3.286,3.286,0,0,0,.621,2.138,2.622,2.622,0,0,0,2.139.759,4.1,4.1,0,0,0,3.312-1.483,17.4,17.4,0,0,0,2.484-4.588h2.9q-2.553,7.592-5.9,10.177a11.219,11.219,0,0,1-6.935,2.588Q556.076,271.662,554.111,269.419Z" fill="#125562"/>
      <path id="Path_16739" data-name="Path 16739" d="M571.5,269.523a8.86,8.86,0,0,1-1.69-5.658,16.759,16.759,0,0,1,.414-3.657l4.416-20.7H572.36l.553-2.759h2.276l2.071-9.523,10.212-1.38q-.621,2.623-.691,3.106-.483,1.932-1.655,7.8h4.14l-.552,2.759h-4.141l-4.416,20.7a11.545,11.545,0,0,0-.345,2.415,2.166,2.166,0,0,0,2.416,2.484,5.565,5.565,0,0,0,1.793-.207q-1.38,4-3.243,5.382a6.682,6.682,0,0,1-4.07,1.38A6.234,6.234,0,0,1,571.5,269.523Z" fill="#125562"/>
      <path id="Path_16740" data-name="Path 16740" d="M592.507,286.773A5.934,5.934,0,0,1,590.3,281.8q0-6.693,11.316-10.28L609,236.748h9.937L612.1,268.763a12.19,12.19,0,0,0,5.312-3.311A17.74,17.74,0,0,0,620.8,258.9h2.9q-1.863,6.143-5.037,9a16.9,16.9,0,0,1-7.176,3.9l-1.035,4.968q-1.382,6.693-4.76,9.212a12.5,12.5,0,0,1-7.66,2.519A8.707,8.707,0,0,1,592.507,286.773Zm6.211-5.244a12.576,12.576,0,0,0,1.724-4.555l.414-2q-6.761,2.484-6.761,5.865a2.306,2.306,0,0,0,.62,1.587,2.2,2.2,0,0,0,1.725.691A2.982,2.982,0,0,0,598.718,281.529Zm12.627-50.163a5.253,5.253,0,0,1-1.588-3.865,5.367,5.367,0,0,1,1.588-3.9,5.2,5.2,0,0,1,3.863-1.621,5.538,5.538,0,0,1,5.521,5.519,5.2,5.2,0,0,1-1.623,3.865,5.371,5.371,0,0,1-3.9,1.587A5.255,5.255,0,0,1,611.345,231.366Z" fill="#125562"/>
      <path id="Path_16741" data-name="Path 16741" d="M622.8,268.9q-2.969-2.622-2.967-8.28a32.922,32.922,0,0,1,1.932-10.419,24.618,24.618,0,0,1,6.21-9.9,14.785,14.785,0,0,1,10.764-4.175q8.832,0,8.832,11.041v.069a2.783,2.783,0,0,0,.759.068,14.168,14.168,0,0,0,5.244-1.207,26.27,26.27,0,0,0,5.382-2.932l.621,1.863a16.511,16.511,0,0,1-5.21,3.622,26.936,26.936,0,0,1-7,2.1,31.253,31.253,0,0,1-2.829,10.971,18.616,18.616,0,0,1-5.865,7.245,13.172,13.172,0,0,1-7.8,2.554A11.755,11.755,0,0,1,622.8,268.9Zm14.145-5.485a17,17,0,0,0,2.9-5.176,33.364,33.364,0,0,0,1.794-7.28q-1.863-.412-1.864-2.9,0-2.829,2.14-3.727a7.118,7.118,0,0,0-.69-3.139,2.117,2.117,0,0,0-1.932-.863q-2.277,0-4.416,3.313a29.225,29.225,0,0,0-3.45,7.935,30.342,30.342,0,0,0-1.311,8.141q0,3.312.759,4.451a3.074,3.074,0,0,0,2.76,1.139A4.568,4.568,0,0,0,636.943,263.417Z" fill="#125562"/>
      <path id="Path_16742" data-name="Path 16742" d="M652.571,269.591q-2.035-2.07-2.035-6.21a24.01,24.01,0,0,1,.552-4.484l4.692-22.149h9.936l-4.968,23.46a9.883,9.883,0,0,0-.207,1.931q0,2.83,2.07,2.829a4.213,4.213,0,0,0,3.312-1.621,12,12,0,0,0,2.208-4.45l4.692-22.149h9.936l-4.968,23.46a8.5,8.5,0,0,0-.276,2.208,2.525,2.525,0,0,0,.655,1.966,3.234,3.234,0,0,0,2.174.586,4.276,4.276,0,0,0,3.346-1.655,12.066,12.066,0,0,0,2.243-4.416h2.9q-2.553,7.452-6.313,10.108a13.019,13.019,0,0,1-7.556,2.657,6.612,6.612,0,0,1-4.727-1.657,7.561,7.561,0,0,1-2.1-4.9,13.95,13.95,0,0,1-4.934,5.175,11.082,11.082,0,0,1-5.278,1.38A7.167,7.167,0,0,1,652.571,269.591Z" fill="#125562"/>
      <path id="Path_16743" data-name="Path 16743" d="M690.624,236.748h9.936l-.9,4.278a27.683,27.683,0,0,1,4.243-3.175,8.042,8.042,0,0,1,4.106-1.1,4.314,4.314,0,0,1,3.484,1.517,5.5,5.5,0,0,1,1.276,3.657,5.226,5.226,0,0,1-1.31,3.52,4.576,4.576,0,0,1-3.657,1.517,2.363,2.363,0,0,1-2.035-.724,5.477,5.477,0,0,1-.794-2.1,6.406,6.406,0,0,0-.414-1.31.77.77,0,0,0-.759-.414,4.774,4.774,0,0,0-2.449.586,16.749,16.749,0,0,0-2.588,2.036l-5.52,26.22H683.31Z" fill="#125562"/>
      <path id="Path_16744" data-name="Path 16744" d="M730.608,269.419a8.126,8.126,0,0,1-1.966-5.554,17.784,17.784,0,0,1,.345-3.278q.345-1.827.725-3.553t.517-2.208q.552-2.415,1.035-4.761a19.815,19.815,0,0,0,.483-3.795q0-3.521-2.484-3.52a3.987,3.987,0,0,0-3.174,1.76,13.531,13.531,0,0,0-2.208,4.588l-4.692,22.15h-9.936l7.314-34.5H726.5l-.759,3.587a10.524,10.524,0,0,1,8.073-3.864,7.869,7.869,0,0,1,5.589,1.933q2.07,1.932,2.07,5.865a23.26,23.26,0,0,1-.483,4.45q-.483,2.45-1.38,5.969-.553,2.139-1,4.174a15.8,15.8,0,0,0-.448,3.209,3.286,3.286,0,0,0,.621,2.138,2.622,2.622,0,0,0,2.139.759,4.1,4.1,0,0,0,3.312-1.483,17.4,17.4,0,0,0,2.484-4.588h2.9q-2.553,7.592-5.9,10.177a11.219,11.219,0,0,1-6.935,2.588Q732.575,271.662,730.608,269.419Z" fill="#125562"/>
      <path id="Path_16745" data-name="Path 16745" d="M748.651,269.005q-2.829-2.655-2.829-8.314a34.124,34.124,0,0,1,1.864-10.488,24.334,24.334,0,0,1,6.072-9.9,14.551,14.551,0,0,1,10.7-4.175q7.59,0,7.59,6.624a12.363,12.363,0,0,1-2.208,7.108,16.3,16.3,0,0,1-5.865,5.209,18.927,18.927,0,0,1-7.8,2.242q-.139,2.072-.138,2.761,0,3.381,1.173,4.588A5.108,5.108,0,0,0,761,265.866a11.456,11.456,0,0,0,6.382-1.726,30.887,30.887,0,0,0,5.831-5.243h2.346q-7.659,12.766-18.975,12.765Q751.48,271.662,748.651,269.005Zm12.938-16.8a12.645,12.645,0,0,0,3.726-4.209,10.942,10.942,0,0,0,1.414-5.382q0-2.829-1.724-2.829-2.484,0-4.864,4.346A33.125,33.125,0,0,0,756.725,254,9.105,9.105,0,0,0,761.589,252.2Z" fill="#125562"/>
      <path id="Path_16746" data-name="Path 16746" d="M778.286,286.393a6.741,6.741,0,0,1-2.449-5.348,7.8,7.8,0,0,1,1.517-4.967,10.388,10.388,0,0,1,3.934-3.036,53.976,53.976,0,0,1,6.485-2.346l.691-3.036a10.846,10.846,0,0,1-8.418,4,7.167,7.167,0,0,1-5.348-2.071q-2.035-2.07-2.035-6.21a24.01,24.01,0,0,1,.552-4.484l4.692-22.149h9.936l-4.968,23.46a7.078,7.078,0,0,0-.207,1.724q0,3.039,2.07,3.036a4.213,4.213,0,0,0,3.312-1.621,12,12,0,0,0,2.208-4.45l4.692-22.149h10.005l-8.418,40.019q-1.381,6.624-4.865,9.178a12.73,12.73,0,0,1-7.693,2.553A8.474,8.474,0,0,1,778.286,286.393Zm6.452-5.313a9.444,9.444,0,0,0,1.725-4.106l.828-4.07a17.967,17.967,0,0,0-5.658,2.9,5.3,5.3,0,0,0-2,4.279,2.071,2.071,0,0,0,.828,1.552,2.841,2.841,0,0,0,1.932.725A3.13,3.13,0,0,0,784.738,281.08Z" fill="#125562"/>
    </g>
  </g>
</svg>
