<svg xmlns="http://www.w3.org/2000/svg" width="85" height="85" viewBox="0 0 85 85">
  <g id="Group_6560" data-name="Group 6560" transform="translate(-4109 4847)">
    <g id="Group_6559" data-name="Group 6559" transform="translate(4102.001 -4852)">
      <path id="Path_16410" data-name="Path 16410" d="M64.795,31.926h-26.4a2.478,2.478,0,0,1,0-4.926h26.4a2.478,2.478,0,0,1,0,4.926Z" fill="#fff"/>
      <path id="Path_16411" data-name="Path 16411" d="M40.589,29.467V59.025a2.215,2.215,0,1,1-4.4,0V29.467a2.215,2.215,0,1,1,4.4,0Z" fill="#fff"/>
      <path id="Path_16412" data-name="Path 16412" d="M67,29.467V59.025a2.214,2.214,0,1,1-4.4,0V29.467a2.214,2.214,0,1,1,4.4,0Z" fill="#fff"/>
      <ellipse id="Ellipse_3856" data-name="Ellipse 3856" cx="6.794" cy="7.607" rx="6.794" ry="7.607" transform="translate(53.411 51.789)" fill="#fff"/>
      <ellipse id="Ellipse_3857" data-name="Ellipse 3857" cx="6.795" cy="7.607" rx="6.795" ry="7.607" transform="translate(26.999 51.789)" fill="#fff"/>
    </g>
    <line id="Line_93" data-name="Line 93" y1="60" x2="60" transform="translate(4121.5 -4834.5)" stroke="#fff" stroke-width="4"/>
    <g id="Ellipse_3858" data-name="Ellipse 3858" transform="translate(4109 -4847)" fill="none" stroke="#fff" stroke-width="4">
      <circle cx="42.5" cy="42.5" r="42.5" stroke="none"/>
      <circle cx="42.5" cy="42.5" r="40.5" fill="none"/>
    </g>
  </g>
</svg>
