<svg xmlns="http://www.w3.org/2000/svg" xmlns:xlink="http://www.w3.org/1999/xlink" width="443" height="72" viewBox="0 0 443 72">
  <defs>
    <clipPath id="clip-path">
      <rect id="Rectangle_2322" data-name="Rectangle 2322" width="443" height="72" rx="28" transform="translate(0 0.495)" fill="#ffce00"/>
    </clipPath>
  </defs>
  <g id="Group_4149" data-name="Group 4149" transform="translate(-1386 -857)">
    <g id="Group_4146" data-name="Group 4146" transform="translate(1386 856.505)">
      <rect id="Rectangle_2321" data-name="Rectangle 2321" width="443" height="72" rx="28" transform="translate(0 0.495)" fill="#86bb71"/>
      <g id="Mask_Group_1" data-name="Mask Group 1" clip-path="url(#clip-path)">
        <path id="Path_10581" data-name="Path 10581" d="M1352.52,547.966s21.148,59.4,129.363,36.734,107.048-44.687,199.5-26.095,146.052-12.854,153.4-51.305c-.906,2.056,0,168.014,0,168.014H1352.52Z" transform="translate(-1371.956 -510.778)" fill="#fff" opacity="0.156"/>
        <path id="Path_10582" data-name="Path 10582" d="M0,47.081S20.578,115.848,125.872,89.61,230.031,37.873,319.99,59.4,462.1,44.518,469.248,0c-.881,2.38,0,194.52,0,194.52H0Z" transform="translate(442.812 80.506) rotate(180)" fill="#fff" opacity="0.156"/>
      </g>
    </g>
    <g id="Group_4147" data-name="Group 4147" transform="translate(1421.414 848)">
      <g id="Group_4148" data-name="Group 4148">
        <text id="You_re_a_pro_Keep_going_" data-name="You’re a pro! Keep going!" transform="translate(63.126 31)" fill="#fff" font-size="22" font-family="Raleway-Bold, Raleway" font-weight="700"><tspan x="25.605" y="21">You’re a pro! Keep going!</tspan></text>
        <path id="positive-vote" d="M56.629,24.725a4.134,4.134,0,0,0-2.56-1.762A4.158,4.158,0,0,0,51.3,16.97a4.168,4.168,0,0,0-.215-4.235,4.13,4.13,0,0,0-2.56-1.762,4.162,4.162,0,0,0-5.983-5.405L38.394,8.311a25.893,25.893,0,0,0-7-2.368,19.237,19.237,0,0,0-2.67-3.23L27.014,1.052a3.751,3.751,0,0,0-5.738,4.764q.067.1.133.206A26.107,26.107,0,1,0,51.166,40.477a.9.9,0,1,0-1.688-.609,24.344,24.344,0,0,1-30.55,14.816l7.3-4.835h0L32.3,45.828h0a2.448,2.448,0,0,0,.69-3.392l-.08-.122,1.179-.781a4,4,0,0,1,2.848-.616,5.786,5.786,0,0,0,4.124-.892l9.777-6.475a24.365,24.365,0,0,1-.331,2.52.9.9,0,0,0,.719,1.046.875.875,0,0,0,.165.015.9.9,0,0,0,.881-.734,26.245,26.245,0,0,0,.429-4.081l2.755-1.825a4.163,4.163,0,0,0,1.172-5.769ZM36.652,9.465,33.91,11.281l-.54-1.454a19.2,19.2,0,0,0-.77-1.784A24.089,24.089,0,0,1,36.652,9.465ZM8.234,15.686a24.314,24.314,0,0,1,14.033-8,11.087,11.087,0,0,1,.559,6.715l-2.188,9.453a2.443,2.443,0,0,0-3.132-.365l-6.2,4.1h0L2.369,33.511c-.049-.631-.074-1.266-.074-1.9A24.3,24.3,0,0,1,8.234,15.686ZM31.59,43.917a.65.65,0,0,1-.28.415h0l-5.33,3.529L16.089,33.109a.9.9,0,0,0-1.491,1l9.886,14.744-7.608,5.039A24.386,24.386,0,0,1,2.6,35.474l8.949-5.907,1.03,1.537a.9.9,0,0,0,1.491-1l-1.023-1.526,5.447-3.6a.653.653,0,0,1,.9.184l12.092,18.26A.647.647,0,0,1,31.59,43.917ZM55.479,27.495A2.352,2.352,0,0,1,54.465,29l-3.15,2.086,0,0L40.071,38.53a4,4,0,0,1-2.848.616,5.789,5.789,0,0,0-4.124.892l-1.179.781-9.9-14.955L24.576,14.8a12.894,12.894,0,0,0-.944-8.464.88.88,0,0,0-.038-.08,12.694,12.694,0,0,0-.821-1.436,1.956,1.956,0,0,1,2.992-2.484L27.479,4a17.534,17.534,0,0,1,4.208,6.449l.933,2.515.005.013.007.018c.007.015.013.03.019.041a.885.885,0,0,0,.062.111.9.9,0,0,0,1.243.253l9.571-6.338a2.368,2.368,0,1,1,2.615,3.948l-.831.55h0L43.458,12.79l-.007,0-.029.022a.9.9,0,0,0,1.027,1.47L46.3,13.058a2.368,2.368,0,0,1,2.613,3.949l-2.685,1.778a.9.9,0,1,0,.991,1.5l.416-.275,1.438-.952A2.368,2.368,0,0,1,51.692,23l-1.341.888-.021.014-1.323.876a.9.9,0,1,0,.991,1.5L50.413,26h0l1.438-.952a2.367,2.367,0,0,1,3.627,2.445Zm0,0" transform="translate(-13.5 14.934)" fill="#fff"/>
      </g>
    </g>
  </g>
</svg>
