<svg id="restrt-icn" xmlns="http://www.w3.org/2000/svg" width="42" height="42" viewBox="0 0 42 42">
  <circle id="Ellipse_28" data-name="Ellipse 28" cx="21" cy="21" r="21" fill="#4b4f53"/>
  <path id="Path_551" data-name="Path 551" d="M28.414,8.775a.742.742,0,1,0-1.465.234l0,.013a8.165,8.165,0,1,1-2.027-4.146L21.639,5.97a.742.742,0,0,0-.47.938h0a.742.742,0,0,0,.938.47h0l4.449-1.483a.742.742,0,0,0,.507-.7V.742a.742.742,0,0,0-1.483,0V3.451a9.543,9.543,0,1,0,2.833,5.325Z" transform="translate(1.715 11.058)" fill="#fff"/>
</svg>
