<svg xmlns="http://www.w3.org/2000/svg" xmlns:xlink="http://www.w3.org/1999/xlink" width="106" height="106" viewBox="0 0 106 106">
  <defs>
    <clipPath id="clip-path">
      <ellipse id="Ellipse_137" data-name="Ellipse 137" cx="50" cy="50" rx="50" ry="50" fill="#fff"/>
    </clipPath>
  </defs>
  <g id="Group_4155" data-name="Group 4155" transform="translate(-10870 -5219)">
    <circle id="Ellipse_570" data-name="Ellipse 570" cx="53" cy="53" r="53" transform="translate(10870 5219)" fill="#94c2ed"/>
    <g id="Group_3660" data-name="Group 3660" transform="translate(10686.594 5110.91)">
      <ellipse id="Ellipse_136" data-name="Ellipse 136" cx="50" cy="50" rx="50" ry="50" transform="translate(186.406 111.09)" fill="#fff"/>
      <g id="Group_3659" data-name="Group 3659" transform="translate(186.406 111.09)" clip-path="url(#clip-path)">
        <path id="Path_405" data-name="Path 405" d="M289.183,429.944s1.514,25.55-27.634,25.55c-34.6,7.344-29.943-11.924-22.107-25.55C247.316,416.354,284,418.133,289.183,429.944Z" transform="translate(-213.101 -285.081)" fill="#233148"/>
        <path id="Path_406" data-name="Path 406" d="M297.145,467.111a112.539,112.539,0,0,0,16.844,2.044s28.164,3.521,29.488-6.587c1.1-8.252-3.9-16.05-18.7-21.009C310.583,436.828,297.145,467.111,297.145,467.111Z" transform="translate(-248.697 -296.697)" fill="#233148"/>
        <path id="Path_407" data-name="Path 407" d="M259.36,237.662c-12.454,0-23.545,5.981-27.293,12.189s-6.889,24.567,4.467,77.3c0,0,26.574,3.294,49.741,0,0,0,4.769-51.709.795-73.21C285.253,244.287,274.388,237.662,259.36,237.662Z" transform="translate(-210.155 -182.287)" fill="#fff"/>
        <path id="Path_408" data-name="Path 408" d="M282.928,207.715l-3.521,15.9s3.1,6.549,8.934,6.549,8.025-7,8.025-7l-3.445-16.126Z" transform="translate(-238.719 -165.059)" fill="#ef7d57"/>
        <path id="Path_409" data-name="Path 409" d="M321.894,180.029c0,3.407-.492,6.737,1.249,6.737,1.173,0,3.217-2.612,3.407-3.293.946-3.255.831-9.844-.946-9.844C323.9,173.631,321.894,176.621,321.894,180.029Z" transform="translate(-262.582 -146.268)" fill="#040405"/>
        <path id="Path_410" data-name="Path 410" d="M272.733,168.066c1.06,9.766,4.959,20.479,12,20.479,7.344.038,10.561-7.684,11.848-20.479C298.171,152.394,271.029,152.091,272.733,168.066Z" transform="translate(-234.922 -136.463)" fill="#f59b6f"/>
        <path id="Path_411" data-name="Path 411" d="M269.079,142.93c4.543,0,11.053,7.949,17,7.8s13.438-5.11,12-14.65c-1.249-8.4-4.088-11.621-8.593-10.864-4.467.757-5.906,6.662-10.751,6.662-6.246,0-8.82-2.877-14.044-2.877-5.943,0-7.949,9.729-7.949,14.12,0,5,5.186,8.858,7.875,13.438C264.65,156.556,264.385,142.93,269.079,142.93Z" transform="translate(-225.968 -118.975)" fill="#ffaf45"/>
        <path id="Path_412" data-name="Path 412" d="M270.221,143.534c4.391,0,10.713,7.684,16.429,7.533s12.984-4.921,11.621-14.2c-1.211-8.137-3.975-11.244-8.29-10.524s-5.716,6.435-10.41,6.435c-6.019,0-8.517-2.8-13.59-2.8-5.716,0-7.684,9.426-7.684,13.665,0,4.808,5,8.555,7.609,13.022C265.943,156.669,265.716,143.534,270.221,143.534Z" transform="translate(-226.845 -119.616)" fill="#ffc162"/>
        <path id="Path_74" data-name="Path 74" d="M289.963,191.723c0,.831.3,1.476.719,1.476s.719-.644.719-1.476-.3-1.476-.719-1.476S289.963,190.89,289.963,191.723Z" transform="translate(-244.657 -155.616)" fill="#482012"/>
        <path id="Path_74-2" data-name="Path 74" d="M309.691,191.723c0,.831.341,1.476.719,1.476s.719-.644.719-1.476-.341-1.476-.719-1.476C309.994,190.247,309.691,190.928,309.691,191.723Z" transform="translate(-255.754 -155.616)" fill="#482012"/>
        <path id="Path_413" data-name="Path 413" d="M285.378,185.109s.946-1.855,4.694-2.044" transform="translate(-242.078 -151.576)" fill="none"/>
        <path id="Path_414" data-name="Path 414" d="M306.749,181.564A7.486,7.486,0,0,1,311.784,183" transform="translate(-254.099 -150.719)" fill="none"/>
        <path id="Path_25-3" data-name="Path 25-3" d="M301.545,194.832a32.817,32.817,0,0,0,.831,4.277,2.657,2.657,0,0,1-1.514.378,2.258,2.258,0,0,0,1.779-.265A35.5,35.5,0,0,0,301.545,194.832Z" transform="translate(-250.788 -158.195)" fill="#1d161f"/>
        <path id="Path_75" data-name="Path 75" d="M299.967,212.483a3.142,3.142,0,0,1-6.284.073c0-.024,0-.049,0-.073Z" transform="translate(-246.749 -168.124)" fill="#f9f7f6"/>
        <path id="Path_415" data-name="Path 415" d="M270.928,151.083c0-14.271,7.533-17.943,12.757-17.943,5.072,0,6.208,2.231,6.208,2.231l-1.287.681c-1.438-1.022-5.262-2.044-9.35.605-4.126,2.688-6.4,7.079-6.4,18.776Z" transform="translate(-233.95 -123.493)" fill="#040405"/>
        <path id="Path_416" data-name="Path 416" d="M267.552,176.506c.227,5.148.341,8.214.265,8.934s-2.877-.605-4.126-1.363-1.969-4.013-2.12-7.568,1.477-4.921,3.634-5.716C267.363,170.031,267.363,171.356,267.552,176.506Z" transform="translate(-228.681 -144.561)" fill="#040405"/>
        <g id="Group_281" data-name="Group 281" transform="translate(55.376 34.669)">
          <path id="Path_417" data-name="Path 417" d="M319.3,200.1s9.047.831,4.088-8.744l.151-1.022s6.625,10.145-4.089,10.826Z" transform="translate(-316.532 -190.333)" fill="#040405"/>
          <ellipse id="Ellipse_16" data-name="Ellipse 16" cx="1.514" cy="1.136" rx="1.514" ry="1.136" transform="translate(0 9.237)" fill="#040405"/>
        </g>
        <path id="Path_418" data-name="Path 418" d="M225.641,350.349c16.542-63.784,16.428-108.794,16.428-108.794s-13.514,3.106-20.176,14.2c-6.662,11.129-1.514,90.7-1.514,90.7Z" transform="translate(-204.448 -184.477)" fill="#e3444b"/>
        <path id="Path_419" data-name="Path 419" d="M229.786,311.9l7.079,30.473s-1.7,8.669-3.785,20.139a36.833,36.833,0,0,1-12-11.167s-.3-5-.681-15.407Z" transform="translate(-205.527 -224.046)" fill="#dd2c34"/>
        <path id="Path_420" data-name="Path 420" d="M342.689,329.339c-13.4-43.116-13.7-87.784-13.7-87.784s13.514,3.106,20.177,14.2-.644,75.86-.644,75.86Z" transform="translate(-266.607 -184.477)" fill="#e3444b"/>
        <path id="Path_421" data-name="Path 421" d="M351.228,311.9l-6.322,30.473s2.006,10.486,4.845,20.139c0,0,4.315-3.483,9.577-11.167,0,0,.719-8.366,1.06-15.823Z" transform="translate(-275.562 -224.046)" fill="#dd2c34"/>
        <path id="Path_422" data-name="Path 422" d="M213.285,288.993s2.158,22.864,2.688,31.533-24.113,10.864-24.492,5.186c-1.514-24.189,8.934-40.467,15.142-51.709" transform="translate(-189.177 -202.729)" fill="#e3444b"/>
        <path id="Path_423" data-name="Path 423" d="M191.7,379.588c.454,3.634,9.691,6.625,15.142,6.663,5.489,0,12.379-2.2,11.886-7.949-.455-5.718-6.322-8.518-10.637-8.518S190.836,372.584,191.7,379.588Z" transform="translate(-189.363 -256.605)" fill="#e3444b"/>
        <g id="Group_282" data-name="Group 282" transform="translate(19.973 118.335)">
          <path id="Path_424" data-name="Path 424" d="M232.37,388.641c1.287,2.309,4.013,2.082,9.35-.417,2.385,0,7.836.719,5.262-3.028s-6.208-4.845-11.129-2.082C230.515,386.142,232.37,388.641,232.37,388.641Z" transform="translate(-232.058 -381.57)" fill="#f59b6f"/>
          <path id="Path_425" data-name="Path 425" d="M246.695,391.62s1.855,4.429,3.483,5.035-.871-4.088-1.59-5.716C247.829,389.311,246.58,389.841,246.695,391.62Z" transform="translate(-240.287 -386.291)" fill="#f59b6f"/>
          <path id="Path_426" data-name="Path 426" d="M253.357,393.091s1.855,4.429,3.482,5.035-.871-4.088-1.59-5.716C254.491,390.782,253.242,391.313,253.357,393.091Z" transform="translate(-244.034 -387.118)" fill="#f59b6f"/>
          <path id="Path_427" data-name="Path 427" d="M258.9,393.092s1.855,4.429,3.482,5.035-.871-4.088-1.59-5.716S258.822,391.313,258.9,393.092Z" transform="translate(-247.154 -387.118)" fill="#f59b6f"/>
          <path id="Path_428" data-name="Path 428" d="M263.567,391.77s1.855,4.429,3.482,5.035-.871-4.088-1.59-5.716C264.7,389.425,263.452,389.993,263.567,391.77Z" transform="translate(-249.777 -386.367)" fill="#f59b6f"/>
        </g>
        <path id="Path_429" data-name="Path 429" d="M356.409,288.993s-2.158,22.864-2.688,31.533,24.113,10.864,24.492,5.186c1.514-24.189-8.934-40.467-15.142-51.709" transform="translate(-280.516 -202.729)" fill="#e3444b"/>
        <path id="Path_430" data-name="Path 430" d="M374.931,379.589c-.454,3.634-9.691,6.625-15.142,6.663s-12.378-2.2-11.886-7.949c.454-5.716,6.322-8.517,10.637-8.517S375.764,372.585,374.931,379.589Z" transform="translate(-277.234 -256.606)" fill="#e3444b"/>
        <g id="Group_283" data-name="Group 283" transform="translate(62.255 118.335)">
          <path id="Path_431" data-name="Path 431" d="M349.046,388.641c-1.287,2.309-4.013,2.082-9.35-.417-2.385,0-7.836.719-5.262-3.028s6.208-4.845,11.129-2.082C350.9,386.142,349.046,388.641,349.046,388.641Z" transform="translate(-331.547 -381.57)" fill="#f59b6f"/>
          <path id="Path_432" data-name="Path 432" d="M349.6,391.62s-1.855,4.429-3.482,5.035.871-4.088,1.59-5.716S349.674,389.841,349.6,391.62Z" transform="translate(-338.193 -386.291)" fill="#f59b6f"/>
          <path id="Path_433" data-name="Path 433" d="M342.936,393.091s-1.855,4.429-3.482,5.035.871-4.088,1.59-5.716C341.8,390.782,343.011,391.313,342.936,393.091Z" transform="translate(-334.446 -387.118)" fill="#f59b6f"/>
          <path id="Path_434" data-name="Path 434" d="M337.311,393.091s-1.855,4.429-3.483,5.035.871-4.088,1.59-5.716C336.176,390.782,337.425,391.313,337.311,393.091Z" transform="translate(-331.282 -387.118)" fill="#f59b6f"/>
          <path id="Path_435" data-name="Path 435" d="M332.725,391.77s-1.855,4.429-3.482,5.035.871-4.088,1.59-5.716C331.59,389.425,332.8,389.993,332.725,391.77Z" transform="translate(-328.702 -386.367)" fill="#f59b6f"/>
        </g>
        <g id="Group_62" data-name="Group 62" transform="translate(36.94 229.999)">
          <path id="Path_57" data-name="Path 57" d="M276.838,667.256l-.795,5.11a4.887,4.887,0,0,0,.417,2.877c1.4,2.688,6.094,4.391,7.8,3.142,1.969-1.476-3.18-6.927-3.18-6.927l-.569-3.823Z" transform="translate(-273.733 -653.933)" fill="#44575c"/>
          <path id="Path_58" data-name="Path 58" d="M279.169,638.24l-1.287,14.082a3.461,3.461,0,0,1-4.05-.644l-2.99-14.875Z" transform="translate(-270.841 -636.803)" fill="#f59b6f"/>
        </g>
        <path id="Path_61" data-name="Path 61" d="M247.673,486.207l10.258,70.561s7.533,3.9,10.3-2.231l7.041-64.012c1.628-10.9-2.538-19.154-13.779-19.154C250.209,471.368,246.575,479.469,247.673,486.207Z" transform="translate(-220.764 -313.748)" fill="#233148"/>
        <g id="Group_62-2" data-name="Group 62" transform="translate(75.325 229.999)">
          <path id="Path_57-2" data-name="Path 57" d="M364.574,667.256l-.795,5.11a4.887,4.887,0,0,0,.417,2.877c1.4,2.688,6.094,4.391,7.8,3.142,1.969-1.476-3.18-6.927-3.18-6.927l-.569-3.823Z" transform="translate(-361.469 -653.933)" fill="#44575c"/>
          <path id="Path_58-2" data-name="Path 58" d="M366.9,638.24l-1.287,14.082a3.461,3.461,0,0,1-4.05-.644l-2.99-14.875Z" transform="translate(-358.577 -636.803)" fill="#f59b6f"/>
        </g>
        <path id="Path_61-2" data-name="Path 61" d="M335.648,496.813l10.258,70.561s7.533,3.9,10.3-2.231l8.971-74.916" transform="translate(-270.355 -324.354)" fill="#233148"/>
      </g>
    </g>
  </g>
</svg>
